M48
; DRILL file {KiCad (5.1.2-1)-1} date Sunday, September 01, 2019 at 10:37:26 PM
; FORMAT={-:-/ absolute / inch / decimal}
; #@! TF.CreationDate,2019-09-01T22:37:26-05:00
; #@! TF.GenerationSoftware,Kicad,Pcbnew,(5.1.2-1)-1
; #@! TF.FileFunction,Plated,1,2,PTH
FMAT,2
INCH
T1C0.0130
T2C0.0315
T3C0.0394
T4C0.0512
%
G90
G05
T1
X0.262Y-3.032
X0.3Y-0.88
X0.554Y-2.516
X0.554Y-2.77
X0.566Y-2.09
X0.666Y-2.092
X0.666Y-2.514
X0.668Y-2.772
X0.712Y-1.006
X0.766Y-2.094
X0.774Y-2.516
X0.794Y-2.77
X0.854Y-1.116
X0.868Y-2.094
X0.994Y-1.178
X1.236Y-2.452
X1.332Y-0.826
X1.506Y-2.804
X1.556Y-2.962
X1.608Y-0.826
X2.006Y-1.24
X2.018Y-2.968
X2.068Y-1.554
X2.104Y-1.306
X2.104Y-1.59
X2.11Y-1.87
X2.11Y-2.134
X2.184Y-0.332
X2.24Y-0.678
X2.458Y-0.882
X2.474Y-2.962
X2.486Y-0.33
X2.74Y-1.682
X2.768Y-1.544
X2.814Y-0.33
X2.814Y-1.21
X2.87Y-0.752
X2.892Y-1.546
X2.906Y-1.314
X2.918Y-1.594
X2.936Y-2.134
X2.938Y-1.864
X2.94Y-2.954
X3.094Y-0.332
X3.098Y-0.878
T2
X0.29Y-1.375
X0.29Y-1.975
X0.39Y-1.375
X0.39Y-1.975
X0.49Y-1.375
X0.49Y-1.975
X0.59Y-1.375
X0.59Y-1.975
X0.69Y-1.375
X0.69Y-1.975
X0.79Y-1.375
X0.79Y-1.975
X0.89Y-1.375
X0.89Y-1.975
X0.99Y-1.375
X0.99Y-1.975
X1.09Y-1.375
X1.09Y-1.975
X1.19Y-1.375
X1.19Y-1.975
X1.29Y-1.375
X1.29Y-1.975
X1.39Y-1.375
X1.39Y-1.975
X1.49Y-1.375
X1.49Y-1.975
X1.59Y-1.375
X1.59Y-1.975
X1.69Y-1.375
X1.69Y-1.975
T3
X1.532Y-3.1134
X1.532Y-3.2906
X1.788Y-3.1134
X1.788Y-3.2906
X2.924Y-3.1114
X2.924Y-3.2886
X3.18Y-3.1114
X3.18Y-3.2886
X0.1Y-0.775
X0.2Y-0.775
X0.3Y-0.775
X0.4Y-0.775
X0.5Y-0.775
X0.6Y-0.775
X0.7Y-0.775
X0.8Y-0.775
X0.9Y-0.775
X1.0Y-0.775
X2.45Y-3.1114
X2.45Y-3.2886
X2.706Y-3.1114
X2.706Y-3.2886
X1.99Y-3.1134
X1.99Y-3.2906
X2.246Y-3.1134
X2.246Y-3.2906
T4
X0.145Y-3.369
X0.295Y-3.369
X2.284Y-0.122
X2.434Y-0.122
X2.584Y-0.122
X0.561Y-3.37
X0.711Y-3.37
X0.861Y-3.37
X1.011Y-3.37
X1.161Y-3.37
X2.886Y-0.122
X3.036Y-0.122
X3.186Y-0.122
T0
M30
