%TF.GenerationSoftware,KiCad,Pcbnew,(5.1.2-1)-1*%
%TF.CreationDate,2019-09-01T22:37:37-05:00*%
%TF.ProjectId,FrankyAlpha,4672616e-6b79-4416-9c70-68612e6b6963,rev?*%
%TF.SameCoordinates,Original*%
%TF.FileFunction,Copper,L2,Bot*%
%TF.FilePolarity,Positive*%
%FSLAX46Y46*%
G04 Gerber Fmt 4.6, Leading zero omitted, Abs format (unit mm)*
G04 Created by KiCad (PCBNEW (5.1.2-1)-1) date 2019-09-01 22:37:37*
%MOMM*%
%LPD*%
G04 APERTURE LIST*
%ADD10C,0.050000*%
%ADD11C,0.100000*%
%ADD12O,1.600000X1.600000*%
%ADD13R,1.600000X1.600000*%
%ADD14O,2.500000X3.000000*%
%ADD15R,1.700000X1.700000*%
%ADD16O,1.700000X1.700000*%
%ADD17C,2.000000*%
%ADD18R,2.000000X2.000000*%
%ADD19C,0.685800*%
%ADD20C,0.203200*%
%ADD21C,0.254000*%
G04 APERTURE END LIST*
D10*
X50800000Y0D02*
X88900000Y0D01*
X88900000Y-88900000D02*
X88900000Y0D01*
X0Y-88900000D02*
X88900000Y-88900000D01*
X0Y-11430000D02*
X0Y-88900000D01*
D11*
X50800000Y-11430000D02*
X0Y-11430000D01*
X50800000Y0D02*
X50800000Y-11430000D01*
D12*
X7366000Y-50165000D03*
X7366000Y-34925000D03*
X42926000Y-50165000D03*
X9906000Y-34925000D03*
X40386000Y-50165000D03*
X12446000Y-34925000D03*
X37846000Y-50165000D03*
X14986000Y-34925000D03*
X35306000Y-50165000D03*
X17526000Y-34925000D03*
X32766000Y-50165000D03*
X20066000Y-34925000D03*
X30226000Y-50165000D03*
X22606000Y-34925000D03*
X27686000Y-50165000D03*
X25146000Y-34925000D03*
X25146000Y-50165000D03*
X27686000Y-34925000D03*
X22606000Y-50165000D03*
X30226000Y-34925000D03*
X20066000Y-50165000D03*
X32766000Y-34925000D03*
X17526000Y-50165000D03*
X35306000Y-34925000D03*
X14986000Y-50165000D03*
X37846000Y-34925000D03*
X12446000Y-50165000D03*
X40386000Y-34925000D03*
X9906000Y-50165000D03*
D13*
X42926000Y-34925000D03*
D14*
X3683000Y-85572600D03*
X7493000Y-85572600D03*
D15*
X25400000Y-19685000D03*
D16*
X22860000Y-19685000D03*
X20320000Y-19685000D03*
X17780000Y-19685000D03*
X15240000Y-19685000D03*
X12700000Y-19685000D03*
X10160000Y-19685000D03*
X7620000Y-19685000D03*
X5080000Y-19685000D03*
X2540000Y-19685000D03*
D14*
X58013600Y-3098800D03*
X61823600Y-3098800D03*
X65633600Y-3098800D03*
X80924400Y-3098800D03*
X77114400Y-3098800D03*
X73304400Y-3098800D03*
X14249400Y-85598000D03*
X18059400Y-85598000D03*
X21869400Y-85598000D03*
X25679400Y-85598000D03*
X29489400Y-85598000D03*
D17*
X45414000Y-83580800D03*
X38914000Y-83580800D03*
X45414000Y-79080800D03*
D18*
X38914000Y-79080800D03*
X50547200Y-79080800D03*
D17*
X57047200Y-79080800D03*
X50547200Y-83580800D03*
X57047200Y-83580800D03*
X68731200Y-83530000D03*
X62231200Y-83530000D03*
X68731200Y-79030000D03*
D18*
X62231200Y-79030000D03*
X74270800Y-79030000D03*
D17*
X80770800Y-79030000D03*
X74270800Y-83530000D03*
X80770800Y-83530000D03*
D19*
X33832800Y-20980400D03*
X31394400Y-62280800D03*
X40843200Y-20980400D03*
X73812400Y-33375600D03*
X53441600Y-33172400D03*
X53594000Y-47498000D03*
X74625200Y-47345600D03*
X74676000Y-75031600D03*
X62839600Y-75234800D03*
X51257200Y-75387200D03*
X39522400Y-75234800D03*
X55473600Y-8432800D03*
X63144400Y-8382000D03*
X71475600Y-8382000D03*
X78587600Y-8432800D03*
X53594000Y-54203600D03*
X74574400Y-54203600D03*
X53441600Y-40386000D03*
X74117200Y-40487600D03*
X6654800Y-77012800D03*
X14376400Y-53086000D03*
X16916400Y-53136800D03*
X19456400Y-53187600D03*
X22047200Y-53187600D03*
X73456800Y-39268400D03*
X78689200Y-22301200D03*
X69596000Y-42722800D03*
X70307200Y-39217600D03*
X71475600Y-30734000D03*
X72898000Y-19100800D03*
X21691600Y-28346400D03*
X18084800Y-25552400D03*
X52527200Y-39471600D03*
X62433200Y-22402800D03*
X25247600Y-29921200D03*
X7620000Y-22352000D03*
X50952400Y-31496000D03*
X56896000Y-17221200D03*
X38252400Y-71221600D03*
X14071600Y-70358000D03*
X14071600Y-63906400D03*
X16967200Y-70408800D03*
X16916400Y-63855600D03*
X20167600Y-70358000D03*
X19659600Y-63906400D03*
D20*
X78689200Y-34036000D02*
X78689200Y-22301200D01*
X73456800Y-39268400D02*
X78689200Y-34036000D01*
X69545200Y-42672000D02*
X69596000Y-42722800D01*
X20193000Y-42672000D02*
X69545200Y-42672000D01*
X12446000Y-34925000D02*
X20193000Y-42672000D01*
X67919600Y-41605200D02*
X70307200Y-39217600D01*
X21666200Y-41605200D02*
X67919600Y-41605200D01*
X14986000Y-34925000D02*
X21666200Y-41605200D01*
X72898000Y-29311600D02*
X72898000Y-19100800D01*
X71475600Y-30734000D02*
X72898000Y-29311600D01*
X18897600Y-25552400D02*
X18084800Y-25552400D01*
X21691600Y-28346400D02*
X18897600Y-25552400D01*
X62433200Y-29565600D02*
X62433200Y-22402800D01*
X52527200Y-39471600D02*
X62433200Y-29565600D01*
X25247600Y-29921200D02*
X19862800Y-24536400D01*
X9804400Y-24536400D02*
X7620000Y-22352000D01*
X19862800Y-24536400D02*
X9804400Y-24536400D01*
X56896000Y-25552400D02*
X56896000Y-17221200D01*
X50952400Y-31496000D02*
X56896000Y-25552400D01*
X37781600Y-82448400D02*
X38914000Y-83580800D01*
X15695800Y-82448400D02*
X37781600Y-82448400D01*
X14249400Y-83894800D02*
X15695800Y-82448400D01*
X14249400Y-85598000D02*
X14249400Y-83894800D01*
X46828213Y-83580800D02*
X50547200Y-83580800D01*
X45414000Y-83580800D02*
X46828213Y-83580800D01*
X62180400Y-83580800D02*
X62231200Y-83530000D01*
X57047200Y-83580800D02*
X62180400Y-83580800D01*
X68731200Y-83530000D02*
X74270800Y-83530000D01*
X36525200Y-72948800D02*
X38252400Y-71221600D01*
X36525200Y-81192000D02*
X36525200Y-72948800D01*
X38914000Y-83580800D02*
X36525200Y-81192000D01*
X14071600Y-70358000D02*
X14071600Y-63906400D01*
X16967200Y-63906400D02*
X16916400Y-63855600D01*
X16967200Y-70408800D02*
X16967200Y-63906400D01*
X20167600Y-64414400D02*
X19659600Y-63906400D01*
X20167600Y-70358000D02*
X20167600Y-64414400D01*
D21*
G36*
X88240000Y-88240000D02*
G01*
X660000Y-88240000D01*
X660000Y-85230004D01*
X1798000Y-85230004D01*
X1798000Y-85915197D01*
X1825275Y-86192124D01*
X1933061Y-86547448D01*
X2108097Y-86874917D01*
X2343655Y-87161945D01*
X2630684Y-87397503D01*
X2958153Y-87572539D01*
X3313477Y-87680325D01*
X3683000Y-87716720D01*
X4052524Y-87680325D01*
X4407848Y-87572539D01*
X4735317Y-87397503D01*
X5022345Y-87161945D01*
X5257903Y-86874917D01*
X5432939Y-86547448D01*
X5540725Y-86192123D01*
X5559978Y-85996640D01*
X5607882Y-85996640D01*
X5678058Y-86361064D01*
X5817981Y-86704795D01*
X6022274Y-87014624D01*
X6283086Y-87278644D01*
X6590394Y-87486709D01*
X6932389Y-87630823D01*
X7073355Y-87660295D01*
X7366000Y-87544172D01*
X7366000Y-85699600D01*
X7620000Y-85699600D01*
X7620000Y-87544172D01*
X7912645Y-87660295D01*
X8053611Y-87630823D01*
X8395606Y-87486709D01*
X8702914Y-87278644D01*
X8963726Y-87014624D01*
X9168019Y-86704795D01*
X9307942Y-86361064D01*
X9378118Y-85996640D01*
X9223385Y-85699600D01*
X7620000Y-85699600D01*
X7366000Y-85699600D01*
X5762615Y-85699600D01*
X5607882Y-85996640D01*
X5559978Y-85996640D01*
X5568000Y-85915196D01*
X5568000Y-85230003D01*
X5559979Y-85148560D01*
X5607882Y-85148560D01*
X5762615Y-85445600D01*
X7366000Y-85445600D01*
X7366000Y-83601028D01*
X7620000Y-83601028D01*
X7620000Y-85445600D01*
X9223385Y-85445600D01*
X9322461Y-85255404D01*
X12364400Y-85255404D01*
X12364400Y-85940597D01*
X12391675Y-86217524D01*
X12499461Y-86572848D01*
X12674497Y-86900317D01*
X12910055Y-87187345D01*
X13197084Y-87422903D01*
X13524553Y-87597939D01*
X13879877Y-87705725D01*
X14249400Y-87742120D01*
X14618924Y-87705725D01*
X14974248Y-87597939D01*
X15301717Y-87422903D01*
X15588745Y-87187345D01*
X15824303Y-86900317D01*
X15999339Y-86572848D01*
X16107125Y-86217523D01*
X16134400Y-85940596D01*
X16134400Y-85255404D01*
X16174400Y-85255404D01*
X16174400Y-85940597D01*
X16201675Y-86217524D01*
X16309461Y-86572848D01*
X16484497Y-86900317D01*
X16720055Y-87187345D01*
X17007084Y-87422903D01*
X17334553Y-87597939D01*
X17689877Y-87705725D01*
X18059400Y-87742120D01*
X18428924Y-87705725D01*
X18784248Y-87597939D01*
X19111717Y-87422903D01*
X19398745Y-87187345D01*
X19634303Y-86900317D01*
X19809339Y-86572848D01*
X19917125Y-86217523D01*
X19944400Y-85940596D01*
X19944400Y-85255404D01*
X19984400Y-85255404D01*
X19984400Y-85940597D01*
X20011675Y-86217524D01*
X20119461Y-86572848D01*
X20294497Y-86900317D01*
X20530055Y-87187345D01*
X20817084Y-87422903D01*
X21144553Y-87597939D01*
X21499877Y-87705725D01*
X21869400Y-87742120D01*
X22238924Y-87705725D01*
X22594248Y-87597939D01*
X22921717Y-87422903D01*
X23208745Y-87187345D01*
X23444303Y-86900317D01*
X23619339Y-86572848D01*
X23727125Y-86217523D01*
X23754400Y-85940596D01*
X23754400Y-85255404D01*
X23794400Y-85255404D01*
X23794400Y-85940597D01*
X23821675Y-86217524D01*
X23929461Y-86572848D01*
X24104497Y-86900317D01*
X24340055Y-87187345D01*
X24627084Y-87422903D01*
X24954553Y-87597939D01*
X25309877Y-87705725D01*
X25679400Y-87742120D01*
X26048924Y-87705725D01*
X26404248Y-87597939D01*
X26731717Y-87422903D01*
X27018745Y-87187345D01*
X27254303Y-86900317D01*
X27429339Y-86572848D01*
X27537125Y-86217523D01*
X27564400Y-85940596D01*
X27564400Y-85255404D01*
X27604400Y-85255404D01*
X27604400Y-85940597D01*
X27631675Y-86217524D01*
X27739461Y-86572848D01*
X27914497Y-86900317D01*
X28150055Y-87187345D01*
X28437084Y-87422903D01*
X28764553Y-87597939D01*
X29119877Y-87705725D01*
X29489400Y-87742120D01*
X29858924Y-87705725D01*
X30214248Y-87597939D01*
X30541717Y-87422903D01*
X30828745Y-87187345D01*
X31064303Y-86900317D01*
X31239339Y-86572848D01*
X31347125Y-86217523D01*
X31374400Y-85940596D01*
X31374400Y-85255403D01*
X31347125Y-84978476D01*
X31239339Y-84623152D01*
X31064303Y-84295683D01*
X30828745Y-84008655D01*
X30541717Y-83773097D01*
X30214247Y-83598061D01*
X29858923Y-83490275D01*
X29489400Y-83453880D01*
X29119876Y-83490275D01*
X28764552Y-83598061D01*
X28437083Y-83773097D01*
X28150055Y-84008655D01*
X27914497Y-84295683D01*
X27739461Y-84623153D01*
X27631675Y-84978477D01*
X27604400Y-85255404D01*
X27564400Y-85255404D01*
X27564400Y-85255403D01*
X27537125Y-84978476D01*
X27429339Y-84623152D01*
X27254303Y-84295683D01*
X27018745Y-84008655D01*
X26731717Y-83773097D01*
X26404247Y-83598061D01*
X26048923Y-83490275D01*
X25679400Y-83453880D01*
X25309876Y-83490275D01*
X24954552Y-83598061D01*
X24627083Y-83773097D01*
X24340055Y-84008655D01*
X24104497Y-84295683D01*
X23929461Y-84623153D01*
X23821675Y-84978477D01*
X23794400Y-85255404D01*
X23754400Y-85255404D01*
X23754400Y-85255403D01*
X23727125Y-84978476D01*
X23619339Y-84623152D01*
X23444303Y-84295683D01*
X23208745Y-84008655D01*
X22921717Y-83773097D01*
X22594247Y-83598061D01*
X22238923Y-83490275D01*
X21869400Y-83453880D01*
X21499876Y-83490275D01*
X21144552Y-83598061D01*
X20817083Y-83773097D01*
X20530055Y-84008655D01*
X20294497Y-84295683D01*
X20119461Y-84623153D01*
X20011675Y-84978477D01*
X19984400Y-85255404D01*
X19944400Y-85255404D01*
X19944400Y-85255403D01*
X19917125Y-84978476D01*
X19809339Y-84623152D01*
X19634303Y-84295683D01*
X19398745Y-84008655D01*
X19111717Y-83773097D01*
X18784247Y-83598061D01*
X18428923Y-83490275D01*
X18059400Y-83453880D01*
X17689876Y-83490275D01*
X17334552Y-83598061D01*
X17007083Y-83773097D01*
X16720055Y-84008655D01*
X16484497Y-84295683D01*
X16309461Y-84623153D01*
X16201675Y-84978477D01*
X16174400Y-85255404D01*
X16134400Y-85255404D01*
X16134400Y-85255403D01*
X16107125Y-84978476D01*
X15999339Y-84623152D01*
X15824303Y-84295683D01*
X15588745Y-84008655D01*
X15362735Y-83823174D01*
X16000909Y-83185000D01*
X37325698Y-83185000D01*
X37279000Y-83419767D01*
X37279000Y-83741833D01*
X37341832Y-84057712D01*
X37465082Y-84355263D01*
X37644013Y-84623052D01*
X37871748Y-84850787D01*
X38139537Y-85029718D01*
X38437088Y-85152968D01*
X38752967Y-85215800D01*
X39075033Y-85215800D01*
X39390912Y-85152968D01*
X39688463Y-85029718D01*
X39956252Y-84850787D01*
X40183987Y-84623052D01*
X40362918Y-84355263D01*
X40486168Y-84057712D01*
X40549000Y-83741833D01*
X40549000Y-83419767D01*
X43779000Y-83419767D01*
X43779000Y-83741833D01*
X43841832Y-84057712D01*
X43965082Y-84355263D01*
X44144013Y-84623052D01*
X44371748Y-84850787D01*
X44639537Y-85029718D01*
X44937088Y-85152968D01*
X45252967Y-85215800D01*
X45575033Y-85215800D01*
X45890912Y-85152968D01*
X46188463Y-85029718D01*
X46456252Y-84850787D01*
X46683987Y-84623052D01*
X46862918Y-84355263D01*
X46878601Y-84317400D01*
X49082599Y-84317400D01*
X49098282Y-84355263D01*
X49277213Y-84623052D01*
X49504948Y-84850787D01*
X49772737Y-85029718D01*
X50070288Y-85152968D01*
X50386167Y-85215800D01*
X50708233Y-85215800D01*
X51024112Y-85152968D01*
X51321663Y-85029718D01*
X51589452Y-84850787D01*
X51817187Y-84623052D01*
X51996118Y-84355263D01*
X52119368Y-84057712D01*
X52182200Y-83741833D01*
X52182200Y-83419767D01*
X55412200Y-83419767D01*
X55412200Y-83741833D01*
X55475032Y-84057712D01*
X55598282Y-84355263D01*
X55777213Y-84623052D01*
X56004948Y-84850787D01*
X56272737Y-85029718D01*
X56570288Y-85152968D01*
X56886167Y-85215800D01*
X57208233Y-85215800D01*
X57524112Y-85152968D01*
X57821663Y-85029718D01*
X58089452Y-84850787D01*
X58317187Y-84623052D01*
X58496118Y-84355263D01*
X58511801Y-84317400D01*
X60790926Y-84317400D01*
X60961213Y-84572252D01*
X61188948Y-84799987D01*
X61456737Y-84978918D01*
X61754288Y-85102168D01*
X62070167Y-85165000D01*
X62392233Y-85165000D01*
X62708112Y-85102168D01*
X63005663Y-84978918D01*
X63273452Y-84799987D01*
X63501187Y-84572252D01*
X63680118Y-84304463D01*
X63803368Y-84006912D01*
X63866200Y-83691033D01*
X63866200Y-83368967D01*
X67096200Y-83368967D01*
X67096200Y-83691033D01*
X67159032Y-84006912D01*
X67282282Y-84304463D01*
X67461213Y-84572252D01*
X67688948Y-84799987D01*
X67956737Y-84978918D01*
X68254288Y-85102168D01*
X68570167Y-85165000D01*
X68892233Y-85165000D01*
X69208112Y-85102168D01*
X69505663Y-84978918D01*
X69773452Y-84799987D01*
X70001187Y-84572252D01*
X70180118Y-84304463D01*
X70195801Y-84266600D01*
X72806199Y-84266600D01*
X72821882Y-84304463D01*
X73000813Y-84572252D01*
X73228548Y-84799987D01*
X73496337Y-84978918D01*
X73793888Y-85102168D01*
X74109767Y-85165000D01*
X74431833Y-85165000D01*
X74747712Y-85102168D01*
X75045263Y-84978918D01*
X75313052Y-84799987D01*
X75540787Y-84572252D01*
X75719718Y-84304463D01*
X75842968Y-84006912D01*
X75905800Y-83691033D01*
X75905800Y-83368967D01*
X79135800Y-83368967D01*
X79135800Y-83691033D01*
X79198632Y-84006912D01*
X79321882Y-84304463D01*
X79500813Y-84572252D01*
X79728548Y-84799987D01*
X79996337Y-84978918D01*
X80293888Y-85102168D01*
X80609767Y-85165000D01*
X80931833Y-85165000D01*
X81247712Y-85102168D01*
X81545263Y-84978918D01*
X81813052Y-84799987D01*
X82040787Y-84572252D01*
X82219718Y-84304463D01*
X82342968Y-84006912D01*
X82405800Y-83691033D01*
X82405800Y-83368967D01*
X82342968Y-83053088D01*
X82219718Y-82755537D01*
X82040787Y-82487748D01*
X81813052Y-82260013D01*
X81545263Y-82081082D01*
X81247712Y-81957832D01*
X80931833Y-81895000D01*
X80609767Y-81895000D01*
X80293888Y-81957832D01*
X79996337Y-82081082D01*
X79728548Y-82260013D01*
X79500813Y-82487748D01*
X79321882Y-82755537D01*
X79198632Y-83053088D01*
X79135800Y-83368967D01*
X75905800Y-83368967D01*
X75842968Y-83053088D01*
X75719718Y-82755537D01*
X75540787Y-82487748D01*
X75313052Y-82260013D01*
X75045263Y-82081082D01*
X74747712Y-81957832D01*
X74431833Y-81895000D01*
X74109767Y-81895000D01*
X73793888Y-81957832D01*
X73496337Y-82081082D01*
X73228548Y-82260013D01*
X73000813Y-82487748D01*
X72821882Y-82755537D01*
X72806199Y-82793400D01*
X70195801Y-82793400D01*
X70180118Y-82755537D01*
X70001187Y-82487748D01*
X69773452Y-82260013D01*
X69505663Y-82081082D01*
X69208112Y-81957832D01*
X68892233Y-81895000D01*
X68570167Y-81895000D01*
X68254288Y-81957832D01*
X67956737Y-82081082D01*
X67688948Y-82260013D01*
X67461213Y-82487748D01*
X67282282Y-82755537D01*
X67159032Y-83053088D01*
X67096200Y-83368967D01*
X63866200Y-83368967D01*
X63803368Y-83053088D01*
X63680118Y-82755537D01*
X63501187Y-82487748D01*
X63273452Y-82260013D01*
X63005663Y-82081082D01*
X62708112Y-81957832D01*
X62392233Y-81895000D01*
X62070167Y-81895000D01*
X61754288Y-81957832D01*
X61456737Y-82081082D01*
X61188948Y-82260013D01*
X60961213Y-82487748D01*
X60782282Y-82755537D01*
X60745556Y-82844200D01*
X58511801Y-82844200D01*
X58496118Y-82806337D01*
X58317187Y-82538548D01*
X58089452Y-82310813D01*
X57821663Y-82131882D01*
X57524112Y-82008632D01*
X57208233Y-81945800D01*
X56886167Y-81945800D01*
X56570288Y-82008632D01*
X56272737Y-82131882D01*
X56004948Y-82310813D01*
X55777213Y-82538548D01*
X55598282Y-82806337D01*
X55475032Y-83103888D01*
X55412200Y-83419767D01*
X52182200Y-83419767D01*
X52119368Y-83103888D01*
X51996118Y-82806337D01*
X51817187Y-82538548D01*
X51589452Y-82310813D01*
X51321663Y-82131882D01*
X51024112Y-82008632D01*
X50708233Y-81945800D01*
X50386167Y-81945800D01*
X50070288Y-82008632D01*
X49772737Y-82131882D01*
X49504948Y-82310813D01*
X49277213Y-82538548D01*
X49098282Y-82806337D01*
X49082599Y-82844200D01*
X46878601Y-82844200D01*
X46862918Y-82806337D01*
X46683987Y-82538548D01*
X46456252Y-82310813D01*
X46188463Y-82131882D01*
X45890912Y-82008632D01*
X45575033Y-81945800D01*
X45252967Y-81945800D01*
X44937088Y-82008632D01*
X44639537Y-82131882D01*
X44371748Y-82310813D01*
X44144013Y-82538548D01*
X43965082Y-82806337D01*
X43841832Y-83103888D01*
X43779000Y-83419767D01*
X40549000Y-83419767D01*
X40486168Y-83103888D01*
X40362918Y-82806337D01*
X40183987Y-82538548D01*
X39956252Y-82310813D01*
X39688463Y-82131882D01*
X39390912Y-82008632D01*
X39075033Y-81945800D01*
X38752967Y-81945800D01*
X38437088Y-82008632D01*
X38399225Y-82024316D01*
X38328046Y-81953137D01*
X38304975Y-81925025D01*
X38276863Y-81901954D01*
X37261800Y-80886891D01*
X37261800Y-78080800D01*
X37275928Y-78080800D01*
X37275928Y-80080800D01*
X37288188Y-80205282D01*
X37324498Y-80324980D01*
X37383463Y-80435294D01*
X37462815Y-80531985D01*
X37559506Y-80611337D01*
X37669820Y-80670302D01*
X37789518Y-80706612D01*
X37914000Y-80718872D01*
X39914000Y-80718872D01*
X40038482Y-80706612D01*
X40158180Y-80670302D01*
X40268494Y-80611337D01*
X40365185Y-80531985D01*
X40444537Y-80435294D01*
X40503502Y-80324980D01*
X40539812Y-80205282D01*
X40552072Y-80080800D01*
X40552072Y-78919767D01*
X43779000Y-78919767D01*
X43779000Y-79241833D01*
X43841832Y-79557712D01*
X43965082Y-79855263D01*
X44144013Y-80123052D01*
X44371748Y-80350787D01*
X44639537Y-80529718D01*
X44937088Y-80652968D01*
X45252967Y-80715800D01*
X45575033Y-80715800D01*
X45890912Y-80652968D01*
X46188463Y-80529718D01*
X46456252Y-80350787D01*
X46683987Y-80123052D01*
X46862918Y-79855263D01*
X46986168Y-79557712D01*
X47049000Y-79241833D01*
X47049000Y-78919767D01*
X46986168Y-78603888D01*
X46862918Y-78306337D01*
X46712219Y-78080800D01*
X48909128Y-78080800D01*
X48909128Y-80080800D01*
X48921388Y-80205282D01*
X48957698Y-80324980D01*
X49016663Y-80435294D01*
X49096015Y-80531985D01*
X49192706Y-80611337D01*
X49303020Y-80670302D01*
X49422718Y-80706612D01*
X49547200Y-80718872D01*
X51547200Y-80718872D01*
X51671682Y-80706612D01*
X51791380Y-80670302D01*
X51901694Y-80611337D01*
X51998385Y-80531985D01*
X52077737Y-80435294D01*
X52136702Y-80324980D01*
X52173012Y-80205282D01*
X52185272Y-80080800D01*
X52185272Y-78919767D01*
X55412200Y-78919767D01*
X55412200Y-79241833D01*
X55475032Y-79557712D01*
X55598282Y-79855263D01*
X55777213Y-80123052D01*
X56004948Y-80350787D01*
X56272737Y-80529718D01*
X56570288Y-80652968D01*
X56886167Y-80715800D01*
X57208233Y-80715800D01*
X57524112Y-80652968D01*
X57821663Y-80529718D01*
X58089452Y-80350787D01*
X58317187Y-80123052D01*
X58496118Y-79855263D01*
X58619368Y-79557712D01*
X58682200Y-79241833D01*
X58682200Y-78919767D01*
X58619368Y-78603888D01*
X58496118Y-78306337D01*
X58317187Y-78038548D01*
X58308639Y-78030000D01*
X60593128Y-78030000D01*
X60593128Y-80030000D01*
X60605388Y-80154482D01*
X60641698Y-80274180D01*
X60700663Y-80384494D01*
X60780015Y-80481185D01*
X60876706Y-80560537D01*
X60987020Y-80619502D01*
X61106718Y-80655812D01*
X61231200Y-80668072D01*
X63231200Y-80668072D01*
X63355682Y-80655812D01*
X63475380Y-80619502D01*
X63585694Y-80560537D01*
X63682385Y-80481185D01*
X63761737Y-80384494D01*
X63820702Y-80274180D01*
X63857012Y-80154482D01*
X63869272Y-80030000D01*
X63869272Y-78868967D01*
X67096200Y-78868967D01*
X67096200Y-79191033D01*
X67159032Y-79506912D01*
X67282282Y-79804463D01*
X67461213Y-80072252D01*
X67688948Y-80299987D01*
X67956737Y-80478918D01*
X68254288Y-80602168D01*
X68570167Y-80665000D01*
X68892233Y-80665000D01*
X69208112Y-80602168D01*
X69505663Y-80478918D01*
X69773452Y-80299987D01*
X70001187Y-80072252D01*
X70180118Y-79804463D01*
X70303368Y-79506912D01*
X70366200Y-79191033D01*
X70366200Y-78868967D01*
X70303368Y-78553088D01*
X70180118Y-78255537D01*
X70029419Y-78030000D01*
X72632728Y-78030000D01*
X72632728Y-80030000D01*
X72644988Y-80154482D01*
X72681298Y-80274180D01*
X72740263Y-80384494D01*
X72819615Y-80481185D01*
X72916306Y-80560537D01*
X73026620Y-80619502D01*
X73146318Y-80655812D01*
X73270800Y-80668072D01*
X75270800Y-80668072D01*
X75395282Y-80655812D01*
X75514980Y-80619502D01*
X75625294Y-80560537D01*
X75721985Y-80481185D01*
X75801337Y-80384494D01*
X75860302Y-80274180D01*
X75896612Y-80154482D01*
X75908872Y-80030000D01*
X75908872Y-78868967D01*
X79135800Y-78868967D01*
X79135800Y-79191033D01*
X79198632Y-79506912D01*
X79321882Y-79804463D01*
X79500813Y-80072252D01*
X79728548Y-80299987D01*
X79996337Y-80478918D01*
X80293888Y-80602168D01*
X80609767Y-80665000D01*
X80931833Y-80665000D01*
X81247712Y-80602168D01*
X81545263Y-80478918D01*
X81813052Y-80299987D01*
X82040787Y-80072252D01*
X82219718Y-79804463D01*
X82342968Y-79506912D01*
X82405800Y-79191033D01*
X82405800Y-78868967D01*
X82342968Y-78553088D01*
X82219718Y-78255537D01*
X82040787Y-77987748D01*
X81813052Y-77760013D01*
X81545263Y-77581082D01*
X81247712Y-77457832D01*
X80931833Y-77395000D01*
X80609767Y-77395000D01*
X80293888Y-77457832D01*
X79996337Y-77581082D01*
X79728548Y-77760013D01*
X79500813Y-77987748D01*
X79321882Y-78255537D01*
X79198632Y-78553088D01*
X79135800Y-78868967D01*
X75908872Y-78868967D01*
X75908872Y-78030000D01*
X75896612Y-77905518D01*
X75860302Y-77785820D01*
X75801337Y-77675506D01*
X75721985Y-77578815D01*
X75625294Y-77499463D01*
X75514980Y-77440498D01*
X75395282Y-77404188D01*
X75270800Y-77391928D01*
X73270800Y-77391928D01*
X73146318Y-77404188D01*
X73026620Y-77440498D01*
X72916306Y-77499463D01*
X72819615Y-77578815D01*
X72740263Y-77675506D01*
X72681298Y-77785820D01*
X72644988Y-77905518D01*
X72632728Y-78030000D01*
X70029419Y-78030000D01*
X70001187Y-77987748D01*
X69773452Y-77760013D01*
X69505663Y-77581082D01*
X69208112Y-77457832D01*
X68892233Y-77395000D01*
X68570167Y-77395000D01*
X68254288Y-77457832D01*
X67956737Y-77581082D01*
X67688948Y-77760013D01*
X67461213Y-77987748D01*
X67282282Y-78255537D01*
X67159032Y-78553088D01*
X67096200Y-78868967D01*
X63869272Y-78868967D01*
X63869272Y-78030000D01*
X63857012Y-77905518D01*
X63820702Y-77785820D01*
X63761737Y-77675506D01*
X63682385Y-77578815D01*
X63585694Y-77499463D01*
X63475380Y-77440498D01*
X63355682Y-77404188D01*
X63231200Y-77391928D01*
X61231200Y-77391928D01*
X61106718Y-77404188D01*
X60987020Y-77440498D01*
X60876706Y-77499463D01*
X60780015Y-77578815D01*
X60700663Y-77675506D01*
X60641698Y-77785820D01*
X60605388Y-77905518D01*
X60593128Y-78030000D01*
X58308639Y-78030000D01*
X58089452Y-77810813D01*
X57821663Y-77631882D01*
X57524112Y-77508632D01*
X57208233Y-77445800D01*
X56886167Y-77445800D01*
X56570288Y-77508632D01*
X56272737Y-77631882D01*
X56004948Y-77810813D01*
X55777213Y-78038548D01*
X55598282Y-78306337D01*
X55475032Y-78603888D01*
X55412200Y-78919767D01*
X52185272Y-78919767D01*
X52185272Y-78080800D01*
X52173012Y-77956318D01*
X52136702Y-77836620D01*
X52077737Y-77726306D01*
X51998385Y-77629615D01*
X51901694Y-77550263D01*
X51791380Y-77491298D01*
X51671682Y-77454988D01*
X51547200Y-77442728D01*
X49547200Y-77442728D01*
X49422718Y-77454988D01*
X49303020Y-77491298D01*
X49192706Y-77550263D01*
X49096015Y-77629615D01*
X49016663Y-77726306D01*
X48957698Y-77836620D01*
X48921388Y-77956318D01*
X48909128Y-78080800D01*
X46712219Y-78080800D01*
X46683987Y-78038548D01*
X46456252Y-77810813D01*
X46188463Y-77631882D01*
X45890912Y-77508632D01*
X45575033Y-77445800D01*
X45252967Y-77445800D01*
X44937088Y-77508632D01*
X44639537Y-77631882D01*
X44371748Y-77810813D01*
X44144013Y-78038548D01*
X43965082Y-78306337D01*
X43841832Y-78603888D01*
X43779000Y-78919767D01*
X40552072Y-78919767D01*
X40552072Y-78080800D01*
X40539812Y-77956318D01*
X40503502Y-77836620D01*
X40444537Y-77726306D01*
X40365185Y-77629615D01*
X40268494Y-77550263D01*
X40158180Y-77491298D01*
X40038482Y-77454988D01*
X39914000Y-77442728D01*
X37914000Y-77442728D01*
X37789518Y-77454988D01*
X37669820Y-77491298D01*
X37559506Y-77550263D01*
X37462815Y-77629615D01*
X37383463Y-77726306D01*
X37324498Y-77836620D01*
X37288188Y-77956318D01*
X37275928Y-78080800D01*
X37261800Y-78080800D01*
X37261800Y-73253909D01*
X38316210Y-72199500D01*
X38348715Y-72199500D01*
X38537643Y-72161920D01*
X38715610Y-72088204D01*
X38875775Y-71981185D01*
X39011985Y-71844975D01*
X39119004Y-71684810D01*
X39192720Y-71506843D01*
X39230300Y-71317915D01*
X39230300Y-71125285D01*
X39192720Y-70936357D01*
X39119004Y-70758390D01*
X39011985Y-70598225D01*
X38875775Y-70462015D01*
X38715610Y-70354996D01*
X38537643Y-70281280D01*
X38348715Y-70243700D01*
X38156085Y-70243700D01*
X37967157Y-70281280D01*
X37789190Y-70354996D01*
X37629025Y-70462015D01*
X37492815Y-70598225D01*
X37385796Y-70758390D01*
X37312080Y-70936357D01*
X37274500Y-71125285D01*
X37274500Y-71157790D01*
X36029932Y-72402359D01*
X36001826Y-72425425D01*
X35978760Y-72453531D01*
X35978758Y-72453533D01*
X35909776Y-72537588D01*
X35841378Y-72665553D01*
X35799259Y-72804402D01*
X35785036Y-72948800D01*
X35788601Y-72984993D01*
X35788600Y-81155817D01*
X35785036Y-81192000D01*
X35788600Y-81228183D01*
X35788600Y-81228185D01*
X35799258Y-81336398D01*
X35841378Y-81475248D01*
X35909776Y-81603212D01*
X35998892Y-81711800D01*
X15731975Y-81711800D01*
X15695799Y-81708237D01*
X15659623Y-81711800D01*
X15659614Y-81711800D01*
X15551401Y-81722458D01*
X15412551Y-81764578D01*
X15284587Y-81832976D01*
X15172425Y-81925025D01*
X15149354Y-81953137D01*
X13754132Y-83348359D01*
X13726026Y-83371425D01*
X13702960Y-83399531D01*
X13702958Y-83399533D01*
X13633976Y-83483588D01*
X13630402Y-83490275D01*
X13582124Y-83580597D01*
X13524552Y-83598061D01*
X13197083Y-83773097D01*
X12910055Y-84008655D01*
X12674497Y-84295683D01*
X12499461Y-84623153D01*
X12391675Y-84978477D01*
X12364400Y-85255404D01*
X9322461Y-85255404D01*
X9378118Y-85148560D01*
X9307942Y-84784136D01*
X9168019Y-84440405D01*
X8963726Y-84130576D01*
X8702914Y-83866556D01*
X8395606Y-83658491D01*
X8053611Y-83514377D01*
X7912645Y-83484905D01*
X7620000Y-83601028D01*
X7366000Y-83601028D01*
X7073355Y-83484905D01*
X6932389Y-83514377D01*
X6590394Y-83658491D01*
X6283086Y-83866556D01*
X6022274Y-84130576D01*
X5817981Y-84440405D01*
X5678058Y-84784136D01*
X5607882Y-85148560D01*
X5559979Y-85148560D01*
X5540725Y-84953076D01*
X5432939Y-84597752D01*
X5257903Y-84270283D01*
X5022345Y-83983255D01*
X4735317Y-83747697D01*
X4407847Y-83572661D01*
X4052523Y-83464875D01*
X3683000Y-83428480D01*
X3313476Y-83464875D01*
X2958152Y-83572661D01*
X2630683Y-83747697D01*
X2343655Y-83983255D01*
X2108097Y-84270283D01*
X1933061Y-84597753D01*
X1825275Y-84953077D01*
X1798000Y-85230004D01*
X660000Y-85230004D01*
X660000Y-63810085D01*
X13093700Y-63810085D01*
X13093700Y-64002715D01*
X13131280Y-64191643D01*
X13204996Y-64369610D01*
X13312015Y-64529775D01*
X13335001Y-64552761D01*
X13335000Y-69711640D01*
X13312015Y-69734625D01*
X13204996Y-69894790D01*
X13131280Y-70072757D01*
X13093700Y-70261685D01*
X13093700Y-70454315D01*
X13131280Y-70643243D01*
X13204996Y-70821210D01*
X13312015Y-70981375D01*
X13448225Y-71117585D01*
X13608390Y-71224604D01*
X13786357Y-71298320D01*
X13975285Y-71335900D01*
X14167915Y-71335900D01*
X14356843Y-71298320D01*
X14534810Y-71224604D01*
X14694975Y-71117585D01*
X14831185Y-70981375D01*
X14938204Y-70821210D01*
X15011920Y-70643243D01*
X15049500Y-70454315D01*
X15049500Y-70261685D01*
X15011920Y-70072757D01*
X14938204Y-69894790D01*
X14831185Y-69734625D01*
X14808200Y-69711640D01*
X14808200Y-64552760D01*
X14831185Y-64529775D01*
X14938204Y-64369610D01*
X15011920Y-64191643D01*
X15049500Y-64002715D01*
X15049500Y-63810085D01*
X15039396Y-63759285D01*
X15938500Y-63759285D01*
X15938500Y-63951915D01*
X15976080Y-64140843D01*
X16049796Y-64318810D01*
X16156815Y-64478975D01*
X16230601Y-64552761D01*
X16230600Y-69762440D01*
X16207615Y-69785425D01*
X16100596Y-69945590D01*
X16026880Y-70123557D01*
X15989300Y-70312485D01*
X15989300Y-70505115D01*
X16026880Y-70694043D01*
X16100596Y-70872010D01*
X16207615Y-71032175D01*
X16343825Y-71168385D01*
X16503990Y-71275404D01*
X16681957Y-71349120D01*
X16870885Y-71386700D01*
X17063515Y-71386700D01*
X17252443Y-71349120D01*
X17430410Y-71275404D01*
X17590575Y-71168385D01*
X17726785Y-71032175D01*
X17833804Y-70872010D01*
X17907520Y-70694043D01*
X17945100Y-70505115D01*
X17945100Y-70312485D01*
X17907520Y-70123557D01*
X17833804Y-69945590D01*
X17726785Y-69785425D01*
X17703800Y-69762440D01*
X17703800Y-64437347D01*
X17783004Y-64318810D01*
X17856720Y-64140843D01*
X17894300Y-63951915D01*
X17894300Y-63810085D01*
X18681700Y-63810085D01*
X18681700Y-64002715D01*
X18719280Y-64191643D01*
X18792996Y-64369610D01*
X18900015Y-64529775D01*
X19036225Y-64665985D01*
X19196390Y-64773004D01*
X19374357Y-64846720D01*
X19431001Y-64857987D01*
X19431000Y-69711640D01*
X19408015Y-69734625D01*
X19300996Y-69894790D01*
X19227280Y-70072757D01*
X19189700Y-70261685D01*
X19189700Y-70454315D01*
X19227280Y-70643243D01*
X19300996Y-70821210D01*
X19408015Y-70981375D01*
X19544225Y-71117585D01*
X19704390Y-71224604D01*
X19882357Y-71298320D01*
X20071285Y-71335900D01*
X20263915Y-71335900D01*
X20452843Y-71298320D01*
X20630810Y-71224604D01*
X20790975Y-71117585D01*
X20927185Y-70981375D01*
X21034204Y-70821210D01*
X21107920Y-70643243D01*
X21145500Y-70454315D01*
X21145500Y-70261685D01*
X21107920Y-70072757D01*
X21034204Y-69894790D01*
X20927185Y-69734625D01*
X20904200Y-69711640D01*
X20904200Y-64450575D01*
X20907763Y-64414399D01*
X20904200Y-64378223D01*
X20904200Y-64378214D01*
X20893542Y-64270001D01*
X20851422Y-64131151D01*
X20783024Y-64003187D01*
X20690975Y-63891025D01*
X20662863Y-63867954D01*
X20637500Y-63842591D01*
X20637500Y-63810085D01*
X20599920Y-63621157D01*
X20526204Y-63443190D01*
X20419185Y-63283025D01*
X20282975Y-63146815D01*
X20122810Y-63039796D01*
X19944843Y-62966080D01*
X19755915Y-62928500D01*
X19563285Y-62928500D01*
X19374357Y-62966080D01*
X19196390Y-63039796D01*
X19036225Y-63146815D01*
X18900015Y-63283025D01*
X18792996Y-63443190D01*
X18719280Y-63621157D01*
X18681700Y-63810085D01*
X17894300Y-63810085D01*
X17894300Y-63759285D01*
X17856720Y-63570357D01*
X17783004Y-63392390D01*
X17675985Y-63232225D01*
X17539775Y-63096015D01*
X17379610Y-62988996D01*
X17201643Y-62915280D01*
X17012715Y-62877700D01*
X16820085Y-62877700D01*
X16631157Y-62915280D01*
X16453190Y-62988996D01*
X16293025Y-63096015D01*
X16156815Y-63232225D01*
X16049796Y-63392390D01*
X15976080Y-63570357D01*
X15938500Y-63759285D01*
X15039396Y-63759285D01*
X15011920Y-63621157D01*
X14938204Y-63443190D01*
X14831185Y-63283025D01*
X14694975Y-63146815D01*
X14534810Y-63039796D01*
X14356843Y-62966080D01*
X14167915Y-62928500D01*
X13975285Y-62928500D01*
X13786357Y-62966080D01*
X13608390Y-63039796D01*
X13448225Y-63146815D01*
X13312015Y-63283025D01*
X13204996Y-63443190D01*
X13131280Y-63621157D01*
X13093700Y-63810085D01*
X660000Y-63810085D01*
X660000Y-62822672D01*
X80315000Y-62822672D01*
X80315000Y-63262928D01*
X80400890Y-63694725D01*
X80569369Y-64101469D01*
X80813962Y-64467529D01*
X81125271Y-64778838D01*
X81491331Y-65023431D01*
X81898075Y-65191910D01*
X82329872Y-65277800D01*
X82770128Y-65277800D01*
X83201925Y-65191910D01*
X83608669Y-65023431D01*
X83974729Y-64778838D01*
X84286038Y-64467529D01*
X84530631Y-64101469D01*
X84699110Y-63694725D01*
X84785000Y-63262928D01*
X84785000Y-62822672D01*
X84699110Y-62390875D01*
X84530631Y-61984131D01*
X84286038Y-61618071D01*
X83974729Y-61306762D01*
X83608669Y-61062169D01*
X83201925Y-60893690D01*
X82770128Y-60807800D01*
X82329872Y-60807800D01*
X81898075Y-60893690D01*
X81491331Y-61062169D01*
X81125271Y-61306762D01*
X80813962Y-61618071D01*
X80569369Y-61984131D01*
X80400890Y-62390875D01*
X80315000Y-62822672D01*
X660000Y-62822672D01*
X660000Y-57996672D01*
X4115000Y-57996672D01*
X4115000Y-58436928D01*
X4200890Y-58868725D01*
X4369369Y-59275469D01*
X4613962Y-59641529D01*
X4925271Y-59952838D01*
X5291331Y-60197431D01*
X5698075Y-60365910D01*
X6129872Y-60451800D01*
X6570128Y-60451800D01*
X7001925Y-60365910D01*
X7408669Y-60197431D01*
X7774729Y-59952838D01*
X8086038Y-59641529D01*
X8330631Y-59275469D01*
X8499110Y-58868725D01*
X8585000Y-58436928D01*
X8585000Y-57996672D01*
X8499110Y-57564875D01*
X8330631Y-57158131D01*
X8086038Y-56792071D01*
X7774729Y-56480762D01*
X7408669Y-56236169D01*
X7001925Y-56067690D01*
X6570128Y-55981800D01*
X6129872Y-55981800D01*
X5698075Y-56067690D01*
X5291331Y-56236169D01*
X4925271Y-56480762D01*
X4613962Y-56792071D01*
X4369369Y-57158131D01*
X4200890Y-57564875D01*
X4115000Y-57996672D01*
X660000Y-57996672D01*
X660000Y-50165000D01*
X5924057Y-50165000D01*
X5951764Y-50446309D01*
X6033818Y-50716808D01*
X6167068Y-50966101D01*
X6346392Y-51184608D01*
X6564899Y-51363932D01*
X6814192Y-51497182D01*
X7084691Y-51579236D01*
X7295508Y-51600000D01*
X7436492Y-51600000D01*
X7647309Y-51579236D01*
X7917808Y-51497182D01*
X8167101Y-51363932D01*
X8385608Y-51184608D01*
X8564932Y-50966101D01*
X8636000Y-50833142D01*
X8707068Y-50966101D01*
X8886392Y-51184608D01*
X9104899Y-51363932D01*
X9354192Y-51497182D01*
X9624691Y-51579236D01*
X9835508Y-51600000D01*
X9976492Y-51600000D01*
X10187309Y-51579236D01*
X10457808Y-51497182D01*
X10707101Y-51363932D01*
X10925608Y-51184608D01*
X11104932Y-50966101D01*
X11176000Y-50833142D01*
X11247068Y-50966101D01*
X11426392Y-51184608D01*
X11644899Y-51363932D01*
X11894192Y-51497182D01*
X12164691Y-51579236D01*
X12375508Y-51600000D01*
X12516492Y-51600000D01*
X12727309Y-51579236D01*
X12997808Y-51497182D01*
X13247101Y-51363932D01*
X13465608Y-51184608D01*
X13644932Y-50966101D01*
X13716000Y-50833142D01*
X13787068Y-50966101D01*
X13966392Y-51184608D01*
X14184899Y-51363932D01*
X14434192Y-51497182D01*
X14704691Y-51579236D01*
X14915508Y-51600000D01*
X15056492Y-51600000D01*
X15267309Y-51579236D01*
X15537808Y-51497182D01*
X15787101Y-51363932D01*
X16005608Y-51184608D01*
X16184932Y-50966101D01*
X16256000Y-50833142D01*
X16327068Y-50966101D01*
X16506392Y-51184608D01*
X16724899Y-51363932D01*
X16974192Y-51497182D01*
X17244691Y-51579236D01*
X17455508Y-51600000D01*
X17596492Y-51600000D01*
X17807309Y-51579236D01*
X18077808Y-51497182D01*
X18327101Y-51363932D01*
X18545608Y-51184608D01*
X18724932Y-50966101D01*
X18796000Y-50833142D01*
X18867068Y-50966101D01*
X19046392Y-51184608D01*
X19264899Y-51363932D01*
X19514192Y-51497182D01*
X19784691Y-51579236D01*
X19995508Y-51600000D01*
X20136492Y-51600000D01*
X20347309Y-51579236D01*
X20617808Y-51497182D01*
X20867101Y-51363932D01*
X21085608Y-51184608D01*
X21264932Y-50966101D01*
X21336000Y-50833142D01*
X21407068Y-50966101D01*
X21586392Y-51184608D01*
X21804899Y-51363932D01*
X22054192Y-51497182D01*
X22324691Y-51579236D01*
X22535508Y-51600000D01*
X22676492Y-51600000D01*
X22887309Y-51579236D01*
X23157808Y-51497182D01*
X23407101Y-51363932D01*
X23625608Y-51184608D01*
X23804932Y-50966101D01*
X23876000Y-50833142D01*
X23947068Y-50966101D01*
X24126392Y-51184608D01*
X24344899Y-51363932D01*
X24594192Y-51497182D01*
X24864691Y-51579236D01*
X25075508Y-51600000D01*
X25216492Y-51600000D01*
X25427309Y-51579236D01*
X25697808Y-51497182D01*
X25947101Y-51363932D01*
X26165608Y-51184608D01*
X26344932Y-50966101D01*
X26416000Y-50833142D01*
X26487068Y-50966101D01*
X26666392Y-51184608D01*
X26884899Y-51363932D01*
X27134192Y-51497182D01*
X27404691Y-51579236D01*
X27615508Y-51600000D01*
X27756492Y-51600000D01*
X27967309Y-51579236D01*
X28237808Y-51497182D01*
X28487101Y-51363932D01*
X28705608Y-51184608D01*
X28884932Y-50966101D01*
X28956000Y-50833142D01*
X29027068Y-50966101D01*
X29206392Y-51184608D01*
X29424899Y-51363932D01*
X29674192Y-51497182D01*
X29944691Y-51579236D01*
X30155508Y-51600000D01*
X30296492Y-51600000D01*
X30507309Y-51579236D01*
X30777808Y-51497182D01*
X31027101Y-51363932D01*
X31245608Y-51184608D01*
X31424932Y-50966101D01*
X31496000Y-50833142D01*
X31567068Y-50966101D01*
X31746392Y-51184608D01*
X31964899Y-51363932D01*
X32214192Y-51497182D01*
X32484691Y-51579236D01*
X32695508Y-51600000D01*
X32836492Y-51600000D01*
X33047309Y-51579236D01*
X33317808Y-51497182D01*
X33567101Y-51363932D01*
X33785608Y-51184608D01*
X33964932Y-50966101D01*
X34036000Y-50833142D01*
X34107068Y-50966101D01*
X34286392Y-51184608D01*
X34504899Y-51363932D01*
X34754192Y-51497182D01*
X35024691Y-51579236D01*
X35235508Y-51600000D01*
X35376492Y-51600000D01*
X35587309Y-51579236D01*
X35857808Y-51497182D01*
X36107101Y-51363932D01*
X36325608Y-51184608D01*
X36504932Y-50966101D01*
X36576000Y-50833142D01*
X36647068Y-50966101D01*
X36826392Y-51184608D01*
X37044899Y-51363932D01*
X37294192Y-51497182D01*
X37564691Y-51579236D01*
X37775508Y-51600000D01*
X37916492Y-51600000D01*
X38127309Y-51579236D01*
X38397808Y-51497182D01*
X38647101Y-51363932D01*
X38865608Y-51184608D01*
X39044932Y-50966101D01*
X39118579Y-50828318D01*
X39233615Y-51020131D01*
X39422586Y-51228519D01*
X39648580Y-51396037D01*
X39902913Y-51516246D01*
X40036961Y-51556904D01*
X40259000Y-51434915D01*
X40259000Y-50292000D01*
X40239000Y-50292000D01*
X40239000Y-50038000D01*
X40259000Y-50038000D01*
X40259000Y-48895085D01*
X40513000Y-48895085D01*
X40513000Y-50038000D01*
X40533000Y-50038000D01*
X40533000Y-50292000D01*
X40513000Y-50292000D01*
X40513000Y-51434915D01*
X40735039Y-51556904D01*
X40869087Y-51516246D01*
X41123420Y-51396037D01*
X41349414Y-51228519D01*
X41538385Y-51020131D01*
X41653421Y-50828318D01*
X41727068Y-50966101D01*
X41906392Y-51184608D01*
X42124899Y-51363932D01*
X42374192Y-51497182D01*
X42644691Y-51579236D01*
X42855508Y-51600000D01*
X42996492Y-51600000D01*
X43207309Y-51579236D01*
X43477808Y-51497182D01*
X43727101Y-51363932D01*
X43945608Y-51184608D01*
X44124932Y-50966101D01*
X44258182Y-50716808D01*
X44340236Y-50446309D01*
X44367943Y-50165000D01*
X44340236Y-49883691D01*
X44258182Y-49613192D01*
X44124932Y-49363899D01*
X43945608Y-49145392D01*
X43727101Y-48966068D01*
X43477808Y-48832818D01*
X43207309Y-48750764D01*
X42996492Y-48730000D01*
X42855508Y-48730000D01*
X42644691Y-48750764D01*
X42374192Y-48832818D01*
X42124899Y-48966068D01*
X41906392Y-49145392D01*
X41727068Y-49363899D01*
X41653421Y-49501682D01*
X41538385Y-49309869D01*
X41349414Y-49101481D01*
X41123420Y-48933963D01*
X40869087Y-48813754D01*
X40735039Y-48773096D01*
X40513000Y-48895085D01*
X40259000Y-48895085D01*
X40036961Y-48773096D01*
X39902913Y-48813754D01*
X39648580Y-48933963D01*
X39422586Y-49101481D01*
X39233615Y-49309869D01*
X39118579Y-49501682D01*
X39044932Y-49363899D01*
X38865608Y-49145392D01*
X38647101Y-48966068D01*
X38397808Y-48832818D01*
X38127309Y-48750764D01*
X37916492Y-48730000D01*
X37775508Y-48730000D01*
X37564691Y-48750764D01*
X37294192Y-48832818D01*
X37044899Y-48966068D01*
X36826392Y-49145392D01*
X36647068Y-49363899D01*
X36576000Y-49496858D01*
X36504932Y-49363899D01*
X36325608Y-49145392D01*
X36107101Y-48966068D01*
X35857808Y-48832818D01*
X35587309Y-48750764D01*
X35376492Y-48730000D01*
X35235508Y-48730000D01*
X35024691Y-48750764D01*
X34754192Y-48832818D01*
X34504899Y-48966068D01*
X34286392Y-49145392D01*
X34107068Y-49363899D01*
X34036000Y-49496858D01*
X33964932Y-49363899D01*
X33785608Y-49145392D01*
X33567101Y-48966068D01*
X33317808Y-48832818D01*
X33047309Y-48750764D01*
X32836492Y-48730000D01*
X32695508Y-48730000D01*
X32484691Y-48750764D01*
X32214192Y-48832818D01*
X31964899Y-48966068D01*
X31746392Y-49145392D01*
X31567068Y-49363899D01*
X31496000Y-49496858D01*
X31424932Y-49363899D01*
X31245608Y-49145392D01*
X31027101Y-48966068D01*
X30777808Y-48832818D01*
X30507309Y-48750764D01*
X30296492Y-48730000D01*
X30155508Y-48730000D01*
X29944691Y-48750764D01*
X29674192Y-48832818D01*
X29424899Y-48966068D01*
X29206392Y-49145392D01*
X29027068Y-49363899D01*
X28956000Y-49496858D01*
X28884932Y-49363899D01*
X28705608Y-49145392D01*
X28487101Y-48966068D01*
X28237808Y-48832818D01*
X27967309Y-48750764D01*
X27756492Y-48730000D01*
X27615508Y-48730000D01*
X27404691Y-48750764D01*
X27134192Y-48832818D01*
X26884899Y-48966068D01*
X26666392Y-49145392D01*
X26487068Y-49363899D01*
X26416000Y-49496858D01*
X26344932Y-49363899D01*
X26165608Y-49145392D01*
X25947101Y-48966068D01*
X25697808Y-48832818D01*
X25427309Y-48750764D01*
X25216492Y-48730000D01*
X25075508Y-48730000D01*
X24864691Y-48750764D01*
X24594192Y-48832818D01*
X24344899Y-48966068D01*
X24126392Y-49145392D01*
X23947068Y-49363899D01*
X23876000Y-49496858D01*
X23804932Y-49363899D01*
X23625608Y-49145392D01*
X23407101Y-48966068D01*
X23157808Y-48832818D01*
X22887309Y-48750764D01*
X22676492Y-48730000D01*
X22535508Y-48730000D01*
X22324691Y-48750764D01*
X22054192Y-48832818D01*
X21804899Y-48966068D01*
X21586392Y-49145392D01*
X21407068Y-49363899D01*
X21336000Y-49496858D01*
X21264932Y-49363899D01*
X21085608Y-49145392D01*
X20867101Y-48966068D01*
X20617808Y-48832818D01*
X20347309Y-48750764D01*
X20136492Y-48730000D01*
X19995508Y-48730000D01*
X19784691Y-48750764D01*
X19514192Y-48832818D01*
X19264899Y-48966068D01*
X19046392Y-49145392D01*
X18867068Y-49363899D01*
X18796000Y-49496858D01*
X18724932Y-49363899D01*
X18545608Y-49145392D01*
X18327101Y-48966068D01*
X18077808Y-48832818D01*
X17807309Y-48750764D01*
X17596492Y-48730000D01*
X17455508Y-48730000D01*
X17244691Y-48750764D01*
X16974192Y-48832818D01*
X16724899Y-48966068D01*
X16506392Y-49145392D01*
X16327068Y-49363899D01*
X16256000Y-49496858D01*
X16184932Y-49363899D01*
X16005608Y-49145392D01*
X15787101Y-48966068D01*
X15537808Y-48832818D01*
X15267309Y-48750764D01*
X15056492Y-48730000D01*
X14915508Y-48730000D01*
X14704691Y-48750764D01*
X14434192Y-48832818D01*
X14184899Y-48966068D01*
X13966392Y-49145392D01*
X13787068Y-49363899D01*
X13716000Y-49496858D01*
X13644932Y-49363899D01*
X13465608Y-49145392D01*
X13247101Y-48966068D01*
X12997808Y-48832818D01*
X12727309Y-48750764D01*
X12516492Y-48730000D01*
X12375508Y-48730000D01*
X12164691Y-48750764D01*
X11894192Y-48832818D01*
X11644899Y-48966068D01*
X11426392Y-49145392D01*
X11247068Y-49363899D01*
X11176000Y-49496858D01*
X11104932Y-49363899D01*
X10925608Y-49145392D01*
X10707101Y-48966068D01*
X10457808Y-48832818D01*
X10187309Y-48750764D01*
X9976492Y-48730000D01*
X9835508Y-48730000D01*
X9624691Y-48750764D01*
X9354192Y-48832818D01*
X9104899Y-48966068D01*
X8886392Y-49145392D01*
X8707068Y-49363899D01*
X8636000Y-49496858D01*
X8564932Y-49363899D01*
X8385608Y-49145392D01*
X8167101Y-48966068D01*
X7917808Y-48832818D01*
X7647309Y-48750764D01*
X7436492Y-48730000D01*
X7295508Y-48730000D01*
X7084691Y-48750764D01*
X6814192Y-48832818D01*
X6564899Y-48966068D01*
X6346392Y-49145392D01*
X6167068Y-49363899D01*
X6033818Y-49613192D01*
X5951764Y-49883691D01*
X5924057Y-50165000D01*
X660000Y-50165000D01*
X660000Y-34925000D01*
X5924057Y-34925000D01*
X5951764Y-35206309D01*
X6033818Y-35476808D01*
X6167068Y-35726101D01*
X6346392Y-35944608D01*
X6564899Y-36123932D01*
X6814192Y-36257182D01*
X7084691Y-36339236D01*
X7295508Y-36360000D01*
X7436492Y-36360000D01*
X7647309Y-36339236D01*
X7917808Y-36257182D01*
X8167101Y-36123932D01*
X8385608Y-35944608D01*
X8564932Y-35726101D01*
X8636000Y-35593142D01*
X8707068Y-35726101D01*
X8886392Y-35944608D01*
X9104899Y-36123932D01*
X9354192Y-36257182D01*
X9624691Y-36339236D01*
X9835508Y-36360000D01*
X9976492Y-36360000D01*
X10187309Y-36339236D01*
X10457808Y-36257182D01*
X10707101Y-36123932D01*
X10925608Y-35944608D01*
X11104932Y-35726101D01*
X11176000Y-35593142D01*
X11247068Y-35726101D01*
X11426392Y-35944608D01*
X11644899Y-36123932D01*
X11894192Y-36257182D01*
X12164691Y-36339236D01*
X12375508Y-36360000D01*
X12516492Y-36360000D01*
X12727309Y-36339236D01*
X12797297Y-36318006D01*
X19646554Y-43167263D01*
X19669625Y-43195375D01*
X19781787Y-43287424D01*
X19909751Y-43355822D01*
X20048601Y-43397942D01*
X20156814Y-43408600D01*
X20156823Y-43408600D01*
X20192999Y-43412163D01*
X20229175Y-43408600D01*
X68898840Y-43408600D01*
X68972625Y-43482385D01*
X69132790Y-43589404D01*
X69310757Y-43663120D01*
X69499685Y-43700700D01*
X69692315Y-43700700D01*
X69881243Y-43663120D01*
X70059210Y-43589404D01*
X70219375Y-43482385D01*
X70355585Y-43346175D01*
X70462604Y-43186010D01*
X70536320Y-43008043D01*
X70573900Y-42819115D01*
X70573900Y-42626485D01*
X70536320Y-42437557D01*
X70462604Y-42259590D01*
X70355585Y-42099425D01*
X70219375Y-41963215D01*
X70059210Y-41856196D01*
X69881243Y-41782480D01*
X69692315Y-41744900D01*
X69499685Y-41744900D01*
X69310757Y-41782480D01*
X69132790Y-41856196D01*
X69014253Y-41935400D01*
X68631109Y-41935400D01*
X70371010Y-40195500D01*
X70403515Y-40195500D01*
X70592443Y-40157920D01*
X70770410Y-40084204D01*
X70930575Y-39977185D01*
X71066785Y-39840975D01*
X71173804Y-39680810D01*
X71247520Y-39502843D01*
X71285100Y-39313915D01*
X71285100Y-39172085D01*
X72478900Y-39172085D01*
X72478900Y-39364715D01*
X72516480Y-39553643D01*
X72590196Y-39731610D01*
X72697215Y-39891775D01*
X72833425Y-40027985D01*
X72993590Y-40135004D01*
X73171557Y-40208720D01*
X73360485Y-40246300D01*
X73553115Y-40246300D01*
X73742043Y-40208720D01*
X73920010Y-40135004D01*
X74080175Y-40027985D01*
X74216385Y-39891775D01*
X74323404Y-39731610D01*
X74397120Y-39553643D01*
X74434700Y-39364715D01*
X74434700Y-39332209D01*
X79184473Y-34582436D01*
X79212574Y-34559375D01*
X79235637Y-34531273D01*
X79235642Y-34531268D01*
X79304623Y-34447214D01*
X79304624Y-34447213D01*
X79373022Y-34319249D01*
X79415142Y-34180399D01*
X79425800Y-34072186D01*
X79425800Y-34072177D01*
X79429363Y-34036001D01*
X79425800Y-33999825D01*
X79425800Y-22947560D01*
X79448785Y-22924575D01*
X79555804Y-22764410D01*
X79629520Y-22586443D01*
X79667100Y-22397515D01*
X79667100Y-22204885D01*
X79629520Y-22015957D01*
X79555804Y-21837990D01*
X79448785Y-21677825D01*
X79312575Y-21541615D01*
X79207599Y-21471472D01*
X80315000Y-21471472D01*
X80315000Y-21911728D01*
X80400890Y-22343525D01*
X80569369Y-22750269D01*
X80813962Y-23116329D01*
X81125271Y-23427638D01*
X81491331Y-23672231D01*
X81898075Y-23840710D01*
X82329872Y-23926600D01*
X82770128Y-23926600D01*
X83201925Y-23840710D01*
X83608669Y-23672231D01*
X83974729Y-23427638D01*
X84286038Y-23116329D01*
X84530631Y-22750269D01*
X84699110Y-22343525D01*
X84785000Y-21911728D01*
X84785000Y-21471472D01*
X84699110Y-21039675D01*
X84530631Y-20632931D01*
X84286038Y-20266871D01*
X83974729Y-19955562D01*
X83608669Y-19710969D01*
X83201925Y-19542490D01*
X82770128Y-19456600D01*
X82329872Y-19456600D01*
X81898075Y-19542490D01*
X81491331Y-19710969D01*
X81125271Y-19955562D01*
X80813962Y-20266871D01*
X80569369Y-20632931D01*
X80400890Y-21039675D01*
X80315000Y-21471472D01*
X79207599Y-21471472D01*
X79152410Y-21434596D01*
X78974443Y-21360880D01*
X78785515Y-21323300D01*
X78592885Y-21323300D01*
X78403957Y-21360880D01*
X78225990Y-21434596D01*
X78065825Y-21541615D01*
X77929615Y-21677825D01*
X77822596Y-21837990D01*
X77748880Y-22015957D01*
X77711300Y-22204885D01*
X77711300Y-22397515D01*
X77748880Y-22586443D01*
X77822596Y-22764410D01*
X77929615Y-22924575D01*
X77952601Y-22947561D01*
X77952600Y-33730890D01*
X73392991Y-38290500D01*
X73360485Y-38290500D01*
X73171557Y-38328080D01*
X72993590Y-38401796D01*
X72833425Y-38508815D01*
X72697215Y-38645025D01*
X72590196Y-38805190D01*
X72516480Y-38983157D01*
X72478900Y-39172085D01*
X71285100Y-39172085D01*
X71285100Y-39121285D01*
X71247520Y-38932357D01*
X71173804Y-38754390D01*
X71066785Y-38594225D01*
X70930575Y-38458015D01*
X70770410Y-38350996D01*
X70592443Y-38277280D01*
X70403515Y-38239700D01*
X70210885Y-38239700D01*
X70021957Y-38277280D01*
X69843990Y-38350996D01*
X69683825Y-38458015D01*
X69547615Y-38594225D01*
X69440596Y-38754390D01*
X69366880Y-38932357D01*
X69329300Y-39121285D01*
X69329300Y-39153790D01*
X67614491Y-40868600D01*
X21971309Y-40868600D01*
X20477994Y-39375285D01*
X51549300Y-39375285D01*
X51549300Y-39567915D01*
X51586880Y-39756843D01*
X51660596Y-39934810D01*
X51767615Y-40094975D01*
X51903825Y-40231185D01*
X52063990Y-40338204D01*
X52241957Y-40411920D01*
X52430885Y-40449500D01*
X52623515Y-40449500D01*
X52812443Y-40411920D01*
X52990410Y-40338204D01*
X53150575Y-40231185D01*
X53286785Y-40094975D01*
X53393804Y-39934810D01*
X53467520Y-39756843D01*
X53505100Y-39567915D01*
X53505100Y-39535409D01*
X62402824Y-30637685D01*
X70497700Y-30637685D01*
X70497700Y-30830315D01*
X70535280Y-31019243D01*
X70608996Y-31197210D01*
X70716015Y-31357375D01*
X70852225Y-31493585D01*
X71012390Y-31600604D01*
X71190357Y-31674320D01*
X71379285Y-31711900D01*
X71571915Y-31711900D01*
X71760843Y-31674320D01*
X71938810Y-31600604D01*
X72098975Y-31493585D01*
X72235185Y-31357375D01*
X72342204Y-31197210D01*
X72415920Y-31019243D01*
X72453500Y-30830315D01*
X72453500Y-30797809D01*
X73393268Y-29858041D01*
X73421374Y-29834975D01*
X73513424Y-29722813D01*
X73581822Y-29594849D01*
X73623942Y-29455999D01*
X73634600Y-29347786D01*
X73634600Y-29347777D01*
X73638163Y-29311601D01*
X73634600Y-29275425D01*
X73634600Y-19747160D01*
X73657585Y-19724175D01*
X73764604Y-19564010D01*
X73838320Y-19386043D01*
X73875900Y-19197115D01*
X73875900Y-19004485D01*
X73838320Y-18815557D01*
X73764604Y-18637590D01*
X73657585Y-18477425D01*
X73521375Y-18341215D01*
X73361210Y-18234196D01*
X73183243Y-18160480D01*
X72994315Y-18122900D01*
X72801685Y-18122900D01*
X72612757Y-18160480D01*
X72434790Y-18234196D01*
X72274625Y-18341215D01*
X72138415Y-18477425D01*
X72031396Y-18637590D01*
X71957680Y-18815557D01*
X71920100Y-19004485D01*
X71920100Y-19197115D01*
X71957680Y-19386043D01*
X72031396Y-19564010D01*
X72138415Y-19724175D01*
X72161401Y-19747161D01*
X72161400Y-29006491D01*
X71411791Y-29756100D01*
X71379285Y-29756100D01*
X71190357Y-29793680D01*
X71012390Y-29867396D01*
X70852225Y-29974415D01*
X70716015Y-30110625D01*
X70608996Y-30270790D01*
X70535280Y-30448757D01*
X70497700Y-30637685D01*
X62402824Y-30637685D01*
X62928474Y-30112036D01*
X62956574Y-30088975D01*
X62979637Y-30060873D01*
X62979642Y-30060868D01*
X63048624Y-29976813D01*
X63049906Y-29974415D01*
X63117022Y-29848849D01*
X63159142Y-29709999D01*
X63169800Y-29601786D01*
X63169800Y-29601785D01*
X63173364Y-29565600D01*
X63169800Y-29529414D01*
X63169800Y-23049160D01*
X63192785Y-23026175D01*
X63299804Y-22866010D01*
X63373520Y-22688043D01*
X63411100Y-22499115D01*
X63411100Y-22306485D01*
X63373520Y-22117557D01*
X63299804Y-21939590D01*
X63192785Y-21779425D01*
X63056575Y-21643215D01*
X62896410Y-21536196D01*
X62718443Y-21462480D01*
X62529515Y-21424900D01*
X62336885Y-21424900D01*
X62147957Y-21462480D01*
X61969990Y-21536196D01*
X61809825Y-21643215D01*
X61673615Y-21779425D01*
X61566596Y-21939590D01*
X61492880Y-22117557D01*
X61455300Y-22306485D01*
X61455300Y-22499115D01*
X61492880Y-22688043D01*
X61566596Y-22866010D01*
X61673615Y-23026175D01*
X61696601Y-23049161D01*
X61696600Y-29260490D01*
X52463391Y-38493700D01*
X52430885Y-38493700D01*
X52241957Y-38531280D01*
X52063990Y-38604996D01*
X51903825Y-38712015D01*
X51767615Y-38848225D01*
X51660596Y-39008390D01*
X51586880Y-39186357D01*
X51549300Y-39375285D01*
X20477994Y-39375285D01*
X17462709Y-36360000D01*
X17596492Y-36360000D01*
X17807309Y-36339236D01*
X18077808Y-36257182D01*
X18327101Y-36123932D01*
X18545608Y-35944608D01*
X18724932Y-35726101D01*
X18796000Y-35593142D01*
X18867068Y-35726101D01*
X19046392Y-35944608D01*
X19264899Y-36123932D01*
X19514192Y-36257182D01*
X19784691Y-36339236D01*
X19995508Y-36360000D01*
X20136492Y-36360000D01*
X20347309Y-36339236D01*
X20617808Y-36257182D01*
X20867101Y-36123932D01*
X21085608Y-35944608D01*
X21264932Y-35726101D01*
X21336000Y-35593142D01*
X21407068Y-35726101D01*
X21586392Y-35944608D01*
X21804899Y-36123932D01*
X22054192Y-36257182D01*
X22324691Y-36339236D01*
X22535508Y-36360000D01*
X22676492Y-36360000D01*
X22887309Y-36339236D01*
X23157808Y-36257182D01*
X23407101Y-36123932D01*
X23625608Y-35944608D01*
X23804932Y-35726101D01*
X23876000Y-35593142D01*
X23947068Y-35726101D01*
X24126392Y-35944608D01*
X24344899Y-36123932D01*
X24594192Y-36257182D01*
X24864691Y-36339236D01*
X25075508Y-36360000D01*
X25216492Y-36360000D01*
X25427309Y-36339236D01*
X25697808Y-36257182D01*
X25947101Y-36123932D01*
X26165608Y-35944608D01*
X26344932Y-35726101D01*
X26416000Y-35593142D01*
X26487068Y-35726101D01*
X26666392Y-35944608D01*
X26884899Y-36123932D01*
X27134192Y-36257182D01*
X27404691Y-36339236D01*
X27615508Y-36360000D01*
X27756492Y-36360000D01*
X27967309Y-36339236D01*
X28237808Y-36257182D01*
X28487101Y-36123932D01*
X28705608Y-35944608D01*
X28884932Y-35726101D01*
X28956000Y-35593142D01*
X29027068Y-35726101D01*
X29206392Y-35944608D01*
X29424899Y-36123932D01*
X29674192Y-36257182D01*
X29944691Y-36339236D01*
X30155508Y-36360000D01*
X30296492Y-36360000D01*
X30507309Y-36339236D01*
X30777808Y-36257182D01*
X31027101Y-36123932D01*
X31245608Y-35944608D01*
X31424932Y-35726101D01*
X31496000Y-35593142D01*
X31567068Y-35726101D01*
X31746392Y-35944608D01*
X31964899Y-36123932D01*
X32214192Y-36257182D01*
X32484691Y-36339236D01*
X32695508Y-36360000D01*
X32836492Y-36360000D01*
X33047309Y-36339236D01*
X33317808Y-36257182D01*
X33567101Y-36123932D01*
X33785608Y-35944608D01*
X33964932Y-35726101D01*
X34038579Y-35588318D01*
X34153615Y-35780131D01*
X34342586Y-35988519D01*
X34568580Y-36156037D01*
X34822913Y-36276246D01*
X34956961Y-36316904D01*
X35179000Y-36194915D01*
X35179000Y-35052000D01*
X35159000Y-35052000D01*
X35159000Y-34798000D01*
X35179000Y-34798000D01*
X35179000Y-33655085D01*
X35433000Y-33655085D01*
X35433000Y-34798000D01*
X35453000Y-34798000D01*
X35453000Y-35052000D01*
X35433000Y-35052000D01*
X35433000Y-36194915D01*
X35655039Y-36316904D01*
X35789087Y-36276246D01*
X36043420Y-36156037D01*
X36269414Y-35988519D01*
X36458385Y-35780131D01*
X36573421Y-35588318D01*
X36647068Y-35726101D01*
X36826392Y-35944608D01*
X37044899Y-36123932D01*
X37294192Y-36257182D01*
X37564691Y-36339236D01*
X37775508Y-36360000D01*
X37916492Y-36360000D01*
X38127309Y-36339236D01*
X38397808Y-36257182D01*
X38647101Y-36123932D01*
X38865608Y-35944608D01*
X39044932Y-35726101D01*
X39116000Y-35593142D01*
X39187068Y-35726101D01*
X39366392Y-35944608D01*
X39584899Y-36123932D01*
X39834192Y-36257182D01*
X40104691Y-36339236D01*
X40315508Y-36360000D01*
X40456492Y-36360000D01*
X40667309Y-36339236D01*
X40937808Y-36257182D01*
X41187101Y-36123932D01*
X41405608Y-35944608D01*
X41498419Y-35831518D01*
X41500188Y-35849482D01*
X41536498Y-35969180D01*
X41595463Y-36079494D01*
X41674815Y-36176185D01*
X41771506Y-36255537D01*
X41881820Y-36314502D01*
X42001518Y-36350812D01*
X42126000Y-36363072D01*
X43726000Y-36363072D01*
X43850482Y-36350812D01*
X43970180Y-36314502D01*
X44080494Y-36255537D01*
X44177185Y-36176185D01*
X44256537Y-36079494D01*
X44315502Y-35969180D01*
X44351812Y-35849482D01*
X44364072Y-35725000D01*
X44364072Y-34125000D01*
X44351812Y-34000518D01*
X44315502Y-33880820D01*
X44256537Y-33770506D01*
X44177185Y-33673815D01*
X44080494Y-33594463D01*
X43970180Y-33535498D01*
X43850482Y-33499188D01*
X43726000Y-33486928D01*
X42126000Y-33486928D01*
X42001518Y-33499188D01*
X41881820Y-33535498D01*
X41771506Y-33594463D01*
X41674815Y-33673815D01*
X41595463Y-33770506D01*
X41536498Y-33880820D01*
X41500188Y-34000518D01*
X41498419Y-34018482D01*
X41405608Y-33905392D01*
X41187101Y-33726068D01*
X40937808Y-33592818D01*
X40667309Y-33510764D01*
X40456492Y-33490000D01*
X40315508Y-33490000D01*
X40104691Y-33510764D01*
X39834192Y-33592818D01*
X39584899Y-33726068D01*
X39366392Y-33905392D01*
X39187068Y-34123899D01*
X39116000Y-34256858D01*
X39044932Y-34123899D01*
X38865608Y-33905392D01*
X38647101Y-33726068D01*
X38397808Y-33592818D01*
X38127309Y-33510764D01*
X37916492Y-33490000D01*
X37775508Y-33490000D01*
X37564691Y-33510764D01*
X37294192Y-33592818D01*
X37044899Y-33726068D01*
X36826392Y-33905392D01*
X36647068Y-34123899D01*
X36573421Y-34261682D01*
X36458385Y-34069869D01*
X36269414Y-33861481D01*
X36043420Y-33693963D01*
X35789087Y-33573754D01*
X35655039Y-33533096D01*
X35433000Y-33655085D01*
X35179000Y-33655085D01*
X34956961Y-33533096D01*
X34822913Y-33573754D01*
X34568580Y-33693963D01*
X34342586Y-33861481D01*
X34153615Y-34069869D01*
X34038579Y-34261682D01*
X33964932Y-34123899D01*
X33785608Y-33905392D01*
X33567101Y-33726068D01*
X33317808Y-33592818D01*
X33047309Y-33510764D01*
X32836492Y-33490000D01*
X32695508Y-33490000D01*
X32484691Y-33510764D01*
X32214192Y-33592818D01*
X31964899Y-33726068D01*
X31746392Y-33905392D01*
X31567068Y-34123899D01*
X31496000Y-34256858D01*
X31424932Y-34123899D01*
X31245608Y-33905392D01*
X31027101Y-33726068D01*
X30777808Y-33592818D01*
X30507309Y-33510764D01*
X30296492Y-33490000D01*
X30155508Y-33490000D01*
X29944691Y-33510764D01*
X29674192Y-33592818D01*
X29424899Y-33726068D01*
X29206392Y-33905392D01*
X29027068Y-34123899D01*
X28956000Y-34256858D01*
X28884932Y-34123899D01*
X28705608Y-33905392D01*
X28487101Y-33726068D01*
X28237808Y-33592818D01*
X27967309Y-33510764D01*
X27756492Y-33490000D01*
X27615508Y-33490000D01*
X27404691Y-33510764D01*
X27134192Y-33592818D01*
X26884899Y-33726068D01*
X26666392Y-33905392D01*
X26487068Y-34123899D01*
X26416000Y-34256858D01*
X26344932Y-34123899D01*
X26165608Y-33905392D01*
X25947101Y-33726068D01*
X25697808Y-33592818D01*
X25427309Y-33510764D01*
X25216492Y-33490000D01*
X25075508Y-33490000D01*
X24864691Y-33510764D01*
X24594192Y-33592818D01*
X24344899Y-33726068D01*
X24126392Y-33905392D01*
X23947068Y-34123899D01*
X23876000Y-34256858D01*
X23804932Y-34123899D01*
X23625608Y-33905392D01*
X23407101Y-33726068D01*
X23157808Y-33592818D01*
X22887309Y-33510764D01*
X22676492Y-33490000D01*
X22535508Y-33490000D01*
X22324691Y-33510764D01*
X22054192Y-33592818D01*
X21804899Y-33726068D01*
X21586392Y-33905392D01*
X21407068Y-34123899D01*
X21336000Y-34256858D01*
X21264932Y-34123899D01*
X21085608Y-33905392D01*
X20867101Y-33726068D01*
X20617808Y-33592818D01*
X20347309Y-33510764D01*
X20136492Y-33490000D01*
X19995508Y-33490000D01*
X19784691Y-33510764D01*
X19514192Y-33592818D01*
X19264899Y-33726068D01*
X19046392Y-33905392D01*
X18867068Y-34123899D01*
X18796000Y-34256858D01*
X18724932Y-34123899D01*
X18545608Y-33905392D01*
X18327101Y-33726068D01*
X18077808Y-33592818D01*
X17807309Y-33510764D01*
X17596492Y-33490000D01*
X17455508Y-33490000D01*
X17244691Y-33510764D01*
X16974192Y-33592818D01*
X16724899Y-33726068D01*
X16506392Y-33905392D01*
X16327068Y-34123899D01*
X16256000Y-34256858D01*
X16184932Y-34123899D01*
X16005608Y-33905392D01*
X15787101Y-33726068D01*
X15537808Y-33592818D01*
X15267309Y-33510764D01*
X15056492Y-33490000D01*
X14915508Y-33490000D01*
X14704691Y-33510764D01*
X14434192Y-33592818D01*
X14184899Y-33726068D01*
X13966392Y-33905392D01*
X13787068Y-34123899D01*
X13716000Y-34256858D01*
X13644932Y-34123899D01*
X13465608Y-33905392D01*
X13247101Y-33726068D01*
X12997808Y-33592818D01*
X12727309Y-33510764D01*
X12516492Y-33490000D01*
X12375508Y-33490000D01*
X12164691Y-33510764D01*
X11894192Y-33592818D01*
X11644899Y-33726068D01*
X11426392Y-33905392D01*
X11247068Y-34123899D01*
X11176000Y-34256858D01*
X11104932Y-34123899D01*
X10925608Y-33905392D01*
X10707101Y-33726068D01*
X10457808Y-33592818D01*
X10187309Y-33510764D01*
X9976492Y-33490000D01*
X9835508Y-33490000D01*
X9624691Y-33510764D01*
X9354192Y-33592818D01*
X9104899Y-33726068D01*
X8886392Y-33905392D01*
X8707068Y-34123899D01*
X8636000Y-34256858D01*
X8564932Y-34123899D01*
X8385608Y-33905392D01*
X8167101Y-33726068D01*
X7917808Y-33592818D01*
X7647309Y-33510764D01*
X7436492Y-33490000D01*
X7295508Y-33490000D01*
X7084691Y-33510764D01*
X6814192Y-33592818D01*
X6564899Y-33726068D01*
X6346392Y-33905392D01*
X6167068Y-34123899D01*
X6033818Y-34373192D01*
X5951764Y-34643691D01*
X5924057Y-34925000D01*
X660000Y-34925000D01*
X660000Y-31399685D01*
X49974500Y-31399685D01*
X49974500Y-31592315D01*
X50012080Y-31781243D01*
X50085796Y-31959210D01*
X50192815Y-32119375D01*
X50329025Y-32255585D01*
X50489190Y-32362604D01*
X50667157Y-32436320D01*
X50856085Y-32473900D01*
X51048715Y-32473900D01*
X51237643Y-32436320D01*
X51415610Y-32362604D01*
X51575775Y-32255585D01*
X51711985Y-32119375D01*
X51819004Y-31959210D01*
X51892720Y-31781243D01*
X51930300Y-31592315D01*
X51930300Y-31559809D01*
X57391274Y-26098836D01*
X57419374Y-26075775D01*
X57442437Y-26047673D01*
X57442442Y-26047668D01*
X57511424Y-25963613D01*
X57578756Y-25837643D01*
X57579822Y-25835649D01*
X57621942Y-25696799D01*
X57632600Y-25588586D01*
X57632600Y-25588585D01*
X57636164Y-25552400D01*
X57632600Y-25516214D01*
X57632600Y-17867560D01*
X57655585Y-17844575D01*
X57762604Y-17684410D01*
X57836320Y-17506443D01*
X57873900Y-17317515D01*
X57873900Y-17124885D01*
X57836320Y-16935957D01*
X57762604Y-16757990D01*
X57655585Y-16597825D01*
X57519375Y-16461615D01*
X57359210Y-16354596D01*
X57181243Y-16280880D01*
X56992315Y-16243300D01*
X56799685Y-16243300D01*
X56610757Y-16280880D01*
X56432790Y-16354596D01*
X56272625Y-16461615D01*
X56136415Y-16597825D01*
X56029396Y-16757990D01*
X55955680Y-16935957D01*
X55918100Y-17124885D01*
X55918100Y-17317515D01*
X55955680Y-17506443D01*
X56029396Y-17684410D01*
X56136415Y-17844575D01*
X56159401Y-17867561D01*
X56159400Y-25247290D01*
X50888591Y-30518100D01*
X50856085Y-30518100D01*
X50667157Y-30555680D01*
X50489190Y-30629396D01*
X50329025Y-30736415D01*
X50192815Y-30872625D01*
X50085796Y-31032790D01*
X50012080Y-31210757D01*
X49974500Y-31399685D01*
X660000Y-31399685D01*
X660000Y-26551472D01*
X4115000Y-26551472D01*
X4115000Y-26991728D01*
X4200890Y-27423525D01*
X4369369Y-27830269D01*
X4613962Y-28196329D01*
X4925271Y-28507638D01*
X5291331Y-28752231D01*
X5698075Y-28920710D01*
X6129872Y-29006600D01*
X6570128Y-29006600D01*
X7001925Y-28920710D01*
X7408669Y-28752231D01*
X7774729Y-28507638D01*
X8086038Y-28196329D01*
X8330631Y-27830269D01*
X8499110Y-27423525D01*
X8585000Y-26991728D01*
X8585000Y-26551472D01*
X8499110Y-26119675D01*
X8330631Y-25712931D01*
X8086038Y-25346871D01*
X7774729Y-25035562D01*
X7408669Y-24790969D01*
X7001925Y-24622490D01*
X6570128Y-24536600D01*
X6129872Y-24536600D01*
X5698075Y-24622490D01*
X5291331Y-24790969D01*
X4925271Y-25035562D01*
X4613962Y-25346871D01*
X4369369Y-25712931D01*
X4200890Y-26119675D01*
X4115000Y-26551472D01*
X660000Y-26551472D01*
X660000Y-22255685D01*
X6642100Y-22255685D01*
X6642100Y-22448315D01*
X6679680Y-22637243D01*
X6753396Y-22815210D01*
X6860415Y-22975375D01*
X6996625Y-23111585D01*
X7156790Y-23218604D01*
X7334757Y-23292320D01*
X7523685Y-23329900D01*
X7556191Y-23329900D01*
X9257957Y-25031667D01*
X9281025Y-25059775D01*
X9393187Y-25151824D01*
X9521151Y-25220222D01*
X9660001Y-25262342D01*
X9768214Y-25273000D01*
X9768223Y-25273000D01*
X9804399Y-25276563D01*
X9840575Y-25273000D01*
X17143318Y-25273000D01*
X17106900Y-25456085D01*
X17106900Y-25648715D01*
X17144480Y-25837643D01*
X17218196Y-26015610D01*
X17325215Y-26175775D01*
X17461425Y-26311985D01*
X17621590Y-26419004D01*
X17799557Y-26492720D01*
X17988485Y-26530300D01*
X18181115Y-26530300D01*
X18370043Y-26492720D01*
X18548010Y-26419004D01*
X18652606Y-26349115D01*
X20713700Y-28410210D01*
X20713700Y-28442715D01*
X20751280Y-28631643D01*
X20824996Y-28809610D01*
X20932015Y-28969775D01*
X21068225Y-29105985D01*
X21228390Y-29213004D01*
X21406357Y-29286720D01*
X21595285Y-29324300D01*
X21787915Y-29324300D01*
X21976843Y-29286720D01*
X22154810Y-29213004D01*
X22314975Y-29105985D01*
X22451185Y-28969775D01*
X22558204Y-28809610D01*
X22631920Y-28631643D01*
X22669500Y-28442715D01*
X22669500Y-28384810D01*
X24269700Y-29985010D01*
X24269700Y-30017515D01*
X24307280Y-30206443D01*
X24380996Y-30384410D01*
X24488015Y-30544575D01*
X24624225Y-30680785D01*
X24784390Y-30787804D01*
X24962357Y-30861520D01*
X25151285Y-30899100D01*
X25343915Y-30899100D01*
X25532843Y-30861520D01*
X25710810Y-30787804D01*
X25870975Y-30680785D01*
X26007185Y-30544575D01*
X26114204Y-30384410D01*
X26187920Y-30206443D01*
X26225500Y-30017515D01*
X26225500Y-29824885D01*
X26187920Y-29635957D01*
X26114204Y-29457990D01*
X26007185Y-29297825D01*
X25870975Y-29161615D01*
X25710810Y-29054596D01*
X25532843Y-28980880D01*
X25343915Y-28943300D01*
X25311410Y-28943300D01*
X20409246Y-24041137D01*
X20386175Y-24013025D01*
X20274013Y-23920976D01*
X20146049Y-23852578D01*
X20007199Y-23810458D01*
X19898986Y-23799800D01*
X19898983Y-23799800D01*
X19862800Y-23796236D01*
X19826617Y-23799800D01*
X10109510Y-23799800D01*
X8597900Y-22288191D01*
X8597900Y-22255685D01*
X8560320Y-22066757D01*
X8486604Y-21888790D01*
X8379585Y-21728625D01*
X8243375Y-21592415D01*
X8083210Y-21485396D01*
X7905243Y-21411680D01*
X7716315Y-21374100D01*
X7523685Y-21374100D01*
X7334757Y-21411680D01*
X7156790Y-21485396D01*
X6996625Y-21592415D01*
X6860415Y-21728625D01*
X6753396Y-21888790D01*
X6679680Y-22066757D01*
X6642100Y-22255685D01*
X660000Y-22255685D01*
X660000Y-19685000D01*
X1047815Y-19685000D01*
X1076487Y-19976111D01*
X1161401Y-20256034D01*
X1299294Y-20514014D01*
X1484866Y-20740134D01*
X1710986Y-20925706D01*
X1968966Y-21063599D01*
X2248889Y-21148513D01*
X2467050Y-21170000D01*
X2612950Y-21170000D01*
X2831111Y-21148513D01*
X3111034Y-21063599D01*
X3369014Y-20925706D01*
X3595134Y-20740134D01*
X3780706Y-20514014D01*
X3815201Y-20449477D01*
X3884822Y-20566355D01*
X4079731Y-20782588D01*
X4313080Y-20956641D01*
X4575901Y-21081825D01*
X4723110Y-21126476D01*
X4953000Y-21005155D01*
X4953000Y-19812000D01*
X4933000Y-19812000D01*
X4933000Y-19558000D01*
X4953000Y-19558000D01*
X4953000Y-18364845D01*
X5207000Y-18364845D01*
X5207000Y-19558000D01*
X5227000Y-19558000D01*
X5227000Y-19812000D01*
X5207000Y-19812000D01*
X5207000Y-21005155D01*
X5436890Y-21126476D01*
X5584099Y-21081825D01*
X5846920Y-20956641D01*
X6080269Y-20782588D01*
X6275178Y-20566355D01*
X6344799Y-20449477D01*
X6379294Y-20514014D01*
X6564866Y-20740134D01*
X6790986Y-20925706D01*
X7048966Y-21063599D01*
X7328889Y-21148513D01*
X7547050Y-21170000D01*
X7692950Y-21170000D01*
X7911111Y-21148513D01*
X8191034Y-21063599D01*
X8449014Y-20925706D01*
X8675134Y-20740134D01*
X8860706Y-20514014D01*
X8890000Y-20459209D01*
X8919294Y-20514014D01*
X9104866Y-20740134D01*
X9330986Y-20925706D01*
X9588966Y-21063599D01*
X9868889Y-21148513D01*
X10087050Y-21170000D01*
X10232950Y-21170000D01*
X10451111Y-21148513D01*
X10731034Y-21063599D01*
X10989014Y-20925706D01*
X11215134Y-20740134D01*
X11400706Y-20514014D01*
X11430000Y-20459209D01*
X11459294Y-20514014D01*
X11644866Y-20740134D01*
X11870986Y-20925706D01*
X12128966Y-21063599D01*
X12408889Y-21148513D01*
X12627050Y-21170000D01*
X12772950Y-21170000D01*
X12991111Y-21148513D01*
X13271034Y-21063599D01*
X13529014Y-20925706D01*
X13755134Y-20740134D01*
X13940706Y-20514014D01*
X13970000Y-20459209D01*
X13999294Y-20514014D01*
X14184866Y-20740134D01*
X14410986Y-20925706D01*
X14668966Y-21063599D01*
X14948889Y-21148513D01*
X15167050Y-21170000D01*
X15312950Y-21170000D01*
X15531111Y-21148513D01*
X15811034Y-21063599D01*
X16069014Y-20925706D01*
X16295134Y-20740134D01*
X16480706Y-20514014D01*
X16510000Y-20459209D01*
X16539294Y-20514014D01*
X16724866Y-20740134D01*
X16950986Y-20925706D01*
X17208966Y-21063599D01*
X17488889Y-21148513D01*
X17707050Y-21170000D01*
X17852950Y-21170000D01*
X18071111Y-21148513D01*
X18351034Y-21063599D01*
X18609014Y-20925706D01*
X18835134Y-20740134D01*
X19020706Y-20514014D01*
X19050000Y-20459209D01*
X19079294Y-20514014D01*
X19264866Y-20740134D01*
X19490986Y-20925706D01*
X19748966Y-21063599D01*
X20028889Y-21148513D01*
X20247050Y-21170000D01*
X20392950Y-21170000D01*
X20611111Y-21148513D01*
X20891034Y-21063599D01*
X21149014Y-20925706D01*
X21375134Y-20740134D01*
X21560706Y-20514014D01*
X21590000Y-20459209D01*
X21619294Y-20514014D01*
X21804866Y-20740134D01*
X22030986Y-20925706D01*
X22288966Y-21063599D01*
X22568889Y-21148513D01*
X22787050Y-21170000D01*
X22932950Y-21170000D01*
X23151111Y-21148513D01*
X23431034Y-21063599D01*
X23689014Y-20925706D01*
X23915134Y-20740134D01*
X23939607Y-20710313D01*
X23960498Y-20779180D01*
X24019463Y-20889494D01*
X24098815Y-20986185D01*
X24195506Y-21065537D01*
X24305820Y-21124502D01*
X24425518Y-21160812D01*
X24550000Y-21173072D01*
X26250000Y-21173072D01*
X26374482Y-21160812D01*
X26494180Y-21124502D01*
X26604494Y-21065537D01*
X26701185Y-20986185D01*
X26780537Y-20889494D01*
X26839502Y-20779180D01*
X26875812Y-20659482D01*
X26888072Y-20535000D01*
X26888072Y-18835000D01*
X26875812Y-18710518D01*
X26839502Y-18590820D01*
X26780537Y-18480506D01*
X26701185Y-18383815D01*
X26604494Y-18304463D01*
X26494180Y-18245498D01*
X26374482Y-18209188D01*
X26250000Y-18196928D01*
X24550000Y-18196928D01*
X24425518Y-18209188D01*
X24305820Y-18245498D01*
X24195506Y-18304463D01*
X24098815Y-18383815D01*
X24019463Y-18480506D01*
X23960498Y-18590820D01*
X23939607Y-18659687D01*
X23915134Y-18629866D01*
X23689014Y-18444294D01*
X23431034Y-18306401D01*
X23151111Y-18221487D01*
X22932950Y-18200000D01*
X22787050Y-18200000D01*
X22568889Y-18221487D01*
X22288966Y-18306401D01*
X22030986Y-18444294D01*
X21804866Y-18629866D01*
X21619294Y-18855986D01*
X21590000Y-18910791D01*
X21560706Y-18855986D01*
X21375134Y-18629866D01*
X21149014Y-18444294D01*
X20891034Y-18306401D01*
X20611111Y-18221487D01*
X20392950Y-18200000D01*
X20247050Y-18200000D01*
X20028889Y-18221487D01*
X19748966Y-18306401D01*
X19490986Y-18444294D01*
X19264866Y-18629866D01*
X19079294Y-18855986D01*
X19050000Y-18910791D01*
X19020706Y-18855986D01*
X18835134Y-18629866D01*
X18609014Y-18444294D01*
X18351034Y-18306401D01*
X18071111Y-18221487D01*
X17852950Y-18200000D01*
X17707050Y-18200000D01*
X17488889Y-18221487D01*
X17208966Y-18306401D01*
X16950986Y-18444294D01*
X16724866Y-18629866D01*
X16539294Y-18855986D01*
X16510000Y-18910791D01*
X16480706Y-18855986D01*
X16295134Y-18629866D01*
X16069014Y-18444294D01*
X15811034Y-18306401D01*
X15531111Y-18221487D01*
X15312950Y-18200000D01*
X15167050Y-18200000D01*
X14948889Y-18221487D01*
X14668966Y-18306401D01*
X14410986Y-18444294D01*
X14184866Y-18629866D01*
X13999294Y-18855986D01*
X13970000Y-18910791D01*
X13940706Y-18855986D01*
X13755134Y-18629866D01*
X13529014Y-18444294D01*
X13271034Y-18306401D01*
X12991111Y-18221487D01*
X12772950Y-18200000D01*
X12627050Y-18200000D01*
X12408889Y-18221487D01*
X12128966Y-18306401D01*
X11870986Y-18444294D01*
X11644866Y-18629866D01*
X11459294Y-18855986D01*
X11430000Y-18910791D01*
X11400706Y-18855986D01*
X11215134Y-18629866D01*
X10989014Y-18444294D01*
X10731034Y-18306401D01*
X10451111Y-18221487D01*
X10232950Y-18200000D01*
X10087050Y-18200000D01*
X9868889Y-18221487D01*
X9588966Y-18306401D01*
X9330986Y-18444294D01*
X9104866Y-18629866D01*
X8919294Y-18855986D01*
X8890000Y-18910791D01*
X8860706Y-18855986D01*
X8675134Y-18629866D01*
X8449014Y-18444294D01*
X8191034Y-18306401D01*
X7911111Y-18221487D01*
X7692950Y-18200000D01*
X7547050Y-18200000D01*
X7328889Y-18221487D01*
X7048966Y-18306401D01*
X6790986Y-18444294D01*
X6564866Y-18629866D01*
X6379294Y-18855986D01*
X6344799Y-18920523D01*
X6275178Y-18803645D01*
X6080269Y-18587412D01*
X5846920Y-18413359D01*
X5584099Y-18288175D01*
X5436890Y-18243524D01*
X5207000Y-18364845D01*
X4953000Y-18364845D01*
X4723110Y-18243524D01*
X4575901Y-18288175D01*
X4313080Y-18413359D01*
X4079731Y-18587412D01*
X3884822Y-18803645D01*
X3815201Y-18920523D01*
X3780706Y-18855986D01*
X3595134Y-18629866D01*
X3369014Y-18444294D01*
X3111034Y-18306401D01*
X2831111Y-18221487D01*
X2612950Y-18200000D01*
X2467050Y-18200000D01*
X2248889Y-18221487D01*
X1968966Y-18306401D01*
X1710986Y-18444294D01*
X1484866Y-18629866D01*
X1299294Y-18855986D01*
X1161401Y-19113966D01*
X1076487Y-19393889D01*
X1047815Y-19685000D01*
X660000Y-19685000D01*
X660000Y-12115000D01*
X50766353Y-12115000D01*
X50800000Y-12118314D01*
X50934283Y-12105088D01*
X51063406Y-12065919D01*
X51182407Y-12002312D01*
X51286711Y-11916711D01*
X51372312Y-11812407D01*
X51435919Y-11693406D01*
X51475088Y-11564283D01*
X51485000Y-11463647D01*
X51488314Y-11430000D01*
X51485000Y-11396353D01*
X51485000Y-2756204D01*
X56128600Y-2756204D01*
X56128600Y-3441397D01*
X56155875Y-3718324D01*
X56263661Y-4073648D01*
X56438697Y-4401117D01*
X56674255Y-4688145D01*
X56961284Y-4923703D01*
X57288753Y-5098739D01*
X57644077Y-5206525D01*
X58013600Y-5242920D01*
X58383124Y-5206525D01*
X58738448Y-5098739D01*
X59065917Y-4923703D01*
X59352945Y-4688145D01*
X59588503Y-4401117D01*
X59763539Y-4073648D01*
X59871325Y-3718323D01*
X59898600Y-3441396D01*
X59898600Y-2756204D01*
X59938600Y-2756204D01*
X59938600Y-3441397D01*
X59965875Y-3718324D01*
X60073661Y-4073648D01*
X60248697Y-4401117D01*
X60484255Y-4688145D01*
X60771284Y-4923703D01*
X61098753Y-5098739D01*
X61454077Y-5206525D01*
X61823600Y-5242920D01*
X62193124Y-5206525D01*
X62548448Y-5098739D01*
X62875917Y-4923703D01*
X63162945Y-4688145D01*
X63398503Y-4401117D01*
X63573539Y-4073648D01*
X63681325Y-3718323D01*
X63708600Y-3441396D01*
X63708600Y-2756204D01*
X63748600Y-2756204D01*
X63748600Y-3441397D01*
X63775875Y-3718324D01*
X63883661Y-4073648D01*
X64058697Y-4401117D01*
X64294255Y-4688145D01*
X64581284Y-4923703D01*
X64908753Y-5098739D01*
X65264077Y-5206525D01*
X65633600Y-5242920D01*
X66003124Y-5206525D01*
X66358448Y-5098739D01*
X66685917Y-4923703D01*
X66972945Y-4688145D01*
X67208503Y-4401117D01*
X67383539Y-4073648D01*
X67491325Y-3718323D01*
X67518600Y-3441396D01*
X67518600Y-2756204D01*
X71419400Y-2756204D01*
X71419400Y-3441397D01*
X71446675Y-3718324D01*
X71554461Y-4073648D01*
X71729497Y-4401117D01*
X71965055Y-4688145D01*
X72252084Y-4923703D01*
X72579553Y-5098739D01*
X72934877Y-5206525D01*
X73304400Y-5242920D01*
X73673924Y-5206525D01*
X74029248Y-5098739D01*
X74356717Y-4923703D01*
X74643745Y-4688145D01*
X74879303Y-4401117D01*
X75054339Y-4073648D01*
X75162125Y-3718323D01*
X75189400Y-3441396D01*
X75189400Y-2756204D01*
X75229400Y-2756204D01*
X75229400Y-3441397D01*
X75256675Y-3718324D01*
X75364461Y-4073648D01*
X75539497Y-4401117D01*
X75775055Y-4688145D01*
X76062084Y-4923703D01*
X76389553Y-5098739D01*
X76744877Y-5206525D01*
X77114400Y-5242920D01*
X77483924Y-5206525D01*
X77839248Y-5098739D01*
X78166717Y-4923703D01*
X78453745Y-4688145D01*
X78689303Y-4401117D01*
X78864339Y-4073648D01*
X78972125Y-3718323D01*
X78999400Y-3441396D01*
X78999400Y-2756204D01*
X79039400Y-2756204D01*
X79039400Y-3441397D01*
X79066675Y-3718324D01*
X79174461Y-4073648D01*
X79349497Y-4401117D01*
X79585055Y-4688145D01*
X79872084Y-4923703D01*
X80199553Y-5098739D01*
X80554877Y-5206525D01*
X80924400Y-5242920D01*
X81293924Y-5206525D01*
X81649248Y-5098739D01*
X81976717Y-4923703D01*
X82263745Y-4688145D01*
X82499303Y-4401117D01*
X82674339Y-4073648D01*
X82782125Y-3718323D01*
X82809400Y-3441396D01*
X82809400Y-2756203D01*
X82782125Y-2479276D01*
X82674339Y-2123952D01*
X82499303Y-1796483D01*
X82263745Y-1509455D01*
X81976717Y-1273897D01*
X81649247Y-1098861D01*
X81293923Y-991075D01*
X80924400Y-954680D01*
X80554876Y-991075D01*
X80199552Y-1098861D01*
X79872083Y-1273897D01*
X79585055Y-1509455D01*
X79349497Y-1796483D01*
X79174461Y-2123953D01*
X79066675Y-2479277D01*
X79039400Y-2756204D01*
X78999400Y-2756204D01*
X78999400Y-2756203D01*
X78972125Y-2479276D01*
X78864339Y-2123952D01*
X78689303Y-1796483D01*
X78453745Y-1509455D01*
X78166717Y-1273897D01*
X77839247Y-1098861D01*
X77483923Y-991075D01*
X77114400Y-954680D01*
X76744876Y-991075D01*
X76389552Y-1098861D01*
X76062083Y-1273897D01*
X75775055Y-1509455D01*
X75539497Y-1796483D01*
X75364461Y-2123953D01*
X75256675Y-2479277D01*
X75229400Y-2756204D01*
X75189400Y-2756204D01*
X75189400Y-2756203D01*
X75162125Y-2479276D01*
X75054339Y-2123952D01*
X74879303Y-1796483D01*
X74643745Y-1509455D01*
X74356717Y-1273897D01*
X74029247Y-1098861D01*
X73673923Y-991075D01*
X73304400Y-954680D01*
X72934876Y-991075D01*
X72579552Y-1098861D01*
X72252083Y-1273897D01*
X71965055Y-1509455D01*
X71729497Y-1796483D01*
X71554461Y-2123953D01*
X71446675Y-2479277D01*
X71419400Y-2756204D01*
X67518600Y-2756204D01*
X67518600Y-2756203D01*
X67491325Y-2479276D01*
X67383539Y-2123952D01*
X67208503Y-1796483D01*
X66972945Y-1509455D01*
X66685917Y-1273897D01*
X66358447Y-1098861D01*
X66003123Y-991075D01*
X65633600Y-954680D01*
X65264076Y-991075D01*
X64908752Y-1098861D01*
X64581283Y-1273897D01*
X64294255Y-1509455D01*
X64058697Y-1796483D01*
X63883661Y-2123953D01*
X63775875Y-2479277D01*
X63748600Y-2756204D01*
X63708600Y-2756204D01*
X63708600Y-2756203D01*
X63681325Y-2479276D01*
X63573539Y-2123952D01*
X63398503Y-1796483D01*
X63162945Y-1509455D01*
X62875917Y-1273897D01*
X62548447Y-1098861D01*
X62193123Y-991075D01*
X61823600Y-954680D01*
X61454076Y-991075D01*
X61098752Y-1098861D01*
X60771283Y-1273897D01*
X60484255Y-1509455D01*
X60248697Y-1796483D01*
X60073661Y-2123953D01*
X59965875Y-2479277D01*
X59938600Y-2756204D01*
X59898600Y-2756204D01*
X59898600Y-2756203D01*
X59871325Y-2479276D01*
X59763539Y-2123952D01*
X59588503Y-1796483D01*
X59352945Y-1509455D01*
X59065917Y-1273897D01*
X58738447Y-1098861D01*
X58383123Y-991075D01*
X58013600Y-954680D01*
X57644076Y-991075D01*
X57288752Y-1098861D01*
X56961283Y-1273897D01*
X56674255Y-1509455D01*
X56438697Y-1796483D01*
X56263661Y-2123953D01*
X56155875Y-2479277D01*
X56128600Y-2756204D01*
X51485000Y-2756204D01*
X51485000Y-660000D01*
X88240001Y-660000D01*
X88240000Y-88240000D01*
X88240000Y-88240000D01*
G37*
X88240000Y-88240000D02*
X660000Y-88240000D01*
X660000Y-85230004D01*
X1798000Y-85230004D01*
X1798000Y-85915197D01*
X1825275Y-86192124D01*
X1933061Y-86547448D01*
X2108097Y-86874917D01*
X2343655Y-87161945D01*
X2630684Y-87397503D01*
X2958153Y-87572539D01*
X3313477Y-87680325D01*
X3683000Y-87716720D01*
X4052524Y-87680325D01*
X4407848Y-87572539D01*
X4735317Y-87397503D01*
X5022345Y-87161945D01*
X5257903Y-86874917D01*
X5432939Y-86547448D01*
X5540725Y-86192123D01*
X5559978Y-85996640D01*
X5607882Y-85996640D01*
X5678058Y-86361064D01*
X5817981Y-86704795D01*
X6022274Y-87014624D01*
X6283086Y-87278644D01*
X6590394Y-87486709D01*
X6932389Y-87630823D01*
X7073355Y-87660295D01*
X7366000Y-87544172D01*
X7366000Y-85699600D01*
X7620000Y-85699600D01*
X7620000Y-87544172D01*
X7912645Y-87660295D01*
X8053611Y-87630823D01*
X8395606Y-87486709D01*
X8702914Y-87278644D01*
X8963726Y-87014624D01*
X9168019Y-86704795D01*
X9307942Y-86361064D01*
X9378118Y-85996640D01*
X9223385Y-85699600D01*
X7620000Y-85699600D01*
X7366000Y-85699600D01*
X5762615Y-85699600D01*
X5607882Y-85996640D01*
X5559978Y-85996640D01*
X5568000Y-85915196D01*
X5568000Y-85230003D01*
X5559979Y-85148560D01*
X5607882Y-85148560D01*
X5762615Y-85445600D01*
X7366000Y-85445600D01*
X7366000Y-83601028D01*
X7620000Y-83601028D01*
X7620000Y-85445600D01*
X9223385Y-85445600D01*
X9322461Y-85255404D01*
X12364400Y-85255404D01*
X12364400Y-85940597D01*
X12391675Y-86217524D01*
X12499461Y-86572848D01*
X12674497Y-86900317D01*
X12910055Y-87187345D01*
X13197084Y-87422903D01*
X13524553Y-87597939D01*
X13879877Y-87705725D01*
X14249400Y-87742120D01*
X14618924Y-87705725D01*
X14974248Y-87597939D01*
X15301717Y-87422903D01*
X15588745Y-87187345D01*
X15824303Y-86900317D01*
X15999339Y-86572848D01*
X16107125Y-86217523D01*
X16134400Y-85940596D01*
X16134400Y-85255404D01*
X16174400Y-85255404D01*
X16174400Y-85940597D01*
X16201675Y-86217524D01*
X16309461Y-86572848D01*
X16484497Y-86900317D01*
X16720055Y-87187345D01*
X17007084Y-87422903D01*
X17334553Y-87597939D01*
X17689877Y-87705725D01*
X18059400Y-87742120D01*
X18428924Y-87705725D01*
X18784248Y-87597939D01*
X19111717Y-87422903D01*
X19398745Y-87187345D01*
X19634303Y-86900317D01*
X19809339Y-86572848D01*
X19917125Y-86217523D01*
X19944400Y-85940596D01*
X19944400Y-85255404D01*
X19984400Y-85255404D01*
X19984400Y-85940597D01*
X20011675Y-86217524D01*
X20119461Y-86572848D01*
X20294497Y-86900317D01*
X20530055Y-87187345D01*
X20817084Y-87422903D01*
X21144553Y-87597939D01*
X21499877Y-87705725D01*
X21869400Y-87742120D01*
X22238924Y-87705725D01*
X22594248Y-87597939D01*
X22921717Y-87422903D01*
X23208745Y-87187345D01*
X23444303Y-86900317D01*
X23619339Y-86572848D01*
X23727125Y-86217523D01*
X23754400Y-85940596D01*
X23754400Y-85255404D01*
X23794400Y-85255404D01*
X23794400Y-85940597D01*
X23821675Y-86217524D01*
X23929461Y-86572848D01*
X24104497Y-86900317D01*
X24340055Y-87187345D01*
X24627084Y-87422903D01*
X24954553Y-87597939D01*
X25309877Y-87705725D01*
X25679400Y-87742120D01*
X26048924Y-87705725D01*
X26404248Y-87597939D01*
X26731717Y-87422903D01*
X27018745Y-87187345D01*
X27254303Y-86900317D01*
X27429339Y-86572848D01*
X27537125Y-86217523D01*
X27564400Y-85940596D01*
X27564400Y-85255404D01*
X27604400Y-85255404D01*
X27604400Y-85940597D01*
X27631675Y-86217524D01*
X27739461Y-86572848D01*
X27914497Y-86900317D01*
X28150055Y-87187345D01*
X28437084Y-87422903D01*
X28764553Y-87597939D01*
X29119877Y-87705725D01*
X29489400Y-87742120D01*
X29858924Y-87705725D01*
X30214248Y-87597939D01*
X30541717Y-87422903D01*
X30828745Y-87187345D01*
X31064303Y-86900317D01*
X31239339Y-86572848D01*
X31347125Y-86217523D01*
X31374400Y-85940596D01*
X31374400Y-85255403D01*
X31347125Y-84978476D01*
X31239339Y-84623152D01*
X31064303Y-84295683D01*
X30828745Y-84008655D01*
X30541717Y-83773097D01*
X30214247Y-83598061D01*
X29858923Y-83490275D01*
X29489400Y-83453880D01*
X29119876Y-83490275D01*
X28764552Y-83598061D01*
X28437083Y-83773097D01*
X28150055Y-84008655D01*
X27914497Y-84295683D01*
X27739461Y-84623153D01*
X27631675Y-84978477D01*
X27604400Y-85255404D01*
X27564400Y-85255404D01*
X27564400Y-85255403D01*
X27537125Y-84978476D01*
X27429339Y-84623152D01*
X27254303Y-84295683D01*
X27018745Y-84008655D01*
X26731717Y-83773097D01*
X26404247Y-83598061D01*
X26048923Y-83490275D01*
X25679400Y-83453880D01*
X25309876Y-83490275D01*
X24954552Y-83598061D01*
X24627083Y-83773097D01*
X24340055Y-84008655D01*
X24104497Y-84295683D01*
X23929461Y-84623153D01*
X23821675Y-84978477D01*
X23794400Y-85255404D01*
X23754400Y-85255404D01*
X23754400Y-85255403D01*
X23727125Y-84978476D01*
X23619339Y-84623152D01*
X23444303Y-84295683D01*
X23208745Y-84008655D01*
X22921717Y-83773097D01*
X22594247Y-83598061D01*
X22238923Y-83490275D01*
X21869400Y-83453880D01*
X21499876Y-83490275D01*
X21144552Y-83598061D01*
X20817083Y-83773097D01*
X20530055Y-84008655D01*
X20294497Y-84295683D01*
X20119461Y-84623153D01*
X20011675Y-84978477D01*
X19984400Y-85255404D01*
X19944400Y-85255404D01*
X19944400Y-85255403D01*
X19917125Y-84978476D01*
X19809339Y-84623152D01*
X19634303Y-84295683D01*
X19398745Y-84008655D01*
X19111717Y-83773097D01*
X18784247Y-83598061D01*
X18428923Y-83490275D01*
X18059400Y-83453880D01*
X17689876Y-83490275D01*
X17334552Y-83598061D01*
X17007083Y-83773097D01*
X16720055Y-84008655D01*
X16484497Y-84295683D01*
X16309461Y-84623153D01*
X16201675Y-84978477D01*
X16174400Y-85255404D01*
X16134400Y-85255404D01*
X16134400Y-85255403D01*
X16107125Y-84978476D01*
X15999339Y-84623152D01*
X15824303Y-84295683D01*
X15588745Y-84008655D01*
X15362735Y-83823174D01*
X16000909Y-83185000D01*
X37325698Y-83185000D01*
X37279000Y-83419767D01*
X37279000Y-83741833D01*
X37341832Y-84057712D01*
X37465082Y-84355263D01*
X37644013Y-84623052D01*
X37871748Y-84850787D01*
X38139537Y-85029718D01*
X38437088Y-85152968D01*
X38752967Y-85215800D01*
X39075033Y-85215800D01*
X39390912Y-85152968D01*
X39688463Y-85029718D01*
X39956252Y-84850787D01*
X40183987Y-84623052D01*
X40362918Y-84355263D01*
X40486168Y-84057712D01*
X40549000Y-83741833D01*
X40549000Y-83419767D01*
X43779000Y-83419767D01*
X43779000Y-83741833D01*
X43841832Y-84057712D01*
X43965082Y-84355263D01*
X44144013Y-84623052D01*
X44371748Y-84850787D01*
X44639537Y-85029718D01*
X44937088Y-85152968D01*
X45252967Y-85215800D01*
X45575033Y-85215800D01*
X45890912Y-85152968D01*
X46188463Y-85029718D01*
X46456252Y-84850787D01*
X46683987Y-84623052D01*
X46862918Y-84355263D01*
X46878601Y-84317400D01*
X49082599Y-84317400D01*
X49098282Y-84355263D01*
X49277213Y-84623052D01*
X49504948Y-84850787D01*
X49772737Y-85029718D01*
X50070288Y-85152968D01*
X50386167Y-85215800D01*
X50708233Y-85215800D01*
X51024112Y-85152968D01*
X51321663Y-85029718D01*
X51589452Y-84850787D01*
X51817187Y-84623052D01*
X51996118Y-84355263D01*
X52119368Y-84057712D01*
X52182200Y-83741833D01*
X52182200Y-83419767D01*
X55412200Y-83419767D01*
X55412200Y-83741833D01*
X55475032Y-84057712D01*
X55598282Y-84355263D01*
X55777213Y-84623052D01*
X56004948Y-84850787D01*
X56272737Y-85029718D01*
X56570288Y-85152968D01*
X56886167Y-85215800D01*
X57208233Y-85215800D01*
X57524112Y-85152968D01*
X57821663Y-85029718D01*
X58089452Y-84850787D01*
X58317187Y-84623052D01*
X58496118Y-84355263D01*
X58511801Y-84317400D01*
X60790926Y-84317400D01*
X60961213Y-84572252D01*
X61188948Y-84799987D01*
X61456737Y-84978918D01*
X61754288Y-85102168D01*
X62070167Y-85165000D01*
X62392233Y-85165000D01*
X62708112Y-85102168D01*
X63005663Y-84978918D01*
X63273452Y-84799987D01*
X63501187Y-84572252D01*
X63680118Y-84304463D01*
X63803368Y-84006912D01*
X63866200Y-83691033D01*
X63866200Y-83368967D01*
X67096200Y-83368967D01*
X67096200Y-83691033D01*
X67159032Y-84006912D01*
X67282282Y-84304463D01*
X67461213Y-84572252D01*
X67688948Y-84799987D01*
X67956737Y-84978918D01*
X68254288Y-85102168D01*
X68570167Y-85165000D01*
X68892233Y-85165000D01*
X69208112Y-85102168D01*
X69505663Y-84978918D01*
X69773452Y-84799987D01*
X70001187Y-84572252D01*
X70180118Y-84304463D01*
X70195801Y-84266600D01*
X72806199Y-84266600D01*
X72821882Y-84304463D01*
X73000813Y-84572252D01*
X73228548Y-84799987D01*
X73496337Y-84978918D01*
X73793888Y-85102168D01*
X74109767Y-85165000D01*
X74431833Y-85165000D01*
X74747712Y-85102168D01*
X75045263Y-84978918D01*
X75313052Y-84799987D01*
X75540787Y-84572252D01*
X75719718Y-84304463D01*
X75842968Y-84006912D01*
X75905800Y-83691033D01*
X75905800Y-83368967D01*
X79135800Y-83368967D01*
X79135800Y-83691033D01*
X79198632Y-84006912D01*
X79321882Y-84304463D01*
X79500813Y-84572252D01*
X79728548Y-84799987D01*
X79996337Y-84978918D01*
X80293888Y-85102168D01*
X80609767Y-85165000D01*
X80931833Y-85165000D01*
X81247712Y-85102168D01*
X81545263Y-84978918D01*
X81813052Y-84799987D01*
X82040787Y-84572252D01*
X82219718Y-84304463D01*
X82342968Y-84006912D01*
X82405800Y-83691033D01*
X82405800Y-83368967D01*
X82342968Y-83053088D01*
X82219718Y-82755537D01*
X82040787Y-82487748D01*
X81813052Y-82260013D01*
X81545263Y-82081082D01*
X81247712Y-81957832D01*
X80931833Y-81895000D01*
X80609767Y-81895000D01*
X80293888Y-81957832D01*
X79996337Y-82081082D01*
X79728548Y-82260013D01*
X79500813Y-82487748D01*
X79321882Y-82755537D01*
X79198632Y-83053088D01*
X79135800Y-83368967D01*
X75905800Y-83368967D01*
X75842968Y-83053088D01*
X75719718Y-82755537D01*
X75540787Y-82487748D01*
X75313052Y-82260013D01*
X75045263Y-82081082D01*
X74747712Y-81957832D01*
X74431833Y-81895000D01*
X74109767Y-81895000D01*
X73793888Y-81957832D01*
X73496337Y-82081082D01*
X73228548Y-82260013D01*
X73000813Y-82487748D01*
X72821882Y-82755537D01*
X72806199Y-82793400D01*
X70195801Y-82793400D01*
X70180118Y-82755537D01*
X70001187Y-82487748D01*
X69773452Y-82260013D01*
X69505663Y-82081082D01*
X69208112Y-81957832D01*
X68892233Y-81895000D01*
X68570167Y-81895000D01*
X68254288Y-81957832D01*
X67956737Y-82081082D01*
X67688948Y-82260013D01*
X67461213Y-82487748D01*
X67282282Y-82755537D01*
X67159032Y-83053088D01*
X67096200Y-83368967D01*
X63866200Y-83368967D01*
X63803368Y-83053088D01*
X63680118Y-82755537D01*
X63501187Y-82487748D01*
X63273452Y-82260013D01*
X63005663Y-82081082D01*
X62708112Y-81957832D01*
X62392233Y-81895000D01*
X62070167Y-81895000D01*
X61754288Y-81957832D01*
X61456737Y-82081082D01*
X61188948Y-82260013D01*
X60961213Y-82487748D01*
X60782282Y-82755537D01*
X60745556Y-82844200D01*
X58511801Y-82844200D01*
X58496118Y-82806337D01*
X58317187Y-82538548D01*
X58089452Y-82310813D01*
X57821663Y-82131882D01*
X57524112Y-82008632D01*
X57208233Y-81945800D01*
X56886167Y-81945800D01*
X56570288Y-82008632D01*
X56272737Y-82131882D01*
X56004948Y-82310813D01*
X55777213Y-82538548D01*
X55598282Y-82806337D01*
X55475032Y-83103888D01*
X55412200Y-83419767D01*
X52182200Y-83419767D01*
X52119368Y-83103888D01*
X51996118Y-82806337D01*
X51817187Y-82538548D01*
X51589452Y-82310813D01*
X51321663Y-82131882D01*
X51024112Y-82008632D01*
X50708233Y-81945800D01*
X50386167Y-81945800D01*
X50070288Y-82008632D01*
X49772737Y-82131882D01*
X49504948Y-82310813D01*
X49277213Y-82538548D01*
X49098282Y-82806337D01*
X49082599Y-82844200D01*
X46878601Y-82844200D01*
X46862918Y-82806337D01*
X46683987Y-82538548D01*
X46456252Y-82310813D01*
X46188463Y-82131882D01*
X45890912Y-82008632D01*
X45575033Y-81945800D01*
X45252967Y-81945800D01*
X44937088Y-82008632D01*
X44639537Y-82131882D01*
X44371748Y-82310813D01*
X44144013Y-82538548D01*
X43965082Y-82806337D01*
X43841832Y-83103888D01*
X43779000Y-83419767D01*
X40549000Y-83419767D01*
X40486168Y-83103888D01*
X40362918Y-82806337D01*
X40183987Y-82538548D01*
X39956252Y-82310813D01*
X39688463Y-82131882D01*
X39390912Y-82008632D01*
X39075033Y-81945800D01*
X38752967Y-81945800D01*
X38437088Y-82008632D01*
X38399225Y-82024316D01*
X38328046Y-81953137D01*
X38304975Y-81925025D01*
X38276863Y-81901954D01*
X37261800Y-80886891D01*
X37261800Y-78080800D01*
X37275928Y-78080800D01*
X37275928Y-80080800D01*
X37288188Y-80205282D01*
X37324498Y-80324980D01*
X37383463Y-80435294D01*
X37462815Y-80531985D01*
X37559506Y-80611337D01*
X37669820Y-80670302D01*
X37789518Y-80706612D01*
X37914000Y-80718872D01*
X39914000Y-80718872D01*
X40038482Y-80706612D01*
X40158180Y-80670302D01*
X40268494Y-80611337D01*
X40365185Y-80531985D01*
X40444537Y-80435294D01*
X40503502Y-80324980D01*
X40539812Y-80205282D01*
X40552072Y-80080800D01*
X40552072Y-78919767D01*
X43779000Y-78919767D01*
X43779000Y-79241833D01*
X43841832Y-79557712D01*
X43965082Y-79855263D01*
X44144013Y-80123052D01*
X44371748Y-80350787D01*
X44639537Y-80529718D01*
X44937088Y-80652968D01*
X45252967Y-80715800D01*
X45575033Y-80715800D01*
X45890912Y-80652968D01*
X46188463Y-80529718D01*
X46456252Y-80350787D01*
X46683987Y-80123052D01*
X46862918Y-79855263D01*
X46986168Y-79557712D01*
X47049000Y-79241833D01*
X47049000Y-78919767D01*
X46986168Y-78603888D01*
X46862918Y-78306337D01*
X46712219Y-78080800D01*
X48909128Y-78080800D01*
X48909128Y-80080800D01*
X48921388Y-80205282D01*
X48957698Y-80324980D01*
X49016663Y-80435294D01*
X49096015Y-80531985D01*
X49192706Y-80611337D01*
X49303020Y-80670302D01*
X49422718Y-80706612D01*
X49547200Y-80718872D01*
X51547200Y-80718872D01*
X51671682Y-80706612D01*
X51791380Y-80670302D01*
X51901694Y-80611337D01*
X51998385Y-80531985D01*
X52077737Y-80435294D01*
X52136702Y-80324980D01*
X52173012Y-80205282D01*
X52185272Y-80080800D01*
X52185272Y-78919767D01*
X55412200Y-78919767D01*
X55412200Y-79241833D01*
X55475032Y-79557712D01*
X55598282Y-79855263D01*
X55777213Y-80123052D01*
X56004948Y-80350787D01*
X56272737Y-80529718D01*
X56570288Y-80652968D01*
X56886167Y-80715800D01*
X57208233Y-80715800D01*
X57524112Y-80652968D01*
X57821663Y-80529718D01*
X58089452Y-80350787D01*
X58317187Y-80123052D01*
X58496118Y-79855263D01*
X58619368Y-79557712D01*
X58682200Y-79241833D01*
X58682200Y-78919767D01*
X58619368Y-78603888D01*
X58496118Y-78306337D01*
X58317187Y-78038548D01*
X58308639Y-78030000D01*
X60593128Y-78030000D01*
X60593128Y-80030000D01*
X60605388Y-80154482D01*
X60641698Y-80274180D01*
X60700663Y-80384494D01*
X60780015Y-80481185D01*
X60876706Y-80560537D01*
X60987020Y-80619502D01*
X61106718Y-80655812D01*
X61231200Y-80668072D01*
X63231200Y-80668072D01*
X63355682Y-80655812D01*
X63475380Y-80619502D01*
X63585694Y-80560537D01*
X63682385Y-80481185D01*
X63761737Y-80384494D01*
X63820702Y-80274180D01*
X63857012Y-80154482D01*
X63869272Y-80030000D01*
X63869272Y-78868967D01*
X67096200Y-78868967D01*
X67096200Y-79191033D01*
X67159032Y-79506912D01*
X67282282Y-79804463D01*
X67461213Y-80072252D01*
X67688948Y-80299987D01*
X67956737Y-80478918D01*
X68254288Y-80602168D01*
X68570167Y-80665000D01*
X68892233Y-80665000D01*
X69208112Y-80602168D01*
X69505663Y-80478918D01*
X69773452Y-80299987D01*
X70001187Y-80072252D01*
X70180118Y-79804463D01*
X70303368Y-79506912D01*
X70366200Y-79191033D01*
X70366200Y-78868967D01*
X70303368Y-78553088D01*
X70180118Y-78255537D01*
X70029419Y-78030000D01*
X72632728Y-78030000D01*
X72632728Y-80030000D01*
X72644988Y-80154482D01*
X72681298Y-80274180D01*
X72740263Y-80384494D01*
X72819615Y-80481185D01*
X72916306Y-80560537D01*
X73026620Y-80619502D01*
X73146318Y-80655812D01*
X73270800Y-80668072D01*
X75270800Y-80668072D01*
X75395282Y-80655812D01*
X75514980Y-80619502D01*
X75625294Y-80560537D01*
X75721985Y-80481185D01*
X75801337Y-80384494D01*
X75860302Y-80274180D01*
X75896612Y-80154482D01*
X75908872Y-80030000D01*
X75908872Y-78868967D01*
X79135800Y-78868967D01*
X79135800Y-79191033D01*
X79198632Y-79506912D01*
X79321882Y-79804463D01*
X79500813Y-80072252D01*
X79728548Y-80299987D01*
X79996337Y-80478918D01*
X80293888Y-80602168D01*
X80609767Y-80665000D01*
X80931833Y-80665000D01*
X81247712Y-80602168D01*
X81545263Y-80478918D01*
X81813052Y-80299987D01*
X82040787Y-80072252D01*
X82219718Y-79804463D01*
X82342968Y-79506912D01*
X82405800Y-79191033D01*
X82405800Y-78868967D01*
X82342968Y-78553088D01*
X82219718Y-78255537D01*
X82040787Y-77987748D01*
X81813052Y-77760013D01*
X81545263Y-77581082D01*
X81247712Y-77457832D01*
X80931833Y-77395000D01*
X80609767Y-77395000D01*
X80293888Y-77457832D01*
X79996337Y-77581082D01*
X79728548Y-77760013D01*
X79500813Y-77987748D01*
X79321882Y-78255537D01*
X79198632Y-78553088D01*
X79135800Y-78868967D01*
X75908872Y-78868967D01*
X75908872Y-78030000D01*
X75896612Y-77905518D01*
X75860302Y-77785820D01*
X75801337Y-77675506D01*
X75721985Y-77578815D01*
X75625294Y-77499463D01*
X75514980Y-77440498D01*
X75395282Y-77404188D01*
X75270800Y-77391928D01*
X73270800Y-77391928D01*
X73146318Y-77404188D01*
X73026620Y-77440498D01*
X72916306Y-77499463D01*
X72819615Y-77578815D01*
X72740263Y-77675506D01*
X72681298Y-77785820D01*
X72644988Y-77905518D01*
X72632728Y-78030000D01*
X70029419Y-78030000D01*
X70001187Y-77987748D01*
X69773452Y-77760013D01*
X69505663Y-77581082D01*
X69208112Y-77457832D01*
X68892233Y-77395000D01*
X68570167Y-77395000D01*
X68254288Y-77457832D01*
X67956737Y-77581082D01*
X67688948Y-77760013D01*
X67461213Y-77987748D01*
X67282282Y-78255537D01*
X67159032Y-78553088D01*
X67096200Y-78868967D01*
X63869272Y-78868967D01*
X63869272Y-78030000D01*
X63857012Y-77905518D01*
X63820702Y-77785820D01*
X63761737Y-77675506D01*
X63682385Y-77578815D01*
X63585694Y-77499463D01*
X63475380Y-77440498D01*
X63355682Y-77404188D01*
X63231200Y-77391928D01*
X61231200Y-77391928D01*
X61106718Y-77404188D01*
X60987020Y-77440498D01*
X60876706Y-77499463D01*
X60780015Y-77578815D01*
X60700663Y-77675506D01*
X60641698Y-77785820D01*
X60605388Y-77905518D01*
X60593128Y-78030000D01*
X58308639Y-78030000D01*
X58089452Y-77810813D01*
X57821663Y-77631882D01*
X57524112Y-77508632D01*
X57208233Y-77445800D01*
X56886167Y-77445800D01*
X56570288Y-77508632D01*
X56272737Y-77631882D01*
X56004948Y-77810813D01*
X55777213Y-78038548D01*
X55598282Y-78306337D01*
X55475032Y-78603888D01*
X55412200Y-78919767D01*
X52185272Y-78919767D01*
X52185272Y-78080800D01*
X52173012Y-77956318D01*
X52136702Y-77836620D01*
X52077737Y-77726306D01*
X51998385Y-77629615D01*
X51901694Y-77550263D01*
X51791380Y-77491298D01*
X51671682Y-77454988D01*
X51547200Y-77442728D01*
X49547200Y-77442728D01*
X49422718Y-77454988D01*
X49303020Y-77491298D01*
X49192706Y-77550263D01*
X49096015Y-77629615D01*
X49016663Y-77726306D01*
X48957698Y-77836620D01*
X48921388Y-77956318D01*
X48909128Y-78080800D01*
X46712219Y-78080800D01*
X46683987Y-78038548D01*
X46456252Y-77810813D01*
X46188463Y-77631882D01*
X45890912Y-77508632D01*
X45575033Y-77445800D01*
X45252967Y-77445800D01*
X44937088Y-77508632D01*
X44639537Y-77631882D01*
X44371748Y-77810813D01*
X44144013Y-78038548D01*
X43965082Y-78306337D01*
X43841832Y-78603888D01*
X43779000Y-78919767D01*
X40552072Y-78919767D01*
X40552072Y-78080800D01*
X40539812Y-77956318D01*
X40503502Y-77836620D01*
X40444537Y-77726306D01*
X40365185Y-77629615D01*
X40268494Y-77550263D01*
X40158180Y-77491298D01*
X40038482Y-77454988D01*
X39914000Y-77442728D01*
X37914000Y-77442728D01*
X37789518Y-77454988D01*
X37669820Y-77491298D01*
X37559506Y-77550263D01*
X37462815Y-77629615D01*
X37383463Y-77726306D01*
X37324498Y-77836620D01*
X37288188Y-77956318D01*
X37275928Y-78080800D01*
X37261800Y-78080800D01*
X37261800Y-73253909D01*
X38316210Y-72199500D01*
X38348715Y-72199500D01*
X38537643Y-72161920D01*
X38715610Y-72088204D01*
X38875775Y-71981185D01*
X39011985Y-71844975D01*
X39119004Y-71684810D01*
X39192720Y-71506843D01*
X39230300Y-71317915D01*
X39230300Y-71125285D01*
X39192720Y-70936357D01*
X39119004Y-70758390D01*
X39011985Y-70598225D01*
X38875775Y-70462015D01*
X38715610Y-70354996D01*
X38537643Y-70281280D01*
X38348715Y-70243700D01*
X38156085Y-70243700D01*
X37967157Y-70281280D01*
X37789190Y-70354996D01*
X37629025Y-70462015D01*
X37492815Y-70598225D01*
X37385796Y-70758390D01*
X37312080Y-70936357D01*
X37274500Y-71125285D01*
X37274500Y-71157790D01*
X36029932Y-72402359D01*
X36001826Y-72425425D01*
X35978760Y-72453531D01*
X35978758Y-72453533D01*
X35909776Y-72537588D01*
X35841378Y-72665553D01*
X35799259Y-72804402D01*
X35785036Y-72948800D01*
X35788601Y-72984993D01*
X35788600Y-81155817D01*
X35785036Y-81192000D01*
X35788600Y-81228183D01*
X35788600Y-81228185D01*
X35799258Y-81336398D01*
X35841378Y-81475248D01*
X35909776Y-81603212D01*
X35998892Y-81711800D01*
X15731975Y-81711800D01*
X15695799Y-81708237D01*
X15659623Y-81711800D01*
X15659614Y-81711800D01*
X15551401Y-81722458D01*
X15412551Y-81764578D01*
X15284587Y-81832976D01*
X15172425Y-81925025D01*
X15149354Y-81953137D01*
X13754132Y-83348359D01*
X13726026Y-83371425D01*
X13702960Y-83399531D01*
X13702958Y-83399533D01*
X13633976Y-83483588D01*
X13630402Y-83490275D01*
X13582124Y-83580597D01*
X13524552Y-83598061D01*
X13197083Y-83773097D01*
X12910055Y-84008655D01*
X12674497Y-84295683D01*
X12499461Y-84623153D01*
X12391675Y-84978477D01*
X12364400Y-85255404D01*
X9322461Y-85255404D01*
X9378118Y-85148560D01*
X9307942Y-84784136D01*
X9168019Y-84440405D01*
X8963726Y-84130576D01*
X8702914Y-83866556D01*
X8395606Y-83658491D01*
X8053611Y-83514377D01*
X7912645Y-83484905D01*
X7620000Y-83601028D01*
X7366000Y-83601028D01*
X7073355Y-83484905D01*
X6932389Y-83514377D01*
X6590394Y-83658491D01*
X6283086Y-83866556D01*
X6022274Y-84130576D01*
X5817981Y-84440405D01*
X5678058Y-84784136D01*
X5607882Y-85148560D01*
X5559979Y-85148560D01*
X5540725Y-84953076D01*
X5432939Y-84597752D01*
X5257903Y-84270283D01*
X5022345Y-83983255D01*
X4735317Y-83747697D01*
X4407847Y-83572661D01*
X4052523Y-83464875D01*
X3683000Y-83428480D01*
X3313476Y-83464875D01*
X2958152Y-83572661D01*
X2630683Y-83747697D01*
X2343655Y-83983255D01*
X2108097Y-84270283D01*
X1933061Y-84597753D01*
X1825275Y-84953077D01*
X1798000Y-85230004D01*
X660000Y-85230004D01*
X660000Y-63810085D01*
X13093700Y-63810085D01*
X13093700Y-64002715D01*
X13131280Y-64191643D01*
X13204996Y-64369610D01*
X13312015Y-64529775D01*
X13335001Y-64552761D01*
X13335000Y-69711640D01*
X13312015Y-69734625D01*
X13204996Y-69894790D01*
X13131280Y-70072757D01*
X13093700Y-70261685D01*
X13093700Y-70454315D01*
X13131280Y-70643243D01*
X13204996Y-70821210D01*
X13312015Y-70981375D01*
X13448225Y-71117585D01*
X13608390Y-71224604D01*
X13786357Y-71298320D01*
X13975285Y-71335900D01*
X14167915Y-71335900D01*
X14356843Y-71298320D01*
X14534810Y-71224604D01*
X14694975Y-71117585D01*
X14831185Y-70981375D01*
X14938204Y-70821210D01*
X15011920Y-70643243D01*
X15049500Y-70454315D01*
X15049500Y-70261685D01*
X15011920Y-70072757D01*
X14938204Y-69894790D01*
X14831185Y-69734625D01*
X14808200Y-69711640D01*
X14808200Y-64552760D01*
X14831185Y-64529775D01*
X14938204Y-64369610D01*
X15011920Y-64191643D01*
X15049500Y-64002715D01*
X15049500Y-63810085D01*
X15039396Y-63759285D01*
X15938500Y-63759285D01*
X15938500Y-63951915D01*
X15976080Y-64140843D01*
X16049796Y-64318810D01*
X16156815Y-64478975D01*
X16230601Y-64552761D01*
X16230600Y-69762440D01*
X16207615Y-69785425D01*
X16100596Y-69945590D01*
X16026880Y-70123557D01*
X15989300Y-70312485D01*
X15989300Y-70505115D01*
X16026880Y-70694043D01*
X16100596Y-70872010D01*
X16207615Y-71032175D01*
X16343825Y-71168385D01*
X16503990Y-71275404D01*
X16681957Y-71349120D01*
X16870885Y-71386700D01*
X17063515Y-71386700D01*
X17252443Y-71349120D01*
X17430410Y-71275404D01*
X17590575Y-71168385D01*
X17726785Y-71032175D01*
X17833804Y-70872010D01*
X17907520Y-70694043D01*
X17945100Y-70505115D01*
X17945100Y-70312485D01*
X17907520Y-70123557D01*
X17833804Y-69945590D01*
X17726785Y-69785425D01*
X17703800Y-69762440D01*
X17703800Y-64437347D01*
X17783004Y-64318810D01*
X17856720Y-64140843D01*
X17894300Y-63951915D01*
X17894300Y-63810085D01*
X18681700Y-63810085D01*
X18681700Y-64002715D01*
X18719280Y-64191643D01*
X18792996Y-64369610D01*
X18900015Y-64529775D01*
X19036225Y-64665985D01*
X19196390Y-64773004D01*
X19374357Y-64846720D01*
X19431001Y-64857987D01*
X19431000Y-69711640D01*
X19408015Y-69734625D01*
X19300996Y-69894790D01*
X19227280Y-70072757D01*
X19189700Y-70261685D01*
X19189700Y-70454315D01*
X19227280Y-70643243D01*
X19300996Y-70821210D01*
X19408015Y-70981375D01*
X19544225Y-71117585D01*
X19704390Y-71224604D01*
X19882357Y-71298320D01*
X20071285Y-71335900D01*
X20263915Y-71335900D01*
X20452843Y-71298320D01*
X20630810Y-71224604D01*
X20790975Y-71117585D01*
X20927185Y-70981375D01*
X21034204Y-70821210D01*
X21107920Y-70643243D01*
X21145500Y-70454315D01*
X21145500Y-70261685D01*
X21107920Y-70072757D01*
X21034204Y-69894790D01*
X20927185Y-69734625D01*
X20904200Y-69711640D01*
X20904200Y-64450575D01*
X20907763Y-64414399D01*
X20904200Y-64378223D01*
X20904200Y-64378214D01*
X20893542Y-64270001D01*
X20851422Y-64131151D01*
X20783024Y-64003187D01*
X20690975Y-63891025D01*
X20662863Y-63867954D01*
X20637500Y-63842591D01*
X20637500Y-63810085D01*
X20599920Y-63621157D01*
X20526204Y-63443190D01*
X20419185Y-63283025D01*
X20282975Y-63146815D01*
X20122810Y-63039796D01*
X19944843Y-62966080D01*
X19755915Y-62928500D01*
X19563285Y-62928500D01*
X19374357Y-62966080D01*
X19196390Y-63039796D01*
X19036225Y-63146815D01*
X18900015Y-63283025D01*
X18792996Y-63443190D01*
X18719280Y-63621157D01*
X18681700Y-63810085D01*
X17894300Y-63810085D01*
X17894300Y-63759285D01*
X17856720Y-63570357D01*
X17783004Y-63392390D01*
X17675985Y-63232225D01*
X17539775Y-63096015D01*
X17379610Y-62988996D01*
X17201643Y-62915280D01*
X17012715Y-62877700D01*
X16820085Y-62877700D01*
X16631157Y-62915280D01*
X16453190Y-62988996D01*
X16293025Y-63096015D01*
X16156815Y-63232225D01*
X16049796Y-63392390D01*
X15976080Y-63570357D01*
X15938500Y-63759285D01*
X15039396Y-63759285D01*
X15011920Y-63621157D01*
X14938204Y-63443190D01*
X14831185Y-63283025D01*
X14694975Y-63146815D01*
X14534810Y-63039796D01*
X14356843Y-62966080D01*
X14167915Y-62928500D01*
X13975285Y-62928500D01*
X13786357Y-62966080D01*
X13608390Y-63039796D01*
X13448225Y-63146815D01*
X13312015Y-63283025D01*
X13204996Y-63443190D01*
X13131280Y-63621157D01*
X13093700Y-63810085D01*
X660000Y-63810085D01*
X660000Y-62822672D01*
X80315000Y-62822672D01*
X80315000Y-63262928D01*
X80400890Y-63694725D01*
X80569369Y-64101469D01*
X80813962Y-64467529D01*
X81125271Y-64778838D01*
X81491331Y-65023431D01*
X81898075Y-65191910D01*
X82329872Y-65277800D01*
X82770128Y-65277800D01*
X83201925Y-65191910D01*
X83608669Y-65023431D01*
X83974729Y-64778838D01*
X84286038Y-64467529D01*
X84530631Y-64101469D01*
X84699110Y-63694725D01*
X84785000Y-63262928D01*
X84785000Y-62822672D01*
X84699110Y-62390875D01*
X84530631Y-61984131D01*
X84286038Y-61618071D01*
X83974729Y-61306762D01*
X83608669Y-61062169D01*
X83201925Y-60893690D01*
X82770128Y-60807800D01*
X82329872Y-60807800D01*
X81898075Y-60893690D01*
X81491331Y-61062169D01*
X81125271Y-61306762D01*
X80813962Y-61618071D01*
X80569369Y-61984131D01*
X80400890Y-62390875D01*
X80315000Y-62822672D01*
X660000Y-62822672D01*
X660000Y-57996672D01*
X4115000Y-57996672D01*
X4115000Y-58436928D01*
X4200890Y-58868725D01*
X4369369Y-59275469D01*
X4613962Y-59641529D01*
X4925271Y-59952838D01*
X5291331Y-60197431D01*
X5698075Y-60365910D01*
X6129872Y-60451800D01*
X6570128Y-60451800D01*
X7001925Y-60365910D01*
X7408669Y-60197431D01*
X7774729Y-59952838D01*
X8086038Y-59641529D01*
X8330631Y-59275469D01*
X8499110Y-58868725D01*
X8585000Y-58436928D01*
X8585000Y-57996672D01*
X8499110Y-57564875D01*
X8330631Y-57158131D01*
X8086038Y-56792071D01*
X7774729Y-56480762D01*
X7408669Y-56236169D01*
X7001925Y-56067690D01*
X6570128Y-55981800D01*
X6129872Y-55981800D01*
X5698075Y-56067690D01*
X5291331Y-56236169D01*
X4925271Y-56480762D01*
X4613962Y-56792071D01*
X4369369Y-57158131D01*
X4200890Y-57564875D01*
X4115000Y-57996672D01*
X660000Y-57996672D01*
X660000Y-50165000D01*
X5924057Y-50165000D01*
X5951764Y-50446309D01*
X6033818Y-50716808D01*
X6167068Y-50966101D01*
X6346392Y-51184608D01*
X6564899Y-51363932D01*
X6814192Y-51497182D01*
X7084691Y-51579236D01*
X7295508Y-51600000D01*
X7436492Y-51600000D01*
X7647309Y-51579236D01*
X7917808Y-51497182D01*
X8167101Y-51363932D01*
X8385608Y-51184608D01*
X8564932Y-50966101D01*
X8636000Y-50833142D01*
X8707068Y-50966101D01*
X8886392Y-51184608D01*
X9104899Y-51363932D01*
X9354192Y-51497182D01*
X9624691Y-51579236D01*
X9835508Y-51600000D01*
X9976492Y-51600000D01*
X10187309Y-51579236D01*
X10457808Y-51497182D01*
X10707101Y-51363932D01*
X10925608Y-51184608D01*
X11104932Y-50966101D01*
X11176000Y-50833142D01*
X11247068Y-50966101D01*
X11426392Y-51184608D01*
X11644899Y-51363932D01*
X11894192Y-51497182D01*
X12164691Y-51579236D01*
X12375508Y-51600000D01*
X12516492Y-51600000D01*
X12727309Y-51579236D01*
X12997808Y-51497182D01*
X13247101Y-51363932D01*
X13465608Y-51184608D01*
X13644932Y-50966101D01*
X13716000Y-50833142D01*
X13787068Y-50966101D01*
X13966392Y-51184608D01*
X14184899Y-51363932D01*
X14434192Y-51497182D01*
X14704691Y-51579236D01*
X14915508Y-51600000D01*
X15056492Y-51600000D01*
X15267309Y-51579236D01*
X15537808Y-51497182D01*
X15787101Y-51363932D01*
X16005608Y-51184608D01*
X16184932Y-50966101D01*
X16256000Y-50833142D01*
X16327068Y-50966101D01*
X16506392Y-51184608D01*
X16724899Y-51363932D01*
X16974192Y-51497182D01*
X17244691Y-51579236D01*
X17455508Y-51600000D01*
X17596492Y-51600000D01*
X17807309Y-51579236D01*
X18077808Y-51497182D01*
X18327101Y-51363932D01*
X18545608Y-51184608D01*
X18724932Y-50966101D01*
X18796000Y-50833142D01*
X18867068Y-50966101D01*
X19046392Y-51184608D01*
X19264899Y-51363932D01*
X19514192Y-51497182D01*
X19784691Y-51579236D01*
X19995508Y-51600000D01*
X20136492Y-51600000D01*
X20347309Y-51579236D01*
X20617808Y-51497182D01*
X20867101Y-51363932D01*
X21085608Y-51184608D01*
X21264932Y-50966101D01*
X21336000Y-50833142D01*
X21407068Y-50966101D01*
X21586392Y-51184608D01*
X21804899Y-51363932D01*
X22054192Y-51497182D01*
X22324691Y-51579236D01*
X22535508Y-51600000D01*
X22676492Y-51600000D01*
X22887309Y-51579236D01*
X23157808Y-51497182D01*
X23407101Y-51363932D01*
X23625608Y-51184608D01*
X23804932Y-50966101D01*
X23876000Y-50833142D01*
X23947068Y-50966101D01*
X24126392Y-51184608D01*
X24344899Y-51363932D01*
X24594192Y-51497182D01*
X24864691Y-51579236D01*
X25075508Y-51600000D01*
X25216492Y-51600000D01*
X25427309Y-51579236D01*
X25697808Y-51497182D01*
X25947101Y-51363932D01*
X26165608Y-51184608D01*
X26344932Y-50966101D01*
X26416000Y-50833142D01*
X26487068Y-50966101D01*
X26666392Y-51184608D01*
X26884899Y-51363932D01*
X27134192Y-51497182D01*
X27404691Y-51579236D01*
X27615508Y-51600000D01*
X27756492Y-51600000D01*
X27967309Y-51579236D01*
X28237808Y-51497182D01*
X28487101Y-51363932D01*
X28705608Y-51184608D01*
X28884932Y-50966101D01*
X28956000Y-50833142D01*
X29027068Y-50966101D01*
X29206392Y-51184608D01*
X29424899Y-51363932D01*
X29674192Y-51497182D01*
X29944691Y-51579236D01*
X30155508Y-51600000D01*
X30296492Y-51600000D01*
X30507309Y-51579236D01*
X30777808Y-51497182D01*
X31027101Y-51363932D01*
X31245608Y-51184608D01*
X31424932Y-50966101D01*
X31496000Y-50833142D01*
X31567068Y-50966101D01*
X31746392Y-51184608D01*
X31964899Y-51363932D01*
X32214192Y-51497182D01*
X32484691Y-51579236D01*
X32695508Y-51600000D01*
X32836492Y-51600000D01*
X33047309Y-51579236D01*
X33317808Y-51497182D01*
X33567101Y-51363932D01*
X33785608Y-51184608D01*
X33964932Y-50966101D01*
X34036000Y-50833142D01*
X34107068Y-50966101D01*
X34286392Y-51184608D01*
X34504899Y-51363932D01*
X34754192Y-51497182D01*
X35024691Y-51579236D01*
X35235508Y-51600000D01*
X35376492Y-51600000D01*
X35587309Y-51579236D01*
X35857808Y-51497182D01*
X36107101Y-51363932D01*
X36325608Y-51184608D01*
X36504932Y-50966101D01*
X36576000Y-50833142D01*
X36647068Y-50966101D01*
X36826392Y-51184608D01*
X37044899Y-51363932D01*
X37294192Y-51497182D01*
X37564691Y-51579236D01*
X37775508Y-51600000D01*
X37916492Y-51600000D01*
X38127309Y-51579236D01*
X38397808Y-51497182D01*
X38647101Y-51363932D01*
X38865608Y-51184608D01*
X39044932Y-50966101D01*
X39118579Y-50828318D01*
X39233615Y-51020131D01*
X39422586Y-51228519D01*
X39648580Y-51396037D01*
X39902913Y-51516246D01*
X40036961Y-51556904D01*
X40259000Y-51434915D01*
X40259000Y-50292000D01*
X40239000Y-50292000D01*
X40239000Y-50038000D01*
X40259000Y-50038000D01*
X40259000Y-48895085D01*
X40513000Y-48895085D01*
X40513000Y-50038000D01*
X40533000Y-50038000D01*
X40533000Y-50292000D01*
X40513000Y-50292000D01*
X40513000Y-51434915D01*
X40735039Y-51556904D01*
X40869087Y-51516246D01*
X41123420Y-51396037D01*
X41349414Y-51228519D01*
X41538385Y-51020131D01*
X41653421Y-50828318D01*
X41727068Y-50966101D01*
X41906392Y-51184608D01*
X42124899Y-51363932D01*
X42374192Y-51497182D01*
X42644691Y-51579236D01*
X42855508Y-51600000D01*
X42996492Y-51600000D01*
X43207309Y-51579236D01*
X43477808Y-51497182D01*
X43727101Y-51363932D01*
X43945608Y-51184608D01*
X44124932Y-50966101D01*
X44258182Y-50716808D01*
X44340236Y-50446309D01*
X44367943Y-50165000D01*
X44340236Y-49883691D01*
X44258182Y-49613192D01*
X44124932Y-49363899D01*
X43945608Y-49145392D01*
X43727101Y-48966068D01*
X43477808Y-48832818D01*
X43207309Y-48750764D01*
X42996492Y-48730000D01*
X42855508Y-48730000D01*
X42644691Y-48750764D01*
X42374192Y-48832818D01*
X42124899Y-48966068D01*
X41906392Y-49145392D01*
X41727068Y-49363899D01*
X41653421Y-49501682D01*
X41538385Y-49309869D01*
X41349414Y-49101481D01*
X41123420Y-48933963D01*
X40869087Y-48813754D01*
X40735039Y-48773096D01*
X40513000Y-48895085D01*
X40259000Y-48895085D01*
X40036961Y-48773096D01*
X39902913Y-48813754D01*
X39648580Y-48933963D01*
X39422586Y-49101481D01*
X39233615Y-49309869D01*
X39118579Y-49501682D01*
X39044932Y-49363899D01*
X38865608Y-49145392D01*
X38647101Y-48966068D01*
X38397808Y-48832818D01*
X38127309Y-48750764D01*
X37916492Y-48730000D01*
X37775508Y-48730000D01*
X37564691Y-48750764D01*
X37294192Y-48832818D01*
X37044899Y-48966068D01*
X36826392Y-49145392D01*
X36647068Y-49363899D01*
X36576000Y-49496858D01*
X36504932Y-49363899D01*
X36325608Y-49145392D01*
X36107101Y-48966068D01*
X35857808Y-48832818D01*
X35587309Y-48750764D01*
X35376492Y-48730000D01*
X35235508Y-48730000D01*
X35024691Y-48750764D01*
X34754192Y-48832818D01*
X34504899Y-48966068D01*
X34286392Y-49145392D01*
X34107068Y-49363899D01*
X34036000Y-49496858D01*
X33964932Y-49363899D01*
X33785608Y-49145392D01*
X33567101Y-48966068D01*
X33317808Y-48832818D01*
X33047309Y-48750764D01*
X32836492Y-48730000D01*
X32695508Y-48730000D01*
X32484691Y-48750764D01*
X32214192Y-48832818D01*
X31964899Y-48966068D01*
X31746392Y-49145392D01*
X31567068Y-49363899D01*
X31496000Y-49496858D01*
X31424932Y-49363899D01*
X31245608Y-49145392D01*
X31027101Y-48966068D01*
X30777808Y-48832818D01*
X30507309Y-48750764D01*
X30296492Y-48730000D01*
X30155508Y-48730000D01*
X29944691Y-48750764D01*
X29674192Y-48832818D01*
X29424899Y-48966068D01*
X29206392Y-49145392D01*
X29027068Y-49363899D01*
X28956000Y-49496858D01*
X28884932Y-49363899D01*
X28705608Y-49145392D01*
X28487101Y-48966068D01*
X28237808Y-48832818D01*
X27967309Y-48750764D01*
X27756492Y-48730000D01*
X27615508Y-48730000D01*
X27404691Y-48750764D01*
X27134192Y-48832818D01*
X26884899Y-48966068D01*
X26666392Y-49145392D01*
X26487068Y-49363899D01*
X26416000Y-49496858D01*
X26344932Y-49363899D01*
X26165608Y-49145392D01*
X25947101Y-48966068D01*
X25697808Y-48832818D01*
X25427309Y-48750764D01*
X25216492Y-48730000D01*
X25075508Y-48730000D01*
X24864691Y-48750764D01*
X24594192Y-48832818D01*
X24344899Y-48966068D01*
X24126392Y-49145392D01*
X23947068Y-49363899D01*
X23876000Y-49496858D01*
X23804932Y-49363899D01*
X23625608Y-49145392D01*
X23407101Y-48966068D01*
X23157808Y-48832818D01*
X22887309Y-48750764D01*
X22676492Y-48730000D01*
X22535508Y-48730000D01*
X22324691Y-48750764D01*
X22054192Y-48832818D01*
X21804899Y-48966068D01*
X21586392Y-49145392D01*
X21407068Y-49363899D01*
X21336000Y-49496858D01*
X21264932Y-49363899D01*
X21085608Y-49145392D01*
X20867101Y-48966068D01*
X20617808Y-48832818D01*
X20347309Y-48750764D01*
X20136492Y-48730000D01*
X19995508Y-48730000D01*
X19784691Y-48750764D01*
X19514192Y-48832818D01*
X19264899Y-48966068D01*
X19046392Y-49145392D01*
X18867068Y-49363899D01*
X18796000Y-49496858D01*
X18724932Y-49363899D01*
X18545608Y-49145392D01*
X18327101Y-48966068D01*
X18077808Y-48832818D01*
X17807309Y-48750764D01*
X17596492Y-48730000D01*
X17455508Y-48730000D01*
X17244691Y-48750764D01*
X16974192Y-48832818D01*
X16724899Y-48966068D01*
X16506392Y-49145392D01*
X16327068Y-49363899D01*
X16256000Y-49496858D01*
X16184932Y-49363899D01*
X16005608Y-49145392D01*
X15787101Y-48966068D01*
X15537808Y-48832818D01*
X15267309Y-48750764D01*
X15056492Y-48730000D01*
X14915508Y-48730000D01*
X14704691Y-48750764D01*
X14434192Y-48832818D01*
X14184899Y-48966068D01*
X13966392Y-49145392D01*
X13787068Y-49363899D01*
X13716000Y-49496858D01*
X13644932Y-49363899D01*
X13465608Y-49145392D01*
X13247101Y-48966068D01*
X12997808Y-48832818D01*
X12727309Y-48750764D01*
X12516492Y-48730000D01*
X12375508Y-48730000D01*
X12164691Y-48750764D01*
X11894192Y-48832818D01*
X11644899Y-48966068D01*
X11426392Y-49145392D01*
X11247068Y-49363899D01*
X11176000Y-49496858D01*
X11104932Y-49363899D01*
X10925608Y-49145392D01*
X10707101Y-48966068D01*
X10457808Y-48832818D01*
X10187309Y-48750764D01*
X9976492Y-48730000D01*
X9835508Y-48730000D01*
X9624691Y-48750764D01*
X9354192Y-48832818D01*
X9104899Y-48966068D01*
X8886392Y-49145392D01*
X8707068Y-49363899D01*
X8636000Y-49496858D01*
X8564932Y-49363899D01*
X8385608Y-49145392D01*
X8167101Y-48966068D01*
X7917808Y-48832818D01*
X7647309Y-48750764D01*
X7436492Y-48730000D01*
X7295508Y-48730000D01*
X7084691Y-48750764D01*
X6814192Y-48832818D01*
X6564899Y-48966068D01*
X6346392Y-49145392D01*
X6167068Y-49363899D01*
X6033818Y-49613192D01*
X5951764Y-49883691D01*
X5924057Y-50165000D01*
X660000Y-50165000D01*
X660000Y-34925000D01*
X5924057Y-34925000D01*
X5951764Y-35206309D01*
X6033818Y-35476808D01*
X6167068Y-35726101D01*
X6346392Y-35944608D01*
X6564899Y-36123932D01*
X6814192Y-36257182D01*
X7084691Y-36339236D01*
X7295508Y-36360000D01*
X7436492Y-36360000D01*
X7647309Y-36339236D01*
X7917808Y-36257182D01*
X8167101Y-36123932D01*
X8385608Y-35944608D01*
X8564932Y-35726101D01*
X8636000Y-35593142D01*
X8707068Y-35726101D01*
X8886392Y-35944608D01*
X9104899Y-36123932D01*
X9354192Y-36257182D01*
X9624691Y-36339236D01*
X9835508Y-36360000D01*
X9976492Y-36360000D01*
X10187309Y-36339236D01*
X10457808Y-36257182D01*
X10707101Y-36123932D01*
X10925608Y-35944608D01*
X11104932Y-35726101D01*
X11176000Y-35593142D01*
X11247068Y-35726101D01*
X11426392Y-35944608D01*
X11644899Y-36123932D01*
X11894192Y-36257182D01*
X12164691Y-36339236D01*
X12375508Y-36360000D01*
X12516492Y-36360000D01*
X12727309Y-36339236D01*
X12797297Y-36318006D01*
X19646554Y-43167263D01*
X19669625Y-43195375D01*
X19781787Y-43287424D01*
X19909751Y-43355822D01*
X20048601Y-43397942D01*
X20156814Y-43408600D01*
X20156823Y-43408600D01*
X20192999Y-43412163D01*
X20229175Y-43408600D01*
X68898840Y-43408600D01*
X68972625Y-43482385D01*
X69132790Y-43589404D01*
X69310757Y-43663120D01*
X69499685Y-43700700D01*
X69692315Y-43700700D01*
X69881243Y-43663120D01*
X70059210Y-43589404D01*
X70219375Y-43482385D01*
X70355585Y-43346175D01*
X70462604Y-43186010D01*
X70536320Y-43008043D01*
X70573900Y-42819115D01*
X70573900Y-42626485D01*
X70536320Y-42437557D01*
X70462604Y-42259590D01*
X70355585Y-42099425D01*
X70219375Y-41963215D01*
X70059210Y-41856196D01*
X69881243Y-41782480D01*
X69692315Y-41744900D01*
X69499685Y-41744900D01*
X69310757Y-41782480D01*
X69132790Y-41856196D01*
X69014253Y-41935400D01*
X68631109Y-41935400D01*
X70371010Y-40195500D01*
X70403515Y-40195500D01*
X70592443Y-40157920D01*
X70770410Y-40084204D01*
X70930575Y-39977185D01*
X71066785Y-39840975D01*
X71173804Y-39680810D01*
X71247520Y-39502843D01*
X71285100Y-39313915D01*
X71285100Y-39172085D01*
X72478900Y-39172085D01*
X72478900Y-39364715D01*
X72516480Y-39553643D01*
X72590196Y-39731610D01*
X72697215Y-39891775D01*
X72833425Y-40027985D01*
X72993590Y-40135004D01*
X73171557Y-40208720D01*
X73360485Y-40246300D01*
X73553115Y-40246300D01*
X73742043Y-40208720D01*
X73920010Y-40135004D01*
X74080175Y-40027985D01*
X74216385Y-39891775D01*
X74323404Y-39731610D01*
X74397120Y-39553643D01*
X74434700Y-39364715D01*
X74434700Y-39332209D01*
X79184473Y-34582436D01*
X79212574Y-34559375D01*
X79235637Y-34531273D01*
X79235642Y-34531268D01*
X79304623Y-34447214D01*
X79304624Y-34447213D01*
X79373022Y-34319249D01*
X79415142Y-34180399D01*
X79425800Y-34072186D01*
X79425800Y-34072177D01*
X79429363Y-34036001D01*
X79425800Y-33999825D01*
X79425800Y-22947560D01*
X79448785Y-22924575D01*
X79555804Y-22764410D01*
X79629520Y-22586443D01*
X79667100Y-22397515D01*
X79667100Y-22204885D01*
X79629520Y-22015957D01*
X79555804Y-21837990D01*
X79448785Y-21677825D01*
X79312575Y-21541615D01*
X79207599Y-21471472D01*
X80315000Y-21471472D01*
X80315000Y-21911728D01*
X80400890Y-22343525D01*
X80569369Y-22750269D01*
X80813962Y-23116329D01*
X81125271Y-23427638D01*
X81491331Y-23672231D01*
X81898075Y-23840710D01*
X82329872Y-23926600D01*
X82770128Y-23926600D01*
X83201925Y-23840710D01*
X83608669Y-23672231D01*
X83974729Y-23427638D01*
X84286038Y-23116329D01*
X84530631Y-22750269D01*
X84699110Y-22343525D01*
X84785000Y-21911728D01*
X84785000Y-21471472D01*
X84699110Y-21039675D01*
X84530631Y-20632931D01*
X84286038Y-20266871D01*
X83974729Y-19955562D01*
X83608669Y-19710969D01*
X83201925Y-19542490D01*
X82770128Y-19456600D01*
X82329872Y-19456600D01*
X81898075Y-19542490D01*
X81491331Y-19710969D01*
X81125271Y-19955562D01*
X80813962Y-20266871D01*
X80569369Y-20632931D01*
X80400890Y-21039675D01*
X80315000Y-21471472D01*
X79207599Y-21471472D01*
X79152410Y-21434596D01*
X78974443Y-21360880D01*
X78785515Y-21323300D01*
X78592885Y-21323300D01*
X78403957Y-21360880D01*
X78225990Y-21434596D01*
X78065825Y-21541615D01*
X77929615Y-21677825D01*
X77822596Y-21837990D01*
X77748880Y-22015957D01*
X77711300Y-22204885D01*
X77711300Y-22397515D01*
X77748880Y-22586443D01*
X77822596Y-22764410D01*
X77929615Y-22924575D01*
X77952601Y-22947561D01*
X77952600Y-33730890D01*
X73392991Y-38290500D01*
X73360485Y-38290500D01*
X73171557Y-38328080D01*
X72993590Y-38401796D01*
X72833425Y-38508815D01*
X72697215Y-38645025D01*
X72590196Y-38805190D01*
X72516480Y-38983157D01*
X72478900Y-39172085D01*
X71285100Y-39172085D01*
X71285100Y-39121285D01*
X71247520Y-38932357D01*
X71173804Y-38754390D01*
X71066785Y-38594225D01*
X70930575Y-38458015D01*
X70770410Y-38350996D01*
X70592443Y-38277280D01*
X70403515Y-38239700D01*
X70210885Y-38239700D01*
X70021957Y-38277280D01*
X69843990Y-38350996D01*
X69683825Y-38458015D01*
X69547615Y-38594225D01*
X69440596Y-38754390D01*
X69366880Y-38932357D01*
X69329300Y-39121285D01*
X69329300Y-39153790D01*
X67614491Y-40868600D01*
X21971309Y-40868600D01*
X20477994Y-39375285D01*
X51549300Y-39375285D01*
X51549300Y-39567915D01*
X51586880Y-39756843D01*
X51660596Y-39934810D01*
X51767615Y-40094975D01*
X51903825Y-40231185D01*
X52063990Y-40338204D01*
X52241957Y-40411920D01*
X52430885Y-40449500D01*
X52623515Y-40449500D01*
X52812443Y-40411920D01*
X52990410Y-40338204D01*
X53150575Y-40231185D01*
X53286785Y-40094975D01*
X53393804Y-39934810D01*
X53467520Y-39756843D01*
X53505100Y-39567915D01*
X53505100Y-39535409D01*
X62402824Y-30637685D01*
X70497700Y-30637685D01*
X70497700Y-30830315D01*
X70535280Y-31019243D01*
X70608996Y-31197210D01*
X70716015Y-31357375D01*
X70852225Y-31493585D01*
X71012390Y-31600604D01*
X71190357Y-31674320D01*
X71379285Y-31711900D01*
X71571915Y-31711900D01*
X71760843Y-31674320D01*
X71938810Y-31600604D01*
X72098975Y-31493585D01*
X72235185Y-31357375D01*
X72342204Y-31197210D01*
X72415920Y-31019243D01*
X72453500Y-30830315D01*
X72453500Y-30797809D01*
X73393268Y-29858041D01*
X73421374Y-29834975D01*
X73513424Y-29722813D01*
X73581822Y-29594849D01*
X73623942Y-29455999D01*
X73634600Y-29347786D01*
X73634600Y-29347777D01*
X73638163Y-29311601D01*
X73634600Y-29275425D01*
X73634600Y-19747160D01*
X73657585Y-19724175D01*
X73764604Y-19564010D01*
X73838320Y-19386043D01*
X73875900Y-19197115D01*
X73875900Y-19004485D01*
X73838320Y-18815557D01*
X73764604Y-18637590D01*
X73657585Y-18477425D01*
X73521375Y-18341215D01*
X73361210Y-18234196D01*
X73183243Y-18160480D01*
X72994315Y-18122900D01*
X72801685Y-18122900D01*
X72612757Y-18160480D01*
X72434790Y-18234196D01*
X72274625Y-18341215D01*
X72138415Y-18477425D01*
X72031396Y-18637590D01*
X71957680Y-18815557D01*
X71920100Y-19004485D01*
X71920100Y-19197115D01*
X71957680Y-19386043D01*
X72031396Y-19564010D01*
X72138415Y-19724175D01*
X72161401Y-19747161D01*
X72161400Y-29006491D01*
X71411791Y-29756100D01*
X71379285Y-29756100D01*
X71190357Y-29793680D01*
X71012390Y-29867396D01*
X70852225Y-29974415D01*
X70716015Y-30110625D01*
X70608996Y-30270790D01*
X70535280Y-30448757D01*
X70497700Y-30637685D01*
X62402824Y-30637685D01*
X62928474Y-30112036D01*
X62956574Y-30088975D01*
X62979637Y-30060873D01*
X62979642Y-30060868D01*
X63048624Y-29976813D01*
X63049906Y-29974415D01*
X63117022Y-29848849D01*
X63159142Y-29709999D01*
X63169800Y-29601786D01*
X63169800Y-29601785D01*
X63173364Y-29565600D01*
X63169800Y-29529414D01*
X63169800Y-23049160D01*
X63192785Y-23026175D01*
X63299804Y-22866010D01*
X63373520Y-22688043D01*
X63411100Y-22499115D01*
X63411100Y-22306485D01*
X63373520Y-22117557D01*
X63299804Y-21939590D01*
X63192785Y-21779425D01*
X63056575Y-21643215D01*
X62896410Y-21536196D01*
X62718443Y-21462480D01*
X62529515Y-21424900D01*
X62336885Y-21424900D01*
X62147957Y-21462480D01*
X61969990Y-21536196D01*
X61809825Y-21643215D01*
X61673615Y-21779425D01*
X61566596Y-21939590D01*
X61492880Y-22117557D01*
X61455300Y-22306485D01*
X61455300Y-22499115D01*
X61492880Y-22688043D01*
X61566596Y-22866010D01*
X61673615Y-23026175D01*
X61696601Y-23049161D01*
X61696600Y-29260490D01*
X52463391Y-38493700D01*
X52430885Y-38493700D01*
X52241957Y-38531280D01*
X52063990Y-38604996D01*
X51903825Y-38712015D01*
X51767615Y-38848225D01*
X51660596Y-39008390D01*
X51586880Y-39186357D01*
X51549300Y-39375285D01*
X20477994Y-39375285D01*
X17462709Y-36360000D01*
X17596492Y-36360000D01*
X17807309Y-36339236D01*
X18077808Y-36257182D01*
X18327101Y-36123932D01*
X18545608Y-35944608D01*
X18724932Y-35726101D01*
X18796000Y-35593142D01*
X18867068Y-35726101D01*
X19046392Y-35944608D01*
X19264899Y-36123932D01*
X19514192Y-36257182D01*
X19784691Y-36339236D01*
X19995508Y-36360000D01*
X20136492Y-36360000D01*
X20347309Y-36339236D01*
X20617808Y-36257182D01*
X20867101Y-36123932D01*
X21085608Y-35944608D01*
X21264932Y-35726101D01*
X21336000Y-35593142D01*
X21407068Y-35726101D01*
X21586392Y-35944608D01*
X21804899Y-36123932D01*
X22054192Y-36257182D01*
X22324691Y-36339236D01*
X22535508Y-36360000D01*
X22676492Y-36360000D01*
X22887309Y-36339236D01*
X23157808Y-36257182D01*
X23407101Y-36123932D01*
X23625608Y-35944608D01*
X23804932Y-35726101D01*
X23876000Y-35593142D01*
X23947068Y-35726101D01*
X24126392Y-35944608D01*
X24344899Y-36123932D01*
X24594192Y-36257182D01*
X24864691Y-36339236D01*
X25075508Y-36360000D01*
X25216492Y-36360000D01*
X25427309Y-36339236D01*
X25697808Y-36257182D01*
X25947101Y-36123932D01*
X26165608Y-35944608D01*
X26344932Y-35726101D01*
X26416000Y-35593142D01*
X26487068Y-35726101D01*
X26666392Y-35944608D01*
X26884899Y-36123932D01*
X27134192Y-36257182D01*
X27404691Y-36339236D01*
X27615508Y-36360000D01*
X27756492Y-36360000D01*
X27967309Y-36339236D01*
X28237808Y-36257182D01*
X28487101Y-36123932D01*
X28705608Y-35944608D01*
X28884932Y-35726101D01*
X28956000Y-35593142D01*
X29027068Y-35726101D01*
X29206392Y-35944608D01*
X29424899Y-36123932D01*
X29674192Y-36257182D01*
X29944691Y-36339236D01*
X30155508Y-36360000D01*
X30296492Y-36360000D01*
X30507309Y-36339236D01*
X30777808Y-36257182D01*
X31027101Y-36123932D01*
X31245608Y-35944608D01*
X31424932Y-35726101D01*
X31496000Y-35593142D01*
X31567068Y-35726101D01*
X31746392Y-35944608D01*
X31964899Y-36123932D01*
X32214192Y-36257182D01*
X32484691Y-36339236D01*
X32695508Y-36360000D01*
X32836492Y-36360000D01*
X33047309Y-36339236D01*
X33317808Y-36257182D01*
X33567101Y-36123932D01*
X33785608Y-35944608D01*
X33964932Y-35726101D01*
X34038579Y-35588318D01*
X34153615Y-35780131D01*
X34342586Y-35988519D01*
X34568580Y-36156037D01*
X34822913Y-36276246D01*
X34956961Y-36316904D01*
X35179000Y-36194915D01*
X35179000Y-35052000D01*
X35159000Y-35052000D01*
X35159000Y-34798000D01*
X35179000Y-34798000D01*
X35179000Y-33655085D01*
X35433000Y-33655085D01*
X35433000Y-34798000D01*
X35453000Y-34798000D01*
X35453000Y-35052000D01*
X35433000Y-35052000D01*
X35433000Y-36194915D01*
X35655039Y-36316904D01*
X35789087Y-36276246D01*
X36043420Y-36156037D01*
X36269414Y-35988519D01*
X36458385Y-35780131D01*
X36573421Y-35588318D01*
X36647068Y-35726101D01*
X36826392Y-35944608D01*
X37044899Y-36123932D01*
X37294192Y-36257182D01*
X37564691Y-36339236D01*
X37775508Y-36360000D01*
X37916492Y-36360000D01*
X38127309Y-36339236D01*
X38397808Y-36257182D01*
X38647101Y-36123932D01*
X38865608Y-35944608D01*
X39044932Y-35726101D01*
X39116000Y-35593142D01*
X39187068Y-35726101D01*
X39366392Y-35944608D01*
X39584899Y-36123932D01*
X39834192Y-36257182D01*
X40104691Y-36339236D01*
X40315508Y-36360000D01*
X40456492Y-36360000D01*
X40667309Y-36339236D01*
X40937808Y-36257182D01*
X41187101Y-36123932D01*
X41405608Y-35944608D01*
X41498419Y-35831518D01*
X41500188Y-35849482D01*
X41536498Y-35969180D01*
X41595463Y-36079494D01*
X41674815Y-36176185D01*
X41771506Y-36255537D01*
X41881820Y-36314502D01*
X42001518Y-36350812D01*
X42126000Y-36363072D01*
X43726000Y-36363072D01*
X43850482Y-36350812D01*
X43970180Y-36314502D01*
X44080494Y-36255537D01*
X44177185Y-36176185D01*
X44256537Y-36079494D01*
X44315502Y-35969180D01*
X44351812Y-35849482D01*
X44364072Y-35725000D01*
X44364072Y-34125000D01*
X44351812Y-34000518D01*
X44315502Y-33880820D01*
X44256537Y-33770506D01*
X44177185Y-33673815D01*
X44080494Y-33594463D01*
X43970180Y-33535498D01*
X43850482Y-33499188D01*
X43726000Y-33486928D01*
X42126000Y-33486928D01*
X42001518Y-33499188D01*
X41881820Y-33535498D01*
X41771506Y-33594463D01*
X41674815Y-33673815D01*
X41595463Y-33770506D01*
X41536498Y-33880820D01*
X41500188Y-34000518D01*
X41498419Y-34018482D01*
X41405608Y-33905392D01*
X41187101Y-33726068D01*
X40937808Y-33592818D01*
X40667309Y-33510764D01*
X40456492Y-33490000D01*
X40315508Y-33490000D01*
X40104691Y-33510764D01*
X39834192Y-33592818D01*
X39584899Y-33726068D01*
X39366392Y-33905392D01*
X39187068Y-34123899D01*
X39116000Y-34256858D01*
X39044932Y-34123899D01*
X38865608Y-33905392D01*
X38647101Y-33726068D01*
X38397808Y-33592818D01*
X38127309Y-33510764D01*
X37916492Y-33490000D01*
X37775508Y-33490000D01*
X37564691Y-33510764D01*
X37294192Y-33592818D01*
X37044899Y-33726068D01*
X36826392Y-33905392D01*
X36647068Y-34123899D01*
X36573421Y-34261682D01*
X36458385Y-34069869D01*
X36269414Y-33861481D01*
X36043420Y-33693963D01*
X35789087Y-33573754D01*
X35655039Y-33533096D01*
X35433000Y-33655085D01*
X35179000Y-33655085D01*
X34956961Y-33533096D01*
X34822913Y-33573754D01*
X34568580Y-33693963D01*
X34342586Y-33861481D01*
X34153615Y-34069869D01*
X34038579Y-34261682D01*
X33964932Y-34123899D01*
X33785608Y-33905392D01*
X33567101Y-33726068D01*
X33317808Y-33592818D01*
X33047309Y-33510764D01*
X32836492Y-33490000D01*
X32695508Y-33490000D01*
X32484691Y-33510764D01*
X32214192Y-33592818D01*
X31964899Y-33726068D01*
X31746392Y-33905392D01*
X31567068Y-34123899D01*
X31496000Y-34256858D01*
X31424932Y-34123899D01*
X31245608Y-33905392D01*
X31027101Y-33726068D01*
X30777808Y-33592818D01*
X30507309Y-33510764D01*
X30296492Y-33490000D01*
X30155508Y-33490000D01*
X29944691Y-33510764D01*
X29674192Y-33592818D01*
X29424899Y-33726068D01*
X29206392Y-33905392D01*
X29027068Y-34123899D01*
X28956000Y-34256858D01*
X28884932Y-34123899D01*
X28705608Y-33905392D01*
X28487101Y-33726068D01*
X28237808Y-33592818D01*
X27967309Y-33510764D01*
X27756492Y-33490000D01*
X27615508Y-33490000D01*
X27404691Y-33510764D01*
X27134192Y-33592818D01*
X26884899Y-33726068D01*
X26666392Y-33905392D01*
X26487068Y-34123899D01*
X26416000Y-34256858D01*
X26344932Y-34123899D01*
X26165608Y-33905392D01*
X25947101Y-33726068D01*
X25697808Y-33592818D01*
X25427309Y-33510764D01*
X25216492Y-33490000D01*
X25075508Y-33490000D01*
X24864691Y-33510764D01*
X24594192Y-33592818D01*
X24344899Y-33726068D01*
X24126392Y-33905392D01*
X23947068Y-34123899D01*
X23876000Y-34256858D01*
X23804932Y-34123899D01*
X23625608Y-33905392D01*
X23407101Y-33726068D01*
X23157808Y-33592818D01*
X22887309Y-33510764D01*
X22676492Y-33490000D01*
X22535508Y-33490000D01*
X22324691Y-33510764D01*
X22054192Y-33592818D01*
X21804899Y-33726068D01*
X21586392Y-33905392D01*
X21407068Y-34123899D01*
X21336000Y-34256858D01*
X21264932Y-34123899D01*
X21085608Y-33905392D01*
X20867101Y-33726068D01*
X20617808Y-33592818D01*
X20347309Y-33510764D01*
X20136492Y-33490000D01*
X19995508Y-33490000D01*
X19784691Y-33510764D01*
X19514192Y-33592818D01*
X19264899Y-33726068D01*
X19046392Y-33905392D01*
X18867068Y-34123899D01*
X18796000Y-34256858D01*
X18724932Y-34123899D01*
X18545608Y-33905392D01*
X18327101Y-33726068D01*
X18077808Y-33592818D01*
X17807309Y-33510764D01*
X17596492Y-33490000D01*
X17455508Y-33490000D01*
X17244691Y-33510764D01*
X16974192Y-33592818D01*
X16724899Y-33726068D01*
X16506392Y-33905392D01*
X16327068Y-34123899D01*
X16256000Y-34256858D01*
X16184932Y-34123899D01*
X16005608Y-33905392D01*
X15787101Y-33726068D01*
X15537808Y-33592818D01*
X15267309Y-33510764D01*
X15056492Y-33490000D01*
X14915508Y-33490000D01*
X14704691Y-33510764D01*
X14434192Y-33592818D01*
X14184899Y-33726068D01*
X13966392Y-33905392D01*
X13787068Y-34123899D01*
X13716000Y-34256858D01*
X13644932Y-34123899D01*
X13465608Y-33905392D01*
X13247101Y-33726068D01*
X12997808Y-33592818D01*
X12727309Y-33510764D01*
X12516492Y-33490000D01*
X12375508Y-33490000D01*
X12164691Y-33510764D01*
X11894192Y-33592818D01*
X11644899Y-33726068D01*
X11426392Y-33905392D01*
X11247068Y-34123899D01*
X11176000Y-34256858D01*
X11104932Y-34123899D01*
X10925608Y-33905392D01*
X10707101Y-33726068D01*
X10457808Y-33592818D01*
X10187309Y-33510764D01*
X9976492Y-33490000D01*
X9835508Y-33490000D01*
X9624691Y-33510764D01*
X9354192Y-33592818D01*
X9104899Y-33726068D01*
X8886392Y-33905392D01*
X8707068Y-34123899D01*
X8636000Y-34256858D01*
X8564932Y-34123899D01*
X8385608Y-33905392D01*
X8167101Y-33726068D01*
X7917808Y-33592818D01*
X7647309Y-33510764D01*
X7436492Y-33490000D01*
X7295508Y-33490000D01*
X7084691Y-33510764D01*
X6814192Y-33592818D01*
X6564899Y-33726068D01*
X6346392Y-33905392D01*
X6167068Y-34123899D01*
X6033818Y-34373192D01*
X5951764Y-34643691D01*
X5924057Y-34925000D01*
X660000Y-34925000D01*
X660000Y-31399685D01*
X49974500Y-31399685D01*
X49974500Y-31592315D01*
X50012080Y-31781243D01*
X50085796Y-31959210D01*
X50192815Y-32119375D01*
X50329025Y-32255585D01*
X50489190Y-32362604D01*
X50667157Y-32436320D01*
X50856085Y-32473900D01*
X51048715Y-32473900D01*
X51237643Y-32436320D01*
X51415610Y-32362604D01*
X51575775Y-32255585D01*
X51711985Y-32119375D01*
X51819004Y-31959210D01*
X51892720Y-31781243D01*
X51930300Y-31592315D01*
X51930300Y-31559809D01*
X57391274Y-26098836D01*
X57419374Y-26075775D01*
X57442437Y-26047673D01*
X57442442Y-26047668D01*
X57511424Y-25963613D01*
X57578756Y-25837643D01*
X57579822Y-25835649D01*
X57621942Y-25696799D01*
X57632600Y-25588586D01*
X57632600Y-25588585D01*
X57636164Y-25552400D01*
X57632600Y-25516214D01*
X57632600Y-17867560D01*
X57655585Y-17844575D01*
X57762604Y-17684410D01*
X57836320Y-17506443D01*
X57873900Y-17317515D01*
X57873900Y-17124885D01*
X57836320Y-16935957D01*
X57762604Y-16757990D01*
X57655585Y-16597825D01*
X57519375Y-16461615D01*
X57359210Y-16354596D01*
X57181243Y-16280880D01*
X56992315Y-16243300D01*
X56799685Y-16243300D01*
X56610757Y-16280880D01*
X56432790Y-16354596D01*
X56272625Y-16461615D01*
X56136415Y-16597825D01*
X56029396Y-16757990D01*
X55955680Y-16935957D01*
X55918100Y-17124885D01*
X55918100Y-17317515D01*
X55955680Y-17506443D01*
X56029396Y-17684410D01*
X56136415Y-17844575D01*
X56159401Y-17867561D01*
X56159400Y-25247290D01*
X50888591Y-30518100D01*
X50856085Y-30518100D01*
X50667157Y-30555680D01*
X50489190Y-30629396D01*
X50329025Y-30736415D01*
X50192815Y-30872625D01*
X50085796Y-31032790D01*
X50012080Y-31210757D01*
X49974500Y-31399685D01*
X660000Y-31399685D01*
X660000Y-26551472D01*
X4115000Y-26551472D01*
X4115000Y-26991728D01*
X4200890Y-27423525D01*
X4369369Y-27830269D01*
X4613962Y-28196329D01*
X4925271Y-28507638D01*
X5291331Y-28752231D01*
X5698075Y-28920710D01*
X6129872Y-29006600D01*
X6570128Y-29006600D01*
X7001925Y-28920710D01*
X7408669Y-28752231D01*
X7774729Y-28507638D01*
X8086038Y-28196329D01*
X8330631Y-27830269D01*
X8499110Y-27423525D01*
X8585000Y-26991728D01*
X8585000Y-26551472D01*
X8499110Y-26119675D01*
X8330631Y-25712931D01*
X8086038Y-25346871D01*
X7774729Y-25035562D01*
X7408669Y-24790969D01*
X7001925Y-24622490D01*
X6570128Y-24536600D01*
X6129872Y-24536600D01*
X5698075Y-24622490D01*
X5291331Y-24790969D01*
X4925271Y-25035562D01*
X4613962Y-25346871D01*
X4369369Y-25712931D01*
X4200890Y-26119675D01*
X4115000Y-26551472D01*
X660000Y-26551472D01*
X660000Y-22255685D01*
X6642100Y-22255685D01*
X6642100Y-22448315D01*
X6679680Y-22637243D01*
X6753396Y-22815210D01*
X6860415Y-22975375D01*
X6996625Y-23111585D01*
X7156790Y-23218604D01*
X7334757Y-23292320D01*
X7523685Y-23329900D01*
X7556191Y-23329900D01*
X9257957Y-25031667D01*
X9281025Y-25059775D01*
X9393187Y-25151824D01*
X9521151Y-25220222D01*
X9660001Y-25262342D01*
X9768214Y-25273000D01*
X9768223Y-25273000D01*
X9804399Y-25276563D01*
X9840575Y-25273000D01*
X17143318Y-25273000D01*
X17106900Y-25456085D01*
X17106900Y-25648715D01*
X17144480Y-25837643D01*
X17218196Y-26015610D01*
X17325215Y-26175775D01*
X17461425Y-26311985D01*
X17621590Y-26419004D01*
X17799557Y-26492720D01*
X17988485Y-26530300D01*
X18181115Y-26530300D01*
X18370043Y-26492720D01*
X18548010Y-26419004D01*
X18652606Y-26349115D01*
X20713700Y-28410210D01*
X20713700Y-28442715D01*
X20751280Y-28631643D01*
X20824996Y-28809610D01*
X20932015Y-28969775D01*
X21068225Y-29105985D01*
X21228390Y-29213004D01*
X21406357Y-29286720D01*
X21595285Y-29324300D01*
X21787915Y-29324300D01*
X21976843Y-29286720D01*
X22154810Y-29213004D01*
X22314975Y-29105985D01*
X22451185Y-28969775D01*
X22558204Y-28809610D01*
X22631920Y-28631643D01*
X22669500Y-28442715D01*
X22669500Y-28384810D01*
X24269700Y-29985010D01*
X24269700Y-30017515D01*
X24307280Y-30206443D01*
X24380996Y-30384410D01*
X24488015Y-30544575D01*
X24624225Y-30680785D01*
X24784390Y-30787804D01*
X24962357Y-30861520D01*
X25151285Y-30899100D01*
X25343915Y-30899100D01*
X25532843Y-30861520D01*
X25710810Y-30787804D01*
X25870975Y-30680785D01*
X26007185Y-30544575D01*
X26114204Y-30384410D01*
X26187920Y-30206443D01*
X26225500Y-30017515D01*
X26225500Y-29824885D01*
X26187920Y-29635957D01*
X26114204Y-29457990D01*
X26007185Y-29297825D01*
X25870975Y-29161615D01*
X25710810Y-29054596D01*
X25532843Y-28980880D01*
X25343915Y-28943300D01*
X25311410Y-28943300D01*
X20409246Y-24041137D01*
X20386175Y-24013025D01*
X20274013Y-23920976D01*
X20146049Y-23852578D01*
X20007199Y-23810458D01*
X19898986Y-23799800D01*
X19898983Y-23799800D01*
X19862800Y-23796236D01*
X19826617Y-23799800D01*
X10109510Y-23799800D01*
X8597900Y-22288191D01*
X8597900Y-22255685D01*
X8560320Y-22066757D01*
X8486604Y-21888790D01*
X8379585Y-21728625D01*
X8243375Y-21592415D01*
X8083210Y-21485396D01*
X7905243Y-21411680D01*
X7716315Y-21374100D01*
X7523685Y-21374100D01*
X7334757Y-21411680D01*
X7156790Y-21485396D01*
X6996625Y-21592415D01*
X6860415Y-21728625D01*
X6753396Y-21888790D01*
X6679680Y-22066757D01*
X6642100Y-22255685D01*
X660000Y-22255685D01*
X660000Y-19685000D01*
X1047815Y-19685000D01*
X1076487Y-19976111D01*
X1161401Y-20256034D01*
X1299294Y-20514014D01*
X1484866Y-20740134D01*
X1710986Y-20925706D01*
X1968966Y-21063599D01*
X2248889Y-21148513D01*
X2467050Y-21170000D01*
X2612950Y-21170000D01*
X2831111Y-21148513D01*
X3111034Y-21063599D01*
X3369014Y-20925706D01*
X3595134Y-20740134D01*
X3780706Y-20514014D01*
X3815201Y-20449477D01*
X3884822Y-20566355D01*
X4079731Y-20782588D01*
X4313080Y-20956641D01*
X4575901Y-21081825D01*
X4723110Y-21126476D01*
X4953000Y-21005155D01*
X4953000Y-19812000D01*
X4933000Y-19812000D01*
X4933000Y-19558000D01*
X4953000Y-19558000D01*
X4953000Y-18364845D01*
X5207000Y-18364845D01*
X5207000Y-19558000D01*
X5227000Y-19558000D01*
X5227000Y-19812000D01*
X5207000Y-19812000D01*
X5207000Y-21005155D01*
X5436890Y-21126476D01*
X5584099Y-21081825D01*
X5846920Y-20956641D01*
X6080269Y-20782588D01*
X6275178Y-20566355D01*
X6344799Y-20449477D01*
X6379294Y-20514014D01*
X6564866Y-20740134D01*
X6790986Y-20925706D01*
X7048966Y-21063599D01*
X7328889Y-21148513D01*
X7547050Y-21170000D01*
X7692950Y-21170000D01*
X7911111Y-21148513D01*
X8191034Y-21063599D01*
X8449014Y-20925706D01*
X8675134Y-20740134D01*
X8860706Y-20514014D01*
X8890000Y-20459209D01*
X8919294Y-20514014D01*
X9104866Y-20740134D01*
X9330986Y-20925706D01*
X9588966Y-21063599D01*
X9868889Y-21148513D01*
X10087050Y-21170000D01*
X10232950Y-21170000D01*
X10451111Y-21148513D01*
X10731034Y-21063599D01*
X10989014Y-20925706D01*
X11215134Y-20740134D01*
X11400706Y-20514014D01*
X11430000Y-20459209D01*
X11459294Y-20514014D01*
X11644866Y-20740134D01*
X11870986Y-20925706D01*
X12128966Y-21063599D01*
X12408889Y-21148513D01*
X12627050Y-21170000D01*
X12772950Y-21170000D01*
X12991111Y-21148513D01*
X13271034Y-21063599D01*
X13529014Y-20925706D01*
X13755134Y-20740134D01*
X13940706Y-20514014D01*
X13970000Y-20459209D01*
X13999294Y-20514014D01*
X14184866Y-20740134D01*
X14410986Y-20925706D01*
X14668966Y-21063599D01*
X14948889Y-21148513D01*
X15167050Y-21170000D01*
X15312950Y-21170000D01*
X15531111Y-21148513D01*
X15811034Y-21063599D01*
X16069014Y-20925706D01*
X16295134Y-20740134D01*
X16480706Y-20514014D01*
X16510000Y-20459209D01*
X16539294Y-20514014D01*
X16724866Y-20740134D01*
X16950986Y-20925706D01*
X17208966Y-21063599D01*
X17488889Y-21148513D01*
X17707050Y-21170000D01*
X17852950Y-21170000D01*
X18071111Y-21148513D01*
X18351034Y-21063599D01*
X18609014Y-20925706D01*
X18835134Y-20740134D01*
X19020706Y-20514014D01*
X19050000Y-20459209D01*
X19079294Y-20514014D01*
X19264866Y-20740134D01*
X19490986Y-20925706D01*
X19748966Y-21063599D01*
X20028889Y-21148513D01*
X20247050Y-21170000D01*
X20392950Y-21170000D01*
X20611111Y-21148513D01*
X20891034Y-21063599D01*
X21149014Y-20925706D01*
X21375134Y-20740134D01*
X21560706Y-20514014D01*
X21590000Y-20459209D01*
X21619294Y-20514014D01*
X21804866Y-20740134D01*
X22030986Y-20925706D01*
X22288966Y-21063599D01*
X22568889Y-21148513D01*
X22787050Y-21170000D01*
X22932950Y-21170000D01*
X23151111Y-21148513D01*
X23431034Y-21063599D01*
X23689014Y-20925706D01*
X23915134Y-20740134D01*
X23939607Y-20710313D01*
X23960498Y-20779180D01*
X24019463Y-20889494D01*
X24098815Y-20986185D01*
X24195506Y-21065537D01*
X24305820Y-21124502D01*
X24425518Y-21160812D01*
X24550000Y-21173072D01*
X26250000Y-21173072D01*
X26374482Y-21160812D01*
X26494180Y-21124502D01*
X26604494Y-21065537D01*
X26701185Y-20986185D01*
X26780537Y-20889494D01*
X26839502Y-20779180D01*
X26875812Y-20659482D01*
X26888072Y-20535000D01*
X26888072Y-18835000D01*
X26875812Y-18710518D01*
X26839502Y-18590820D01*
X26780537Y-18480506D01*
X26701185Y-18383815D01*
X26604494Y-18304463D01*
X26494180Y-18245498D01*
X26374482Y-18209188D01*
X26250000Y-18196928D01*
X24550000Y-18196928D01*
X24425518Y-18209188D01*
X24305820Y-18245498D01*
X24195506Y-18304463D01*
X24098815Y-18383815D01*
X24019463Y-18480506D01*
X23960498Y-18590820D01*
X23939607Y-18659687D01*
X23915134Y-18629866D01*
X23689014Y-18444294D01*
X23431034Y-18306401D01*
X23151111Y-18221487D01*
X22932950Y-18200000D01*
X22787050Y-18200000D01*
X22568889Y-18221487D01*
X22288966Y-18306401D01*
X22030986Y-18444294D01*
X21804866Y-18629866D01*
X21619294Y-18855986D01*
X21590000Y-18910791D01*
X21560706Y-18855986D01*
X21375134Y-18629866D01*
X21149014Y-18444294D01*
X20891034Y-18306401D01*
X20611111Y-18221487D01*
X20392950Y-18200000D01*
X20247050Y-18200000D01*
X20028889Y-18221487D01*
X19748966Y-18306401D01*
X19490986Y-18444294D01*
X19264866Y-18629866D01*
X19079294Y-18855986D01*
X19050000Y-18910791D01*
X19020706Y-18855986D01*
X18835134Y-18629866D01*
X18609014Y-18444294D01*
X18351034Y-18306401D01*
X18071111Y-18221487D01*
X17852950Y-18200000D01*
X17707050Y-18200000D01*
X17488889Y-18221487D01*
X17208966Y-18306401D01*
X16950986Y-18444294D01*
X16724866Y-18629866D01*
X16539294Y-18855986D01*
X16510000Y-18910791D01*
X16480706Y-18855986D01*
X16295134Y-18629866D01*
X16069014Y-18444294D01*
X15811034Y-18306401D01*
X15531111Y-18221487D01*
X15312950Y-18200000D01*
X15167050Y-18200000D01*
X14948889Y-18221487D01*
X14668966Y-18306401D01*
X14410986Y-18444294D01*
X14184866Y-18629866D01*
X13999294Y-18855986D01*
X13970000Y-18910791D01*
X13940706Y-18855986D01*
X13755134Y-18629866D01*
X13529014Y-18444294D01*
X13271034Y-18306401D01*
X12991111Y-18221487D01*
X12772950Y-18200000D01*
X12627050Y-18200000D01*
X12408889Y-18221487D01*
X12128966Y-18306401D01*
X11870986Y-18444294D01*
X11644866Y-18629866D01*
X11459294Y-18855986D01*
X11430000Y-18910791D01*
X11400706Y-18855986D01*
X11215134Y-18629866D01*
X10989014Y-18444294D01*
X10731034Y-18306401D01*
X10451111Y-18221487D01*
X10232950Y-18200000D01*
X10087050Y-18200000D01*
X9868889Y-18221487D01*
X9588966Y-18306401D01*
X9330986Y-18444294D01*
X9104866Y-18629866D01*
X8919294Y-18855986D01*
X8890000Y-18910791D01*
X8860706Y-18855986D01*
X8675134Y-18629866D01*
X8449014Y-18444294D01*
X8191034Y-18306401D01*
X7911111Y-18221487D01*
X7692950Y-18200000D01*
X7547050Y-18200000D01*
X7328889Y-18221487D01*
X7048966Y-18306401D01*
X6790986Y-18444294D01*
X6564866Y-18629866D01*
X6379294Y-18855986D01*
X6344799Y-18920523D01*
X6275178Y-18803645D01*
X6080269Y-18587412D01*
X5846920Y-18413359D01*
X5584099Y-18288175D01*
X5436890Y-18243524D01*
X5207000Y-18364845D01*
X4953000Y-18364845D01*
X4723110Y-18243524D01*
X4575901Y-18288175D01*
X4313080Y-18413359D01*
X4079731Y-18587412D01*
X3884822Y-18803645D01*
X3815201Y-18920523D01*
X3780706Y-18855986D01*
X3595134Y-18629866D01*
X3369014Y-18444294D01*
X3111034Y-18306401D01*
X2831111Y-18221487D01*
X2612950Y-18200000D01*
X2467050Y-18200000D01*
X2248889Y-18221487D01*
X1968966Y-18306401D01*
X1710986Y-18444294D01*
X1484866Y-18629866D01*
X1299294Y-18855986D01*
X1161401Y-19113966D01*
X1076487Y-19393889D01*
X1047815Y-19685000D01*
X660000Y-19685000D01*
X660000Y-12115000D01*
X50766353Y-12115000D01*
X50800000Y-12118314D01*
X50934283Y-12105088D01*
X51063406Y-12065919D01*
X51182407Y-12002312D01*
X51286711Y-11916711D01*
X51372312Y-11812407D01*
X51435919Y-11693406D01*
X51475088Y-11564283D01*
X51485000Y-11463647D01*
X51488314Y-11430000D01*
X51485000Y-11396353D01*
X51485000Y-2756204D01*
X56128600Y-2756204D01*
X56128600Y-3441397D01*
X56155875Y-3718324D01*
X56263661Y-4073648D01*
X56438697Y-4401117D01*
X56674255Y-4688145D01*
X56961284Y-4923703D01*
X57288753Y-5098739D01*
X57644077Y-5206525D01*
X58013600Y-5242920D01*
X58383124Y-5206525D01*
X58738448Y-5098739D01*
X59065917Y-4923703D01*
X59352945Y-4688145D01*
X59588503Y-4401117D01*
X59763539Y-4073648D01*
X59871325Y-3718323D01*
X59898600Y-3441396D01*
X59898600Y-2756204D01*
X59938600Y-2756204D01*
X59938600Y-3441397D01*
X59965875Y-3718324D01*
X60073661Y-4073648D01*
X60248697Y-4401117D01*
X60484255Y-4688145D01*
X60771284Y-4923703D01*
X61098753Y-5098739D01*
X61454077Y-5206525D01*
X61823600Y-5242920D01*
X62193124Y-5206525D01*
X62548448Y-5098739D01*
X62875917Y-4923703D01*
X63162945Y-4688145D01*
X63398503Y-4401117D01*
X63573539Y-4073648D01*
X63681325Y-3718323D01*
X63708600Y-3441396D01*
X63708600Y-2756204D01*
X63748600Y-2756204D01*
X63748600Y-3441397D01*
X63775875Y-3718324D01*
X63883661Y-4073648D01*
X64058697Y-4401117D01*
X64294255Y-4688145D01*
X64581284Y-4923703D01*
X64908753Y-5098739D01*
X65264077Y-5206525D01*
X65633600Y-5242920D01*
X66003124Y-5206525D01*
X66358448Y-5098739D01*
X66685917Y-4923703D01*
X66972945Y-4688145D01*
X67208503Y-4401117D01*
X67383539Y-4073648D01*
X67491325Y-3718323D01*
X67518600Y-3441396D01*
X67518600Y-2756204D01*
X71419400Y-2756204D01*
X71419400Y-3441397D01*
X71446675Y-3718324D01*
X71554461Y-4073648D01*
X71729497Y-4401117D01*
X71965055Y-4688145D01*
X72252084Y-4923703D01*
X72579553Y-5098739D01*
X72934877Y-5206525D01*
X73304400Y-5242920D01*
X73673924Y-5206525D01*
X74029248Y-5098739D01*
X74356717Y-4923703D01*
X74643745Y-4688145D01*
X74879303Y-4401117D01*
X75054339Y-4073648D01*
X75162125Y-3718323D01*
X75189400Y-3441396D01*
X75189400Y-2756204D01*
X75229400Y-2756204D01*
X75229400Y-3441397D01*
X75256675Y-3718324D01*
X75364461Y-4073648D01*
X75539497Y-4401117D01*
X75775055Y-4688145D01*
X76062084Y-4923703D01*
X76389553Y-5098739D01*
X76744877Y-5206525D01*
X77114400Y-5242920D01*
X77483924Y-5206525D01*
X77839248Y-5098739D01*
X78166717Y-4923703D01*
X78453745Y-4688145D01*
X78689303Y-4401117D01*
X78864339Y-4073648D01*
X78972125Y-3718323D01*
X78999400Y-3441396D01*
X78999400Y-2756204D01*
X79039400Y-2756204D01*
X79039400Y-3441397D01*
X79066675Y-3718324D01*
X79174461Y-4073648D01*
X79349497Y-4401117D01*
X79585055Y-4688145D01*
X79872084Y-4923703D01*
X80199553Y-5098739D01*
X80554877Y-5206525D01*
X80924400Y-5242920D01*
X81293924Y-5206525D01*
X81649248Y-5098739D01*
X81976717Y-4923703D01*
X82263745Y-4688145D01*
X82499303Y-4401117D01*
X82674339Y-4073648D01*
X82782125Y-3718323D01*
X82809400Y-3441396D01*
X82809400Y-2756203D01*
X82782125Y-2479276D01*
X82674339Y-2123952D01*
X82499303Y-1796483D01*
X82263745Y-1509455D01*
X81976717Y-1273897D01*
X81649247Y-1098861D01*
X81293923Y-991075D01*
X80924400Y-954680D01*
X80554876Y-991075D01*
X80199552Y-1098861D01*
X79872083Y-1273897D01*
X79585055Y-1509455D01*
X79349497Y-1796483D01*
X79174461Y-2123953D01*
X79066675Y-2479277D01*
X79039400Y-2756204D01*
X78999400Y-2756204D01*
X78999400Y-2756203D01*
X78972125Y-2479276D01*
X78864339Y-2123952D01*
X78689303Y-1796483D01*
X78453745Y-1509455D01*
X78166717Y-1273897D01*
X77839247Y-1098861D01*
X77483923Y-991075D01*
X77114400Y-954680D01*
X76744876Y-991075D01*
X76389552Y-1098861D01*
X76062083Y-1273897D01*
X75775055Y-1509455D01*
X75539497Y-1796483D01*
X75364461Y-2123953D01*
X75256675Y-2479277D01*
X75229400Y-2756204D01*
X75189400Y-2756204D01*
X75189400Y-2756203D01*
X75162125Y-2479276D01*
X75054339Y-2123952D01*
X74879303Y-1796483D01*
X74643745Y-1509455D01*
X74356717Y-1273897D01*
X74029247Y-1098861D01*
X73673923Y-991075D01*
X73304400Y-954680D01*
X72934876Y-991075D01*
X72579552Y-1098861D01*
X72252083Y-1273897D01*
X71965055Y-1509455D01*
X71729497Y-1796483D01*
X71554461Y-2123953D01*
X71446675Y-2479277D01*
X71419400Y-2756204D01*
X67518600Y-2756204D01*
X67518600Y-2756203D01*
X67491325Y-2479276D01*
X67383539Y-2123952D01*
X67208503Y-1796483D01*
X66972945Y-1509455D01*
X66685917Y-1273897D01*
X66358447Y-1098861D01*
X66003123Y-991075D01*
X65633600Y-954680D01*
X65264076Y-991075D01*
X64908752Y-1098861D01*
X64581283Y-1273897D01*
X64294255Y-1509455D01*
X64058697Y-1796483D01*
X63883661Y-2123953D01*
X63775875Y-2479277D01*
X63748600Y-2756204D01*
X63708600Y-2756204D01*
X63708600Y-2756203D01*
X63681325Y-2479276D01*
X63573539Y-2123952D01*
X63398503Y-1796483D01*
X63162945Y-1509455D01*
X62875917Y-1273897D01*
X62548447Y-1098861D01*
X62193123Y-991075D01*
X61823600Y-954680D01*
X61454076Y-991075D01*
X61098752Y-1098861D01*
X60771283Y-1273897D01*
X60484255Y-1509455D01*
X60248697Y-1796483D01*
X60073661Y-2123953D01*
X59965875Y-2479277D01*
X59938600Y-2756204D01*
X59898600Y-2756204D01*
X59898600Y-2756203D01*
X59871325Y-2479276D01*
X59763539Y-2123952D01*
X59588503Y-1796483D01*
X59352945Y-1509455D01*
X59065917Y-1273897D01*
X58738447Y-1098861D01*
X58383123Y-991075D01*
X58013600Y-954680D01*
X57644076Y-991075D01*
X57288752Y-1098861D01*
X56961283Y-1273897D01*
X56674255Y-1509455D01*
X56438697Y-1796483D01*
X56263661Y-2123953D01*
X56155875Y-2479277D01*
X56128600Y-2756204D01*
X51485000Y-2756204D01*
X51485000Y-660000D01*
X88240001Y-660000D01*
X88240000Y-88240000D01*
M02*
